<svg
      width="40"
      height="40"
      viewBox="0 0 50 50"
      fill="none"
      xmlns="http://www.w3.org/2000/svg"
    >
      <circle
        cx="25"
        cy="25"
        r="24.5"
        stroke="url(#paint0_linear_10469_48937)"
      />
      <g clip-path="url(#clip0_10469_48937)">
        <path
          d="M31.0312 28.1211C29.6421 28.1211 28.4077 28.7962 27.6385 29.8354L21.0165 26.4512C21.1276 26.0738 21.1875 25.6746 21.1875 25.2617C21.1875 24.7025 21.0779 24.1684 20.8793 23.6795L27.8197 19.5096C28.594 20.4185 29.7464 20.9961 31.0312 20.9961C33.3575 20.9961 35.25 19.1036 35.25 16.7773C35.25 14.4511 33.3575 12.5586 31.0312 12.5586C28.705 12.5586 26.8125 14.4511 26.8125 16.7773C26.8125 17.315 26.9138 17.8294 27.098 18.3027L20.1403 22.483C19.3665 21.6009 18.2316 21.043 16.9688 21.043C14.6425 21.043 12.75 22.9355 12.75 25.2617C12.75 27.5879 14.6425 29.4805 16.9688 29.4805C18.3807 29.4805 19.6328 28.7832 20.3989 27.7149L27.0017 31.0892C26.8788 31.4845 26.8125 31.9046 26.8125 32.3398C26.8125 34.6661 28.705 36.5586 31.0312 36.5586C33.3575 36.5586 35.25 34.6661 35.25 32.3398C35.25 30.0136 33.3575 28.1211 31.0312 28.1211ZM31.0312 13.9648C32.5821 13.9648 33.8438 15.2265 33.8438 16.7773C33.8438 18.3282 32.5821 19.5898 31.0312 19.5898C29.4804 19.5898 28.2188 18.3282 28.2188 16.7773C28.2188 15.2265 29.4804 13.9648 31.0312 13.9648ZM16.9688 28.0742C15.4179 28.0742 14.1562 26.8125 14.1562 25.2617C14.1562 23.7109 15.4179 22.4492 16.9688 22.4492C18.5196 22.4492 19.7812 23.7109 19.7812 25.2617C19.7812 26.8125 18.5196 28.0742 16.9688 28.0742ZM31.0312 35.1523C29.4804 35.1523 28.2188 33.8907 28.2188 32.3398C28.2188 30.789 29.4804 29.5273 31.0312 29.5273C32.5821 29.5273 33.8438 30.789 33.8438 32.3398C33.8438 33.8907 32.5821 35.1523 31.0312 35.1523Z"
          fill="url(#paint1_linear_10469_48937)"
        />
      </g>
      <defs>
        <linearGradient
          id="paint0_linear_10469_48937"
          x1="50"
          y1="25.3165"
          x2="2.4087e-07"
          y2="25.3165"
          gradientUnits="userSpaceOnUse"
        >
          <stop stop-color="#F0899E" />
          <stop offset="0.244792" stop-color="#9617D2" />
          <stop offset="0.510417" stop-color="#4E0FFF" />
          <stop offset="0.75" stop-color="#2C60FD" />
          <stop offset="1" stop-color="#30F0F6" />
        </linearGradient>
        <linearGradient
          id="paint1_linear_10469_48937"
          x1="35.25"
          y1="24.7105"
          x2="12.75"
          y2="24.7105"
          gradientUnits="userSpaceOnUse"
        >
          <stop stop-color="#F0899E" />
          <stop offset="0.244792" stop-color="#9617D2" />
          <stop offset="0.510417" stop-color="#4E0FFF" />
          <stop offset="0.75" stop-color="#2C60FD" />
          <stop offset="1" stop-color="#30F0F6" />
        </linearGradient>
        <clipPath id="clip0_10469_48937">
          <rect
            width="24"
            height="24"
            fill="white"
            transform="translate(12 12.5586)"
          />
        </clipPath>
      </defs>
    </svg>