<svg width="43" height="42" viewBox="0 0 43 42" fill="none" xmlns="http://www.w3.org/2000/svg">
<g opacity="0.8" clip-path="url(#clip0_11643_58326)">
<g style="mix-blend-mode:hard-light" filter="url(#filter0_f_11643_58326)">
<path d="M31.8971 21.3206C31.7325 21.791 31.7035 22.2839 31.7946 22.7455L29.5569 23.9163L29.5568 23.9164C29.0187 24.198 28.444 24.2284 27.9267 24.0301C27.3235 23.7987 26.8325 23.2457 26.6454 22.5179L25.9256 22.6946L26.6454 22.5179L25.201 16.8998C25.5017 16.6212 25.7418 16.2619 25.8886 15.8421C26.3305 14.579 25.7906 13.0769 24.5003 12.5821C23.21 12.0874 21.8712 12.8691 21.4293 14.1322C21.278 14.5649 21.241 15.0167 21.3068 15.4458L16.7348 18.7276L16.7347 18.7277C16.1455 19.1507 15.4328 19.2392 14.8301 19.0081C14.3204 18.8126 13.8842 18.383 13.6523 17.8109L13.6523 17.8109L12.6745 15.3993C13.023 15.109 13.3 14.7166 13.4626 14.2519C13.9044 12.9888 13.3645 11.4867 12.0742 10.9919C10.784 10.4972 9.44512 11.2789 9.00329 12.542C8.6996 13.4102 8.85604 14.3712 9.39424 15.0587L8.51213 22.6991L8.22019 24.1113L7.93893 24.9154C7.66818 25.6894 7.98808 26.6546 8.83765 26.9804L27.6571 34.1966C28.5067 34.5224 29.3463 34.0018 29.6171 33.2278L29.9017 32.4143L30.538 31.0745L34.5675 24.6729C35.3747 24.4938 36.0597 23.8787 36.3564 23.0305C36.7982 21.7674 36.2583 20.2652 34.968 19.7705C33.6778 19.2757 32.3389 20.0575 31.8971 21.3206Z" stroke="#00008B" stroke-opacity="0.6" stroke-width="1.5032"/>
</g>
<g style="mix-blend-mode:hard-light" filter="url(#filter1_f_11643_58326)">
<path d="M31.6812 21.2378C31.5231 21.6896 31.48 22.1616 31.5413 22.6132L29.4486 23.7081L29.4486 23.7082C28.9641 23.9617 28.4563 23.9855 28.0031 23.8118C27.4765 23.6099 27.0361 23.1219 26.8669 22.4635L26.8669 22.4635L25.4564 16.9774C25.7373 16.6894 25.9617 16.3332 26.1046 15.9249C26.5817 14.5609 26.0047 12.9114 24.5766 12.3638C23.1486 11.8162 21.6905 12.6854 21.2134 14.0494C21.0661 14.4706 21.0184 14.9094 21.0621 15.3329L16.6001 18.5357L16.6 18.5358C16.0673 18.9182 15.433 18.9917 14.9064 18.7898C14.4612 18.6191 14.0721 18.24 13.8637 17.7259L13.8637 17.7259L12.9486 15.469C13.2686 15.1668 13.5224 14.7809 13.6785 14.3347C14.1557 12.9707 13.5786 11.3212 12.1506 10.7736C10.7226 10.226 9.26451 11.0952 8.78736 12.4592C8.47021 13.3658 8.61431 14.3739 9.15578 15.1214L8.28585 22.6563L7.99917 24.0431L7.723 24.8326C7.41694 25.7075 7.77395 26.8201 8.76129 27.1986L27.5808 34.4149C28.5681 34.7935 29.5269 34.1856 29.833 33.3106L30.1135 32.5087L30.7387 31.1923L34.7126 24.879C35.5578 24.6579 36.2622 23.9998 36.5723 23.1133C37.0495 21.7492 36.4724 20.0998 35.0444 19.5522C33.6164 19.0046 32.1583 19.8737 31.6812 21.2378Z" stroke="#00008B" stroke-opacity="0.6" stroke-width="1.96572"/>
</g>
<g style="mix-blend-mode:hard-light" filter="url(#filter2_ddi_11643_58326)">
<path d="M31.8971 21.3206C31.7325 21.791 31.7035 22.2839 31.7946 22.7455L29.5569 23.9163L29.5568 23.9164C29.0187 24.198 28.444 24.2284 27.9267 24.0301C27.3235 23.7987 26.8325 23.2457 26.6454 22.5179L25.9256 22.6946L26.6454 22.5179L25.201 16.8998C25.5017 16.6212 25.7418 16.2619 25.8886 15.8421C26.3305 14.579 25.7906 13.0769 24.5003 12.5821C23.21 12.0874 21.8712 12.8691 21.4293 14.1322C21.278 14.5649 21.241 15.0167 21.3068 15.4458L16.7348 18.7276L16.7347 18.7277C16.1455 19.1507 15.4328 19.2392 14.8301 19.0081C14.3204 18.8126 13.8842 18.383 13.6523 17.8109L13.6523 17.8109L12.6745 15.3993C13.023 15.109 13.3 14.7166 13.4626 14.2519C13.9044 12.9888 13.3645 11.4867 12.0742 10.9919C10.784 10.4972 9.44512 11.2789 9.00329 12.542C8.6996 13.4102 8.85604 14.3712 9.39424 15.0587L8.51213 22.6991L8.22019 24.1113L7.93893 24.9154C7.66818 25.6894 7.98808 26.6546 8.83765 26.9804L27.6571 34.1966C28.5067 34.5224 29.3463 34.0018 29.6171 33.2278L29.9017 32.4143L30.538 31.0745L34.5675 24.6729C35.3747 24.4938 36.0597 23.8787 36.3564 23.0305C36.7982 21.7674 36.2583 20.2652 34.968 19.7705C33.6778 19.2757 32.3389 20.0575 31.8971 21.3206Z" stroke="#003366" stroke-opacity="0.1" stroke-width="1.5032"/>
</g>
<g filter="url(#filter3_f_11643_58326)">
<path d="M32.167 21.4241C31.9944 21.9176 31.9893 22.4362 32.1263 22.903L29.6921 24.1766L29.6921 24.1766C29.087 24.4933 28.4287 24.532 27.8313 24.3029C27.1321 24.0348 26.578 23.4005 26.3686 22.5859L25.9387 22.6914L26.3686 22.5859L24.8787 16.791C25.2051 16.5314 25.4672 16.1719 25.6187 15.7386C26.0164 14.6017 25.5229 13.2837 24.4048 12.855C23.2868 12.4262 22.0969 13.0988 21.6992 14.2357C21.5431 14.682 21.5237 15.1491 21.6227 15.5798L16.9031 18.9675L16.9031 18.9675C16.2431 19.4413 15.4325 19.5485 14.7346 19.2809C14.1444 19.0546 13.6494 18.5617 13.3881 17.9171L13.3881 17.9171L12.3254 15.2963C12.7117 15.0322 13.0221 14.6359 13.1927 14.1484C13.5904 13.0115 13.0968 11.6935 11.9788 11.2648C10.8607 10.8361 9.6709 11.5086 9.2732 12.6455C8.98634 13.4656 9.16071 14.3664 9.69423 14.9734C9.69144 14.9912 9.68899 15.0091 9.68689 15.0273L9.68688 15.0274L8.79497 22.7527L8.49648 24.1966L8.20884 25.0189C7.98223 25.6667 8.25574 26.4478 8.9331 26.7075L27.7526 33.9238C28.4299 34.1835 29.1206 33.7721 29.3472 33.1243L29.6368 32.2962L30.287 30.9273L34.3588 24.4585L34.359 24.4581C34.3692 24.4418 34.379 24.4255 34.3883 24.4091C35.1449 24.2863 35.8065 23.7273 36.0865 22.927C36.4842 21.7901 35.9906 20.4721 34.8726 20.0433C33.7545 19.6146 32.5647 20.2872 32.167 21.4241Z" stroke="#82D9FF" stroke-opacity="0.5" stroke-width="0.925046"/>
</g>
<g filter="url(#filter4_f_11643_58326)">
<path d="M32.3829 21.5069C32.2037 22.0193 32.2248 22.5586 32.4074 23.0207L29.8003 24.3848L29.8003 24.3848C29.1416 24.7295 28.4164 24.7749 27.7549 24.5212C26.979 24.2237 26.3744 23.5243 26.1471 22.6402L24.6179 16.6922C24.9654 16.4556 25.2477 16.0992 25.4028 15.6558C25.7652 14.6199 25.3088 13.4491 24.3285 13.0733C23.3482 12.6974 22.2776 13.2825 21.9152 14.3185C21.7554 14.7753 21.7543 15.2539 21.8854 15.6798L17.0378 19.1594L17.0378 19.1594C16.3213 19.6738 15.4323 19.796 14.6583 19.4992C14.0037 19.2482 13.4615 18.7047 13.1767 18.0021L13.1767 18.002L12.0394 15.1973C12.4572 14.9666 12.7997 14.5718 12.9767 14.0656C13.3391 13.0297 12.8827 11.8589 11.9024 11.4831C10.9221 11.1072 9.85152 11.6923 9.48913 12.7283C9.21441 13.5137 9.40899 14.369 9.94325 14.9052C9.93036 14.955 9.92052 15.0066 9.91436 15.0598L9.91435 15.0599L9.02124 22.7955L8.7175 24.2649L8.42477 25.1017C8.23348 25.6486 8.46988 26.2823 9.00946 26.4892L27.8289 33.7055C28.3685 33.9124 28.9399 33.5884 29.1312 33.0415L29.425 32.2018L30.0862 30.8095L34.1652 24.3293L34.1653 24.3291C34.1932 24.2846 34.2173 24.2389 34.2379 24.1927C34.9538 24.1223 35.6027 23.6099 35.8705 22.8442C36.2329 21.8082 35.7765 20.6375 34.7962 20.2616C33.8159 19.8857 32.7453 20.4709 32.3829 21.5069Z" stroke="white" stroke-opacity="0.4" stroke-width="0.462523"/>
</g>
<path d="M34.0169 24.1023C33.9931 24.183 33.9597 24.2617 33.9137 24.3349L29.8276 30.8265L29.1553 32.2421L28.8574 33.0935C28.7015 33.5394 28.2492 33.776 27.8474 33.622L9.02795 26.4057C8.62615 26.2516 8.42686 25.7652 8.58284 25.3193L8.88067 24.4679L9.18966 22.9731L10.084 15.2271C10.0943 15.1378 10.118 15.0528 10.1511 14.9733C9.60759 14.5194 9.38212 13.7037 9.6472 12.9459C9.97428 12.0109 10.9257 11.5131 11.7682 11.8361C12.6107 12.1592 13.03 13.1826 12.7029 14.1176C12.5188 14.6441 12.1366 15.0319 11.6873 15.2126L12.9074 18.2218C13.2158 18.9824 13.805 19.5766 14.524 19.8523C15.3742 20.1783 16.3416 20.041 17.1146 19.4861L22.1021 15.9061C21.9327 15.4931 21.9097 15.0035 22.0732 14.5361C22.4003 13.6011 23.3517 13.1033 24.1943 13.4263C25.0368 13.7494 25.4561 14.7728 25.129 15.7078C24.9704 16.1612 24.6642 16.5106 24.2954 16.7146L24.2969 16.7195L25.8677 22.8294C26.1129 23.7829 26.7681 24.5474 27.6207 24.8743C28.3463 25.1525 29.1384 25.1006 29.8507 24.7278L32.6501 23.2631C32.4114 22.8187 32.3546 22.2574 32.541 21.7244C32.8681 20.7894 33.8195 20.2916 34.662 20.6147C35.5045 20.9377 35.9238 21.9611 35.5967 22.8961C35.3387 23.6337 34.692 24.0972 34.0169 24.1023Z" fill="url(#paint0_linear_11643_58326)"/>
</g>
<defs>
<filter id="filter0_f_11643_58326" x="-1.53508" y="1.44246" width="47.4234" height="42.2518" filterUnits="userSpaceOnUse" color-interpolation-filters="sRGB">
<feFlood flood-opacity="0" result="BackgroundImageFix"/>
<feBlend mode="normal" in="SourceGraphic" in2="BackgroundImageFix" result="shape"/>
<feGaussianBlur stdDeviation="4.31881" result="effect1_foregroundBlur_11643_58326"/>
</filter>
<filter id="filter1_f_11643_58326" x="3.76655" y="6.73212" width="36.8204" height="31.6725" filterUnits="userSpaceOnUse" color-interpolation-filters="sRGB">
<feFlood flood-opacity="0" result="BackgroundImageFix"/>
<feBlend mode="normal" in="SourceGraphic" in2="BackgroundImageFix" result="shape"/>
<feGaussianBlur stdDeviation="1.4396" result="effect1_foregroundBlur_11643_58326"/>
</filter>
<filter id="filter2_ddi_11643_58326" x="3.35957" y="9.21632" width="37.6341" height="32.4625" filterUnits="userSpaceOnUse" color-interpolation-filters="sRGB">
<feFlood flood-opacity="0" result="BackgroundImageFix"/>
<feColorMatrix in="SourceAlpha" type="matrix" values="0 0 0 0 0 0 0 0 0 0 0 0 0 0 0 0 0 0 127 0" result="hardAlpha"/>
<feOffset dy="1.5032"/>
<feGaussianBlur stdDeviation="0.578154"/>
<feColorMatrix type="matrix" values="0 0 0 0 0 0 0 0 0 0.051 0 0 0 0 0.082 0 0 0 0.7 0"/>
<feBlend mode="multiply" in2="BackgroundImageFix" result="effect1_dropShadow_11643_58326"/>
<feColorMatrix in="SourceAlpha" type="matrix" values="0 0 0 0 0 0 0 0 0 0 0 0 0 0 0 0 0 0 127 0" result="hardAlpha"/>
<feOffset dy="2.87921"/>
<feGaussianBlur stdDeviation="1.87148"/>
<feColorMatrix type="matrix" values="0 0 0 0 0 0 0 0 0 0.4 0 0 0 0 1 0 0 0 1 0"/>
<feBlend mode="color-dodge" in2="effect1_dropShadow_11643_58326" result="effect2_dropShadow_11643_58326"/>
<feBlend mode="normal" in="SourceGraphic" in2="effect2_dropShadow_11643_58326" result="shape"/>
<feColorMatrix in="SourceAlpha" type="matrix" values="0 0 0 0 0 0 0 0 0 0 0 0 0 0 0 0 0 0 127 0" result="hardAlpha"/>
<feOffset dx="-0.15032" dy="0.30064"/>
<feGaussianBlur stdDeviation="0.07516"/>
<feComposite in2="hardAlpha" operator="arithmetic" k2="-1" k3="1"/>
<feColorMatrix type="matrix" values="0 0 0 0 1 0 0 0 0 1 0 0 0 0 1 0 0 0 0.5 0"/>
<feBlend mode="normal" in2="shape" result="effect3_innerShadow_11643_58326"/>
</filter>
<filter id="filter3_f_11643_58326" x="7.44257" y="10.4348" width="29.4684" height="24.2672" filterUnits="userSpaceOnUse" color-interpolation-filters="sRGB">
<feFlood flood-opacity="0" result="BackgroundImageFix"/>
<feBlend mode="normal" in="SourceGraphic" in2="BackgroundImageFix" result="shape"/>
<feGaussianBlur stdDeviation="0.115631" result="effect1_foregroundBlur_11643_58326"/>
</filter>
<filter id="filter4_f_11643_58326" x="7.97644" y="10.9806" width="28.4004" height="23.1755" filterUnits="userSpaceOnUse" color-interpolation-filters="sRGB">
<feFlood flood-opacity="0" result="BackgroundImageFix"/>
<feBlend mode="normal" in="SourceGraphic" in2="BackgroundImageFix" result="shape"/>
<feGaussianBlur stdDeviation="0.0770872" result="effect1_foregroundBlur_11643_58326"/>
</filter>
<linearGradient id="paint0_linear_11643_58326" x1="10.8391" y1="5.95595" x2="43.9707" y2="18.0252" gradientUnits="userSpaceOnUse">
<stop stop-color="#0D00FF"/>
<stop offset="1" stop-color="#C05AA6"/>
</linearGradient>
<clipPath id="clip0_11643_58326">
<rect width="35.2171" height="29.2556" fill="white" transform="matrix(0.93371 0.358029 -0.330189 0.943915 9.90625 0.886719)"/>
</clipPath>
</defs>
</svg>
