<svg width="39" height="38" viewBox="0 0 39 38" fill="none" xmlns="http://www.w3.org/2000/svg">
<g opacity="0.8" clip-path="url(#clip0_13204_73999)">
<g style="mix-blend-mode:hard-light" filter="url(#filter0_f_13204_73999)">
<ellipse cx="41.9363" cy="24.667" rx="41.9363" ry="24.667" transform="matrix(0.848984 0.528418 -0.503015 0.864278 9.63184 10.7832)" fill="#128DFF" fill-opacity="0.249"/>
</g>
<g style="mix-blend-mode:hard-light" filter="url(#filter1_f_13204_73999)">
<path d="M28.1396 20.6464C27.93 21.0065 27.8209 21.4044 27.8089 21.7995L25.817 22.3971L25.817 22.3971C25.3473 22.538 24.8918 22.4735 24.5174 22.2405C24.0816 21.9692 23.7769 21.4605 23.7398 20.8533L22.9995 20.8905L23.7398 20.8533L23.4412 15.9707C23.7303 15.779 23.9822 15.5161 24.1705 15.1926C24.7712 14.1606 24.5573 12.7411 23.4955 12.0802C22.4338 11.4194 21.1207 11.8885 20.5201 12.9205C20.3259 13.2541 20.2177 13.6203 20.1932 13.9866L15.8846 15.973L15.8846 15.9731C15.3516 16.2188 14.7769 16.1778 14.3414 15.9067C13.9731 15.6774 13.694 15.274 13.5977 14.7855L13.5977 14.7855L13.1831 12.6822C13.5103 12.4863 13.7947 12.2025 14.0017 11.8469C14.6023 10.8149 14.3884 9.39535 13.3267 8.7345C12.2649 8.07365 10.9518 8.54276 10.3512 9.57474C9.94616 10.2707 9.91177 11.1232 10.2482 11.8157L8.28655 18.0353L7.81772 19.1617L7.45523 19.7845C7.07733 20.4338 7.19354 21.3672 7.91287 21.8149L22.5355 30.9162C23.2548 31.3639 24.1068 31.0332 24.4847 30.3839L24.8522 29.7524L25.5957 28.7411L29.979 24.0583C30.7069 24.0225 31.3941 23.5989 31.7901 22.9185C32.3907 21.8866 32.1768 20.467 31.115 19.8062C30.0533 19.1453 28.7402 19.6144 28.1396 20.6464Z" stroke="#0094FF" stroke-opacity="0.6" stroke-width="1.5032"/>
</g>
<g style="mix-blend-mode:hard-light" filter="url(#filter2_f_13204_73999)">
<path d="M27.9432 20.5242C27.7437 20.867 27.6269 21.2419 27.5913 21.6198L25.7502 22.1721L25.7501 22.1721C25.3384 22.2957 24.9498 22.2373 24.6337 22.0406C24.2677 21.8128 24.0002 21.3775 23.9675 20.8419L23.9675 20.8419L23.677 16.0906C23.9484 15.8887 24.185 15.6274 24.3669 15.3148C25.0213 14.1904 24.7989 12.6192 23.6119 11.8804C22.4248 11.1415 20.9781 11.6739 20.3237 12.7983C20.1359 13.1209 20.0212 13.4721 19.9786 13.8274L15.7887 15.7591L15.7887 15.7591C15.3189 15.9758 14.824 15.9348 14.4577 15.7068C14.148 15.514 13.9055 15.1692 13.8214 14.7421L13.8214 14.7421L13.4378 12.7963C13.7395 12.5873 14.0011 12.3075 14.198 11.9691C14.8525 10.8446 14.63 9.27345 13.443 8.53463C12.256 7.79581 10.8093 8.32813 10.1549 9.45254C9.72946 10.1835 9.67492 11.0791 10.0031 11.8291L8.07249 17.9504L7.61362 19.0528L7.25889 19.6623C6.8272 20.4041 6.95194 21.4891 7.79655 22.0148L22.4192 31.1161C23.2638 31.6418 24.2493 31.2478 24.681 30.5061L25.0423 29.8852L25.7706 28.8947L30.0844 24.2861C30.8559 24.217 31.5702 23.7559 31.9864 23.0407C32.6408 21.9163 32.4184 20.3451 31.2314 19.6063C30.0443 18.8675 28.5977 19.3998 27.9432 20.5242Z" stroke="#0094FF" stroke-opacity="0.6" stroke-width="1.96572"/>
</g>
<g style="mix-blend-mode:hard-light" filter="url(#filter3_ddi_13204_73999)">
<path d="M28.1396 20.6464C27.93 21.0065 27.8209 21.4044 27.8089 21.7995L25.817 22.3971L25.817 22.3971C25.3473 22.538 24.8918 22.4735 24.5174 22.2405C24.0816 21.9692 23.7769 21.4605 23.7398 20.8533L22.9995 20.8905L23.7398 20.8533L23.4412 15.9707C23.7303 15.779 23.9822 15.5161 24.1705 15.1926C24.7712 14.1606 24.5573 12.7411 23.4955 12.0802C22.4338 11.4194 21.1207 11.8885 20.5201 12.9205C20.3259 13.2541 20.2177 13.6203 20.1932 13.9866L15.8846 15.973L15.8846 15.9731C15.3516 16.2188 14.7769 16.1778 14.3414 15.9067C13.9731 15.6774 13.694 15.274 13.5977 14.7855L13.5977 14.7855L13.1831 12.6822C13.5103 12.4863 13.7947 12.2025 14.0017 11.8469C14.6023 10.8149 14.3884 9.39535 13.3267 8.7345C12.2649 8.07365 10.9518 8.54276 10.3512 9.57474C9.94616 10.2707 9.91177 11.1232 10.2482 11.8157L8.28655 18.0353L7.81772 19.1617L7.45523 19.7845C7.07733 20.4338 7.19354 21.3672 7.91287 21.8149L22.5355 30.9162C23.2548 31.3639 24.1068 31.0332 24.4847 30.3839L24.8522 29.7524L25.5957 28.7411L29.979 24.0583C30.7069 24.0225 31.3941 23.5989 31.7901 22.9185C32.3907 21.8866 32.1768 20.467 31.115 19.8062C30.0533 19.1453 28.7402 19.6144 28.1396 20.6464Z" stroke="#00B3FF" stroke-opacity="0.1" stroke-width="1.5032"/>
</g>
<g filter="url(#filter4_f_13204_73999)">
<path d="M28.385 20.7992C28.1631 21.1804 28.0699 21.6076 28.0979 22.019L25.9005 22.6782L25.9005 22.6782C25.3584 22.8409 24.8192 22.7687 24.372 22.4903C23.849 22.1648 23.4976 21.5642 23.455 20.8676L22.9995 20.8905L23.455 20.8676L23.1457 15.8079C23.4566 15.6366 23.7294 15.376 23.9251 15.0398C24.4585 14.1234 24.2553 12.8935 23.3501 12.3301C22.4449 11.7667 21.2989 12.1568 20.7655 13.0732C20.5639 13.4196 20.4682 13.8041 20.4733 14.1802L16.0045 16.2405L16.0045 16.2405C15.3924 16.5227 14.7181 16.4815 14.196 16.1565C13.7545 15.8817 13.4295 15.405 13.3181 14.8397L13.3181 14.8397L12.8613 12.5221C13.2207 12.3541 13.5371 12.0707 13.7563 11.6941C14.2897 10.7777 14.0864 9.54773 13.1813 8.98434C12.2761 8.42096 11.13 8.81105 10.5966 9.7275C10.2173 10.3792 10.2107 11.1761 10.5572 11.7909C10.5555 11.7961 10.5538 11.8014 10.5521 11.8067L10.5521 11.8068L8.55413 18.1415L8.07284 19.2978L7.70065 19.9373C7.39 20.471 7.49554 21.2148 8.05828 21.5651L22.6809 30.6664C23.2437 31.0166 23.9286 30.7649 24.2392 30.2311L24.6145 29.5863L25.3772 28.549L29.8381 23.7832L29.8385 23.7828C29.8432 23.7778 29.8478 23.7728 29.8523 23.7677C30.5213 23.776 31.1744 23.402 31.5446 22.7658C32.078 21.8493 31.8748 20.6194 30.9696 20.056C30.0645 19.4926 28.9184 19.8827 28.385 20.7992Z" stroke="#82D9FF" stroke-opacity="0.5" stroke-width="0.925046"/>
</g>
<g filter="url(#filter5_f_13204_73999)">
<path d="M29.6725 23.6197L29.6727 23.6195C29.7 23.5902 29.7249 23.5598 29.7477 23.5286C30.3671 23.5784 30.9971 23.247 31.3483 22.6436C31.8279 21.8196 31.6332 20.7413 30.8533 20.2559C30.0734 19.7705 29.0609 20.0974 28.5813 20.9214C28.3495 21.3198 28.2762 21.7719 28.3474 22.1891L25.9673 22.9032L25.9673 22.9032C25.3673 23.0833 24.7612 23.0048 24.2557 22.6902C23.663 22.3213 23.2742 21.6473 23.2273 20.879L22.9085 15.6644C23.2361 15.5178 23.5276 15.2632 23.7288 14.9176C24.2084 14.0936 24.0137 13.0154 23.2338 12.5299C22.4539 12.0445 21.4414 12.3714 20.9618 13.1954C20.7546 13.5515 20.6737 13.9507 20.7096 14.3294L16.1004 16.4544L16.1004 16.4544C15.4251 16.7658 14.671 16.7244 14.0797 16.3564C13.5796 16.0451 13.218 15.5098 13.0945 14.8831L13.0945 14.8831L12.6001 12.3751C12.9845 12.2427 13.3309 11.9654 13.5599 11.5719C14.0395 10.7479 13.8448 9.66963 13.0649 9.18422C12.285 8.6988 11.2726 9.02569 10.793 9.8497C10.4328 10.4685 10.4531 11.2233 10.812 11.7702C10.7959 11.8058 10.7815 11.843 10.7693 11.8817L10.7693 11.8817L8.76819 18.2264L8.27694 19.4067L7.89699 20.0595C7.64013 20.5008 7.73714 21.0929 8.17461 21.3652L22.7972 30.4665C23.2347 30.7388 23.786 30.5502 24.0429 30.1089L24.4244 29.4534L25.2024 28.3953L29.6725 23.6197Z" stroke="white" stroke-opacity="0.4" stroke-width="0.462523"/>
</g>
<path d="M29.5608 23.3812C29.5278 23.4451 29.487 23.5057 29.4366 23.5596L24.9572 28.3451L24.164 29.4241L23.7763 30.0902C23.5732 30.4391 23.1555 30.5644 22.8433 30.3701L8.22063 21.2688C7.90843 21.0745 7.81995 20.6341 8.02301 20.2852L8.41072 19.619L8.91194 18.4149L10.9162 12.0602C10.9393 11.9869 10.9729 11.9195 11.0136 11.8582C10.631 11.3893 10.5739 10.6684 10.919 10.0754C11.3448 9.34384 12.2237 9.08016 12.8783 9.48761C13.5329 9.89505 13.7191 10.8216 13.2933 11.5532C13.0535 11.9652 12.6701 12.2287 12.2638 12.3076L12.8005 15.03C12.9361 15.7181 13.3343 16.3121 13.893 16.6598C14.5536 17.0709 15.3875 17.1124 16.1259 16.7718L20.8903 14.5753C20.815 14.2015 20.875 13.7869 21.0878 13.4211C21.5136 12.6896 22.3925 12.4259 23.0471 12.8333C23.7018 13.2408 23.8879 14.1673 23.4621 14.8989C23.2556 15.2537 22.9422 15.4973 22.5998 15.6088L22.6002 15.6131L22.9292 20.994C22.9805 21.8338 23.4066 22.5812 24.069 22.9936C24.6328 23.3445 25.3058 23.4291 25.9638 23.2316L28.5499 22.4558C28.4215 22.0443 28.4646 21.5642 28.7074 21.1471C29.1331 20.4155 30.012 20.1518 30.6667 20.5593C31.3213 20.9667 31.5074 21.8933 31.0817 22.6249C30.7458 23.202 30.1281 23.4862 29.5608 23.3812Z" fill="url(#paint0_linear_13204_73999)"/>
</g>
<defs>
<filter id="filter0_f_13204_73999" x="-13.5243" y="14.8741" width="92.703" height="78.7752" filterUnits="userSpaceOnUse" color-interpolation-filters="sRGB">
<feFlood flood-opacity="0" result="BackgroundImageFix"/>
<feBlend mode="normal" in="SourceGraphic" in2="BackgroundImageFix" result="shape"/>
<feGaussianBlur stdDeviation="4.31881" result="effect1_foregroundBlur_13204_73999"/>
</filter>
<filter id="filter1_f_13204_73999" x="-2.13371" y="-0.973554" width="43.6317" height="41.4979" filterUnits="userSpaceOnUse" color-interpolation-filters="sRGB">
<feFlood flood-opacity="0" result="BackgroundImageFix"/>
<feBlend mode="normal" in="SourceGraphic" in2="BackgroundImageFix" result="shape"/>
<feGaussianBlur stdDeviation="4.31881" result="effect1_foregroundBlur_13204_73999"/>
</filter>
<filter id="filter2_f_13204_73999" x="3.16962" y="4.31611" width="33.026" height="30.9186" filterUnits="userSpaceOnUse" color-interpolation-filters="sRGB">
<feFlood flood-opacity="0" result="BackgroundImageFix"/>
<feBlend mode="normal" in="SourceGraphic" in2="BackgroundImageFix" result="shape"/>
<feGaussianBlur stdDeviation="1.4396" result="effect1_foregroundBlur_13204_73999"/>
</filter>
<filter id="filter3_ddi_13204_73999" x="2.76094" y="6.8003" width="33.8424" height="31.7086" filterUnits="userSpaceOnUse" color-interpolation-filters="sRGB">
<feFlood flood-opacity="0" result="BackgroundImageFix"/>
<feColorMatrix in="SourceAlpha" type="matrix" values="0 0 0 0 0 0 0 0 0 0 0 0 0 0 0 0 0 0 127 0" result="hardAlpha"/>
<feOffset dy="1.5032"/>
<feGaussianBlur stdDeviation="0.578154"/>
<feColorMatrix type="matrix" values="0 0 0 0 0 0 0 0 0 0.051 0 0 0 0 0.082 0 0 0 0.7 0"/>
<feBlend mode="multiply" in2="BackgroundImageFix" result="effect1_dropShadow_13204_73999"/>
<feColorMatrix in="SourceAlpha" type="matrix" values="0 0 0 0 0 0 0 0 0 0 0 0 0 0 0 0 0 0 127 0" result="hardAlpha"/>
<feOffset dy="2.87921"/>
<feGaussianBlur stdDeviation="1.87148"/>
<feColorMatrix type="matrix" values="0 0 0 0 0 0 0 0 0 0.4 0 0 0 0 1 0 0 0 1 0"/>
<feBlend mode="color-dodge" in2="effect1_dropShadow_13204_73999" result="effect2_dropShadow_13204_73999"/>
<feBlend mode="normal" in="SourceGraphic" in2="effect2_dropShadow_13204_73999" result="shape"/>
<feColorMatrix in="SourceAlpha" type="matrix" values="0 0 0 0 0 0 0 0 0 0 0 0 0 0 0 0 0 0 127 0" result="hardAlpha"/>
<feOffset dx="-0.15032" dy="0.30064"/>
<feGaussianBlur stdDeviation="0.07516"/>
<feComposite in2="hardAlpha" operator="arithmetic" k2="-1" k3="1"/>
<feColorMatrix type="matrix" values="0 0 0 0 1 0 0 0 0 1 0 0 0 0 1 0 0 0 0.5 0"/>
<feBlend mode="normal" in2="shape" result="effect3_innerShadow_13204_73999"/>
</filter>
<filter id="filter4_f_13204_73999" x="6.84198" y="8.02069" width="25.6803" height="23.5094" filterUnits="userSpaceOnUse" color-interpolation-filters="sRGB">
<feFlood flood-opacity="0" result="BackgroundImageFix"/>
<feBlend mode="normal" in="SourceGraphic" in2="BackgroundImageFix" result="shape"/>
<feGaussianBlur stdDeviation="0.115631" result="effect1_foregroundBlur_13204_73999"/>
</filter>
<filter id="filter5_f_13204_73999" x="7.37512" y="8.56848" width="24.615" height="22.4138" filterUnits="userSpaceOnUse" color-interpolation-filters="sRGB">
<feFlood flood-opacity="0" result="BackgroundImageFix"/>
<feBlend mode="normal" in="SourceGraphic" in2="BackgroundImageFix" result="shape"/>
<feGaussianBlur stdDeviation="0.0770872" result="effect1_foregroundBlur_13204_73999"/>
</filter>
<linearGradient id="paint0_linear_13204_73999" x1="13.0506" y1="4.40337" x2="38.8965" y2="19.8933" gradientUnits="userSpaceOnUse">
<stop stop-color="#0D00FF"/>
<stop offset="1" stop-color="#C05AA6"/>
</linearGradient>
<clipPath id="clip0_13204_73999">
<rect width="30.0943" height="25" fill="white" transform="matrix(0.848984 0.528418 -0.503015 0.864278 13.0889 0)"/>
</clipPath>
</defs>
</svg>
