<svg width="24" height="20" viewBox="0 0 24 20" fill="none" xmlns="http://www.w3.org/2000/svg">
<path d="M23.0557 5.79208C23.0594 5.85811 23.0545 5.92531 23.0379 5.99206L21.5576 11.9136L21.4131 14.5765V18.9132C21.4131 19.2848 21.1118 19.5861 20.7402 19.5861H3.33461C2.96299 19.5861 2.66171 19.2848 2.66171 18.9132V14.5765L2.4873 11.9578L1.00692 6.01386C0.989877 5.94532 0.984942 5.87624 0.989249 5.8085C0.416568 5.62807 0 5.09218 0 4.46064C0 3.68142 0.633869 3.04755 1.41308 3.04755C2.1923 3.04755 2.82617 3.68142 2.82617 4.46064C2.82617 4.89946 2.62511 5.29207 2.31028 5.55145L4.16371 7.41887C4.63213 7.89089 5.28215 8.16148 5.94716 8.16148C6.73346 8.16148 7.48316 7.78807 7.95526 7.16246L11.0012 3.12651C10.7454 2.87081 10.5869 2.51749 10.5869 2.12793C10.5869 1.34871 11.2208 0.714844 12 0.714844C12.7792 0.714844 13.4131 1.34871 13.4131 2.12793C13.4131 2.50583 13.2631 2.84882 13.0206 3.10264L13.0232 3.10578L16.0471 7.15286C16.519 7.78448 17.2714 8.16157 18.0599 8.16157C18.731 8.16157 19.3621 7.90022 19.8366 7.4256L21.7017 5.56051C21.3803 5.30122 21.1738 4.90484 21.1738 4.46064C21.1738 3.68142 21.8077 3.04755 22.5869 3.04755C23.3661 3.04755 24 3.68142 24 4.46064C24 5.07531 23.6048 5.5981 23.0557 5.79208Z" fill="#0D00FF"/>
<path d="M16.7664 9.53026C16.3207 9.1568 15.6624 9.21764 15.2931 9.6614L10.6271 15.2539L8.64197 13.2649C8.23281 12.8547 7.57146 12.8547 7.16234 13.2649C6.75318 13.6751 6.75318 14.3381 7.16234 14.7482L9.95632 17.5492C10.152 17.7475 10.4188 17.8566 10.6962 17.8566C10.7108 17.8566 10.7265 17.8566 10.7412 17.8545C11.0362 17.8419 11.3094 17.7056 11.4977 17.48L16.8972 11.0073C17.2676 10.5625 17.2101 9.90162 16.7664 9.53026Z" fill="white"/>
</svg>