<svg width="24" height="24" viewBox="0 0 24 24" fill="none" xmlns="http://www.w3.org/2000/svg">
<path d="M12 23C18.0751 23 23 18.0751 23 12C23 5.92487 18.0751 1 12 1C5.92487 1 1 5.92487 1 12C1 18.0751 5.92487 23 12 23Z" stroke="url(#paint0_linear_3_6)"/>
<path d="M11.6794 12.2129C12.3828 11.5092 12.8618 10.6128 13.0559 9.637C13.2501 8.6612 13.1506 7.6498 12.7701 6.7305C13.855 6.944 14.8515 7.4764 15.6323 8.2594C17.8153 10.4424 17.8153 13.9822 15.6323 16.1652C13.4487 18.3487 9.90949 18.3482 7.72589 16.1652C6.94309 15.3845 6.41079 14.3882 6.19699 13.3035C7.11629 13.684 8.12769 13.7834 9.10349 13.5893C10.0793 13.3952 10.9757 12.9162 11.6794 12.2129Z" fill="url(#paint1_linear_3_6)"/>
<defs>
<linearGradient id="paint0_linear_3_6" x1="23.5" y1="12.1456" x2="0.5" y2="12.1456" gradientUnits="userSpaceOnUse">
<stop stopColor="#F0899E"/>
<stop offset="0.244792" stopColor="#9617D2"/>
<stop offset="0.510417" stopColor="#4E0FFF"/>
<stop offset="0.75" stopColor="#2C60FD"/>
<stop offset="1" stopColor="#30F0F6"/>
</linearGradient>
<linearGradient id="paint1_linear_3_6" x1="17.2695" y1="17.8026" x2="-9.24631" y2="7.1043" gradientUnits="userSpaceOnUse">
<stop stopColor="#07FBF9"/>
<stop offset="0.317708" stopColor="#4A85E8"/>
<stop offset="0.572917" stopColor="#A61C90"/>
</linearGradient>
</defs>
</svg>
