<svg width="84" height="84" viewBox="0 0 84 84" fill="none" xmlns="http://www.w3.org/2000/svg">
<g filter="url(#filter0_d_244_186)">
<path d="M42 43C48.0751 43 53 38.0751 53 32C53 25.9249 48.0751 21 42 21C35.9249 21 31 25.9249 31 32C31 38.0751 35.9249 43 42 43Z" stroke="url(#paint0_linear_244_186)"/>
</g>
<path d="M41.6797 32.2109C42.383 31.5072 42.8621 30.6109 43.0562 29.6351C43.2503 28.6593 43.1508 27.6478 42.7703 26.7285C43.8552 26.9421 44.8518 27.4744 45.6325 28.2575C47.8155 30.4405 47.8155 33.9802 45.6325 36.1632C43.449 38.3468 39.9098 38.3462 37.7262 36.1632C36.9434 35.3826 36.4111 34.3862 36.1973 33.3016C37.1166 33.682 38.128 33.7814 39.1038 33.5873C40.0796 33.3932 40.976 32.9142 41.6797 32.2109Z" fill="url(#paint1_linear_244_186)"/>
<defs>
<filter id="filter0_d_244_186" x="0.5" y="0.5" width="83" height="83" filterUnits="userSpaceOnUse" color-interpolation-filters="sRGB">
<feFlood flood-opacity="0" result="BackgroundImageFix"/>
<feColorMatrix in="SourceAlpha" type="matrix" values="0 0 0 0 0 0 0 0 0 0 0 0 0 0 0 0 0 0 127 0" result="hardAlpha"/>
<feOffset dy="10"/>
<feGaussianBlur stdDeviation="15"/>
<feColorMatrix type="matrix" values="0 0 0 0 0.220833 0 0 0 0 0.220833 0 0 0 0 0.220833 0 0 0 0.2 0"/>
<feBlend mode="normal" in2="BackgroundImageFix" result="effect1_dropShadow_244_186"/>
<feBlend mode="normal" in="SourceGraphic" in2="effect1_dropShadow_244_186" result="shape"/>
</filter>
<linearGradient id="paint0_linear_244_186" x1="53.5" y1="32.1456" x2="30.5" y2="32.1456" gradientUnits="userSpaceOnUse">
<stop stop-color="#F0899E"/>
<stop offset="0.244792" stop-color="#9617D2"/>
<stop offset="0.510417" stop-color="#4E0FFF"/>
<stop offset="0.75" stop-color="#2C60FD"/>
<stop offset="1" stop-color="#30F0F6"/>
</linearGradient>
<linearGradient id="paint1_linear_244_186" x1="47.2698" y1="37.8007" x2="20.7539" y2="27.1024" gradientUnits="userSpaceOnUse">
<stop stop-color="#07FBF9"/>
<stop offset="0.317708" stop-color="#4A85E8"/>
<stop offset="0.572917" stop-color="#A61C90"/>
</linearGradient>
</defs>
</svg>
