<svg width="24" height="24" viewBox="0 0 24 24" fill="none" xmlns="http://www.w3.org/2000/svg">
<path d="M12 23C18.0751 23 23 18.0751 23 12C23 5.92487 18.0751 1 12 1C5.92487 1 1 5.92487 1 12C1 18.0751 5.92487 23 12 23Z" stroke="url(#paint0_linear_244_150)"/>
<path d="M12.0002 15.2357C11.153 15.2357 10.3405 14.8991 9.74143 14.3C9.14233 13.701 8.80583 12.8885 8.80583 12.0412C8.80583 11.194 9.14233 10.3815 9.74143 9.78244C10.3405 9.18334 11.153 8.84684 12.0002 8.84684C12.8474 8.84684 13.6599 9.18334 14.259 9.78244C14.8581 10.3815 15.1946 11.194 15.1946 12.0412C15.1946 12.8885 14.8581 13.701 14.259 14.3C13.6599 14.8991 12.8474 15.2357 12.0002 15.2357ZM12.0002 5.65234C12.1696 5.65234 12.3321 5.71974 12.452 5.83954C12.5718 5.95934 12.6391 6.12184 12.6391 6.29124V7.56904C12.6391 7.73854 12.5718 7.90104 12.452 8.02084C12.3321 8.14064 12.1696 8.20794 12.0002 8.20794C11.8308 8.20794 11.6682 8.14064 11.5484 8.02084C11.4286 7.90104 11.3613 7.73854 11.3613 7.56904V6.29124C11.3613 6.12184 11.4286 5.95934 11.5484 5.83954C11.6682 5.71974 11.8308 5.65234 12.0002 5.65234ZM12.0002 15.8746C12.1696 15.8746 12.3321 15.9419 12.452 16.0617C12.5718 16.1815 12.6391 16.344 12.6391 16.5135V17.7912C12.6391 17.9607 12.5718 18.1232 12.452 18.243C12.3321 18.3628 12.1696 18.4301 12.0002 18.4301C11.8308 18.4301 11.6682 18.3628 11.5484 18.243C11.4286 18.1232 11.3613 17.9607 11.3613 17.7912V16.5135C11.3613 16.344 11.4286 16.1815 11.5484 16.0617C11.6682 15.9419 11.8308 15.8746 12.0002 15.8746ZM6.25023 11.4023H7.52803C7.69743 11.4023 7.85993 11.4697 7.97973 11.5895C8.09963 11.7093 8.16693 11.8718 8.16693 12.0412C8.16693 12.2107 8.09963 12.3732 7.97973 12.493C7.85993 12.6128 7.69743 12.6801 7.52803 12.6801H6.25023C6.08083 12.6801 5.91823 12.6128 5.79843 12.493C5.67863 12.3732 5.61133 12.2107 5.61133 12.0412C5.61133 11.8718 5.67863 11.7093 5.79843 11.5895C5.91823 11.4697 6.08083 11.4023 6.25023 11.4023ZM16.4724 11.4023H17.7502C17.9196 11.4023 18.0821 11.4697 18.202 11.5895C18.3218 11.7093 18.3891 11.8718 18.3891 12.0412C18.3891 12.2107 18.3218 12.3732 18.202 12.493C18.0821 12.6128 17.9196 12.6801 17.7502 12.6801H16.4724C16.303 12.6801 16.1405 12.6128 16.0207 12.493C15.9008 12.3732 15.8335 12.2107 15.8335 12.0412C15.8335 11.8718 15.9008 11.7093 16.0207 11.5895C16.1405 11.4697 16.303 11.4023 16.4724 11.4023ZM16.5178 7.52364C16.6376 7.64354 16.7048 7.80594 16.7048 7.97534C16.7048 8.14484 16.6376 8.30724 16.5178 8.42704L15.6144 9.33044C15.5555 9.39144 15.485 9.44014 15.407 9.47364C15.3291 9.50714 15.2452 9.52474 15.1604 9.52544C15.0756 9.52624 14.9914 9.51004 14.9129 9.47794C14.8344 9.44584 14.7631 9.39834 14.7031 9.33834C14.6431 9.27844 14.5957 9.20704 14.5635 9.12854C14.5314 9.05004 14.5152 8.96594 14.516 8.88104C14.5167 8.79624 14.5343 8.71244 14.5678 8.63444C14.6013 8.55654 14.65 8.48604 14.711 8.42704L15.6144 7.52364C15.7342 7.40394 15.8967 7.33664 16.0661 7.33664C16.2355 7.33664 16.398 7.40394 16.5178 7.52364ZM9.28943 14.752C9.40923 14.8718 9.47643 15.0343 9.47643 15.2037C9.47643 15.3731 9.40923 15.5356 9.28943 15.6554L8.38603 16.5588C8.32713 16.6198 8.25663 16.6685 8.17863 16.702C8.10073 16.7355 8.01683 16.7531 7.93203 16.7538C7.84723 16.7546 7.76303 16.7384 7.68453 16.7063C7.60603 16.6742 7.53473 16.6267 7.47473 16.5667C7.41473 16.5067 7.36733 16.4354 7.33513 16.3569C7.30303 16.2784 7.28693 16.1943 7.28763 16.1094C7.28833 16.0246 7.30603 15.9408 7.33943 15.8628C7.37293 15.7849 7.42163 15.7144 7.48263 15.6554L8.38603 14.752C8.50583 14.6323 8.66833 14.565 8.83773 14.565C9.00713 14.565 9.16963 14.6323 9.28943 14.752ZM8.38603 7.52364L9.28943 8.42704C9.40583 8.54754 9.47023 8.70894 9.46873 8.87644C9.46733 9.04394 9.40013 9.20424 9.28163 9.32264C9.16323 9.44114 9.00293 9.50834 8.83543 9.50974C8.66793 9.51124 8.50653 9.44684 8.38603 9.33044L7.48333 8.42704C7.36693 8.30654 7.30253 8.14524 7.30393 7.97764C7.30543 7.81014 7.37263 7.64994 7.49103 7.53144C7.60953 7.41304 7.76973 7.34584 7.93723 7.34434C8.10483 7.34294 8.26553 7.40734 8.38603 7.52364ZM15.6144 14.752L16.5178 15.6554C16.6342 15.7759 16.6986 15.9373 16.6971 16.1048C16.6956 16.2723 16.6285 16.4326 16.51 16.551C16.3915 16.6695 16.2313 16.7367 16.0638 16.7381C15.8963 16.7396 15.7349 16.6752 15.6144 16.5588L14.711 15.6554C14.65 15.5965 14.6013 15.526 14.5678 15.448C14.5343 15.3701 14.5167 15.2863 14.516 15.2014C14.5152 15.1166 14.5314 15.0325 14.5635 14.954C14.5957 14.8754 14.6431 14.8041 14.7031 14.7441C14.7631 14.6841 14.8344 14.6367 14.9129 14.6046C14.9914 14.5724 15.0756 14.5563 15.1604 14.557C15.2452 14.5578 15.3291 14.5754 15.407 14.6089C15.485 14.6423 15.5555 14.691 15.6144 14.752Z" fill="url(#paint1_linear_244_150)"/>
<defs>
<linearGradient id="paint0_linear_244_150" x1="23.5" y1="12.1456" x2="0.5" y2="12.1456" gradientUnits="userSpaceOnUse">
<stop stop-color="#F0899E"/>
<stop offset="0.244792" stop-color="#9617D2"/>
<stop offset="0.510417" stop-color="#4E0FFF"/>
<stop offset="0.75" stop-color="#2C60FD"/>
<stop offset="1" stop-color="#30F0F6"/>
</linearGradient>
<linearGradient id="paint1_linear_244_150" x1="18.3891" y1="12.1221" x2="5.61133" y2="12.1221" gradientUnits="userSpaceOnUse">
<stop stop-color="#F0899E"/>
<stop offset="0.244792" stop-color="#9617D2"/>
<stop offset="0.510417" stop-color="#4E0FFF"/>
<stop offset="0.75" stop-color="#2C60FD"/>
<stop offset="1" stop-color="#30F0F6"/>
</linearGradient>
</defs>
</svg>
