<svg width="25" height="17" viewBox="0 0 25 17" fill="none" xmlns="http://www.w3.org/2000/svg">
<g clip-path="url(#clip0_13706_67370)">
<path d="M23.8844 10.6761L23.8062 13.0792L11.5869 9.21055L11.6643 6.80664L23.8844 10.6761Z" fill="#151213"/>
<path d="M11.6644 6.80664L11.587 9.21055L0.119141 12.5957L0.197357 10.1926L11.6644 6.80664Z" fill="#1E1A1B"/>
<path d="M12.4166 14.0609L12.3392 16.4648L0.119141 12.5945L0.197357 10.1914L12.4166 14.0609Z" fill="#989898"/>
<path d="M11.6643 6.80664L23.8844 10.6761L12.4165 14.0621L0.197266 10.1926L11.6643 6.80664Z" fill="url(#paint0_linear_13706_67370)"/>
<path d="M23.8851 10.6758L23.8069 13.0788L12.3398 16.4657L12.4172 14.0618L23.8851 10.6758Z" fill="#DADADA"/>
<path d="M12.4209 14.0976L12.3427 16.5007L0.00195312 12.5934L0.0801697 10.1895L12.4209 14.0976Z" fill="url(#paint1_linear_13706_67370)" fill-opacity="0.85"/>
<path d="M24.002 10.6777L23.9238 13.0808L12.3428 16.5004L12.421 14.0974L24.002 10.6777Z" fill="url(#paint2_linear_13706_67370)" fill-opacity="0.85"/>
<path d="M18.5852 6.11833L17.6699 5.92578H17.6749L18.5902 6.11749H18.5844" fill="#151313"/>
<path d="M13.5125 6.15448L12.7295 5.95605L17.6696 5.92578L18.5849 6.11833L13.5125 6.15448Z" fill="#DCDCDC"/>
<path d="M13.454 6.17839L12.6719 5.97911L12.6785 5.97491H12.6852H12.6927L12.7002 5.9707L13.4832 6.16914L13.4748 6.17334H13.4673H13.4607H13.454" fill="#141112"/>
<path d="M13.4832 6.16132L12.7002 5.96289H12.7068H12.7135H12.721H12.7293L13.5123 6.16132H13.504H13.4965H13.489H13.4832Z" fill="#141213"/>
<path d="M9.58415 9.37991L8.91016 9.0789L12.6712 5.98047L13.4525 6.17974L9.58415 9.37991Z" fill="#DCDCDC"/>
<path d="M9.52976 9.38975L8.85742 9.08789H8.86242H8.86741H8.88072L9.55388 9.38975H9.53475H9.52976Z" fill="#151313"/>
<path d="M9.55402 9.39365L8.88086 9.0918H8.89501L9.569 9.39281H9.55818" fill="#141213"/>
<path d="M9.56755 9.3889L8.89355 9.08789L9.56755 9.3889Z" fill="#141112"/>
<path d="M9.58024 9.38305L8.90625 9.08203L9.58024 9.38305Z" fill="#131111"/>
<path d="M11.5511 0.527747L10.8164 0.5L16.032 0.668164L16.9098 0.700116L11.5511 0.527747Z" fill="#141112"/>
<path d="M8.35136 10.9288L7.71314 10.5782H7.70898V10.5723L8.34719 10.922V10.9279V10.933H8.35136" fill="#121011"/>
<path d="M6.82957 5.56007L6.23047 5.37424L10.8161 0.5L11.5509 0.527747L6.82957 5.56007Z" fill="#C4C4C4"/>
<path d="M8.33732 10.911L7.69911 10.5612L6.23047 5.375L6.82957 5.56082L8.33732 10.911Z" fill="#C4C4C4"/>
<path d="M11.5518 0.527344L16.9096 0.699713C16.9157 0.699708 16.9215 0.701784 16.9263 0.705599C16.931 0.708845 16.9345 0.713575 16.9363 0.719051C16.9383 0.724758 16.9383 0.731002 16.9363 0.736709C16.9354 0.74291 16.9328 0.748734 16.9288 0.753525L9.51317 9.29964C9.50505 9.30849 9.49983 9.31964 9.4982 9.33159C9.49687 9.34196 9.4986 9.35249 9.50318 9.36186C9.50721 9.37095 9.51388 9.37858 9.52232 9.38372C9.5303 9.38962 9.5399 9.39285 9.54979 9.39297H9.55894H9.56726L9.57641 9.38793L9.58473 9.38204L13.4539 6.18187L13.4656 6.1743L13.4781 6.16758L13.4939 6.16169H13.5122L18.588 6.12554C18.594 6.12531 18.6 6.12741 18.6046 6.13142C18.6088 6.13498 18.612 6.13963 18.6137 6.14488C18.6154 6.15065 18.6154 6.15676 18.6137 6.16253C18.6125 6.1688 18.6097 6.17461 18.6054 6.17935L14.172 10.8266L8.36904 10.9384H8.35989L8.35157 10.9342C8.34895 10.9324 8.3467 10.9301 8.34492 10.9275C8.34248 10.9249 8.34075 10.9217 8.33992 10.9182L6.83301 5.56807L11.5518 0.527344Z" fill="white"/>
</g>
<defs>
<linearGradient id="paint0_linear_13706_67370" x1="0.789444" y1="8.43911" x2="23.7203" y2="9.04191" gradientUnits="userSpaceOnUse">
<stop stop-color="#C4C4C4"/>
<stop offset="1" stop-color="white"/>
</linearGradient>
<linearGradient id="paint1_linear_13706_67370" x1="-14.6827" y1="10.5703" x2="-5.46209" y2="0.0856026" gradientUnits="userSpaceOnUse">
<stop stop-color="#DCDCDC"/>
<stop offset="0.338542" stop-color="white"/>
<stop offset="1" stop-color="#CCCDD3"/>
</linearGradient>
<linearGradient id="paint2_linear_13706_67370" x1="12.9905" y1="16.3842" x2="13.5761" y2="11.2765" gradientUnits="userSpaceOnUse">
<stop stop-color="#D2D2D6"/>
<stop offset="0.338542" stop-color="white"/>
<stop offset="1" stop-color="#C9CBD1"/>
</linearGradient>
<clipPath id="clip0_13706_67370">
<rect width="24" height="16" fill="white" transform="translate(0.00195312 0.5)"/>
</clipPath>
</defs>
</svg>
