<svg
  width="20px"
  height="20px"
  viewBox="0 0 0.4 0.4"
  version="1.1"
  xmlns="http://www.w3.org/2000/svg"
  xmlns:xlink="http://www.w3.org/1999/xlink"
><path
    fill="#444"
    d="M0.2 0C0.09 0 0 0.09 0 0.2s0.09 0.2 0.2 0.2S0.4 0.31 0.4 0.2 0.31 0 0.2 0zm0.13 0.133c0.01 0 0.018 0.007 0.027 0.007C0.35 0.15 0.318 0.15 0.307 0.138 0.315 0.135 0.32 0.133 0.33 0.133zM0.025 0.2c0 -0.01 0 -0.02 0.003 -0.033 0.003 0 0.005 0.003 0.007 0.003 0 0 0.003 0.003 0.003 0.005C0.037 0.182 0.045 0.188 0.05 0.188c0.02 0.003 0.027 0.02 0.045 0.025 0.005 0.003 0.003 0.007 0 0.013C0.08 0.245 0.092 0.26 0.105 0.273c0.013 0.01 0.013 0.02 0.015 0.035 0 0.018 0.003 0.037 0.01 0.055A0.179 0.179 0 0 1 0.025 0.2zM0.2 0.375A0.177 0.177 0 0 1 0.147 0.367a0.016 0.016 0 0 1 0 -0.015 0.398 0.398 0 0 1 0.033 -0.055C0.185 0.293 0.19 0.288 0.19 0.28 0.19 0.275 0.193 0.268 0.195 0.263 0.203 0.25 0.2 0.242 0.19 0.24 0.17 0.235 0.16 0.217 0.145 0.21S0.115 0.198 0.103 0.205C0.098 0.208 0.09 0.21 0.09 0.203 0.09 0.193 0.077 0.185 0.08 0.175 0.077 0.175 0.075 0.175 0.073 0.177S0.068 0.182 0.063 0.18C0.057 0.175 0.06 0.17 0.06 0.165A0.019 0.019 0 0 1 0.07 0.155C0.08 0.152 0.09 0.152 0.095 0.165a0.086 0.086 0 0 1 0.037 -0.045S0.152 0.103 0.155 0.103s0.005 0.005 0.01 0.007c0.005 0 0.007 0 0.007 -0.005C0.175 0.092 0.168 0.077 0.158 0.075c0 -0.003 0.003 -0.003 0.003 -0.003C0.168 0.07 0.177 0.065 0.175 0.057 0.175 0.048 0.165 0.043 0.155 0.043c-0.005 0 -0.01 0 -0.015 0.003a0.083 0.083 0 0 1 -0.037 0.01A0.167 0.167 0 0 1 0.2 0.025h0.02a0.151 0.151 0 0 0 -0.04 0.013c0.015 0.003 0.018 0.01 0.013 0.022 -0.003 0.005 0 0.01 0.005 0.013S0.208 0.075 0.21 0.07C0.215 0.063 0.225 0.06 0.232 0.057a0.043 0.043 0 0 0 0.025 -0.018C0.258 0.037 0.26 0.037 0.263 0.035a0.203 0.203 0 0 1 0.045 0.025C0.305 0.06 0.305 0.063 0.302 0.063 0.297 0.068 0.29 0.07 0.297 0.08 0.3 0.085 0.297 0.088 0.295 0.09 0.29 0.092 0.288 0.09 0.285 0.088S0.283 0.08 0.275 0.08C0.273 0.085 0.265 0.088 0.265 0.095c0.013 0 0.01 0.01 0.013 0.018C0.263 0.115 0.258 0.122 0.265 0.135 0.268 0.14 0.263 0.143 0.26 0.145 0.25 0.16 0.24 0.17 0.24 0.188s0.013 0.035 0.033 0.033C0.295 0.217 0.295 0.217 0.302 0.237c0 0.003 0.003 0.005 0.003 0.007C0.307 0.25 0.31 0.255 0.307 0.26 0.3 0.28 0.31 0.295 0.318 0.31A0.034 0.034 0 0 0 0.325 0.32 0.166 0.166 0 0 1 0.2 0.375z"
  /></svg>
