<svg width="18" height="18" viewBox="0 0 18 18" fill="none" xmlns="http://www.w3.org/2000/svg">
<path d="M9.00008 13.166C9.23619 13.166 9.43425 13.086 9.59425 12.926C9.75369 12.7666 9.83341 12.5688 9.83341 12.3327V8.97852C9.83341 8.7424 9.75369 8.54796 9.59425 8.39518C9.43425 8.2424 9.23619 8.16602 9.00008 8.16602C8.76397 8.16602 8.56619 8.24574 8.40675 8.40518C8.24675 8.56518 8.16675 8.76324 8.16675 8.99935V12.3535C8.16675 12.5896 8.24675 12.7841 8.40675 12.9368C8.56619 13.0896 8.76397 13.166 9.00008 13.166ZM9.00008 6.49935C9.23619 6.49935 9.43425 6.41935 9.59425 6.25935C9.75369 6.0999 9.83341 5.90213 9.83341 5.66602C9.83341 5.4299 9.75369 5.23185 9.59425 5.07185C9.43425 4.9124 9.23619 4.83268 9.00008 4.83268C8.76397 4.83268 8.56619 4.9124 8.40675 5.07185C8.24675 5.23185 8.16675 5.4299 8.16675 5.66602C8.16675 5.90213 8.24675 6.0999 8.40675 6.25935C8.56619 6.41935 8.76397 6.49935 9.00008 6.49935ZM9.00008 17.3327C7.8473 17.3327 6.76397 17.1138 5.75008 16.676C4.73619 16.2388 3.85425 15.6452 3.10425 14.8952C2.35425 14.1452 1.76064 13.2632 1.32341 12.2493C0.885637 11.2355 0.666748 10.1521 0.666748 8.99935C0.666748 7.84657 0.885637 6.76324 1.32341 5.74935C1.76064 4.73546 2.35425 3.85352 3.10425 3.10352C3.85425 2.35352 4.73619 1.75963 5.75008 1.32185C6.76397 0.884627 7.8473 0.666016 9.00008 0.666016C10.1529 0.666016 11.2362 0.884627 12.2501 1.32185C13.264 1.75963 14.1459 2.35352 14.8959 3.10352C15.6459 3.85352 16.2395 4.73546 16.6767 5.74935C17.1145 6.76324 17.3334 7.84657 17.3334 8.99935C17.3334 10.1521 17.1145 11.2355 16.6767 12.2493C16.2395 13.2632 15.6459 14.1452 14.8959 14.8952C14.1459 15.6452 13.264 16.2388 12.2501 16.676C11.2362 17.1138 10.1529 17.3327 9.00008 17.3327Z" fill="#3B5162"/>
</svg>
