<svg width="42" height="42" viewBox="0 0 42 42" fill="none" xmlns="http://www.w3.org/2000/svg">
<path d="M9.88752 17.544L13.3 18.9877C13.7084 18.1711 14.1313 17.3836 14.5688 16.6252C15.0063 15.8669 15.4875 15.1086 16.0125 14.3502L13.5625 13.869L9.88752 17.544ZM16.1 21.1752L21.0875 26.119C22.3125 25.6523 23.625 24.9377 25.025 23.9752C26.425 23.0127 27.7375 21.919 28.9625 20.694C31.0042 18.6523 32.6014 16.3849 33.754 13.8917C34.9055 11.3974 35.4084 9.10025 35.2625 7.00025C33.1625 6.85441 30.8584 7.35725 28.35 8.50875C25.8417 9.66141 23.5667 11.2586 21.525 13.3002C20.3 14.5252 19.2063 15.8377 18.2438 17.2377C17.2813 18.6377 16.5667 19.9502 16.1 21.1752ZM23.8875 18.3315C23.2167 17.6607 22.8813 16.8364 22.8813 15.8587C22.8813 14.8822 23.2167 14.0586 23.8875 13.3877C24.5584 12.7169 25.3896 12.3815 26.3813 12.3815C27.3729 12.3815 28.2042 12.7169 28.875 13.3877C29.5459 14.0586 29.8813 14.8822 29.8813 15.8587C29.8813 16.8364 29.5459 17.6607 28.875 18.3315C28.2042 19.0023 27.3729 19.3377 26.3813 19.3377C25.3896 19.3377 24.5584 19.0023 23.8875 18.3315ZM24.7188 32.3752L28.3938 28.7002L27.9125 26.2502C27.1542 26.7752 26.3959 27.2489 25.6375 27.6712C24.8792 28.0947 24.0917 28.5107 23.275 28.919L24.7188 32.3752ZM38.4125 3.8065C38.9667 7.33566 38.6243 10.7697 37.3853 14.1087C36.1451 17.4489 34.0084 20.6357 30.975 23.669L31.85 28.0002C31.9667 28.5836 31.9375 29.1523 31.7625 29.7065C31.5875 30.2607 31.2959 30.7419 30.8875 31.1502L23.5375 38.5002L19.8625 29.8815L12.3813 22.4002L3.76252 18.7252L11.0688 11.3752C11.4771 10.9669 11.9659 10.6752 12.5353 10.5002C13.1034 10.3252 13.6792 10.2961 14.2625 10.4127L18.5938 11.2877C21.6271 8.25441 24.8063 6.11066 28.1313 4.8565C31.4563 3.60233 34.8834 3.25233 38.4125 3.8065ZM6.86877 27.9565C7.88961 26.9357 9.13619 26.4177 10.6085 26.4025C12.082 26.3885 13.3292 26.8919 14.35 27.9127C15.3709 28.9336 15.8737 30.1802 15.8585 31.6525C15.8445 33.126 15.3271 34.3732 14.3063 35.394C13.5771 36.1232 12.3597 36.7502 10.654 37.2752C8.94719 37.8002 6.59169 38.2669 3.58752 38.6752C3.99586 35.6711 4.46252 33.3156 4.98752 31.6087C5.51252 29.9031 6.13961 28.6857 6.86877 27.9565ZM9.36252 30.4065C9.07086 30.6982 8.77919 31.2307 8.48752 32.0042C8.19586 32.7766 7.99169 33.5565 7.87502 34.344C8.66252 34.2273 9.44302 34.0307 10.2165 33.7542C10.9889 33.4766 11.5209 33.1919 11.8125 32.9002C12.1625 32.5502 12.3521 32.1273 12.3813 31.6315C12.4104 31.1357 12.25 30.7127 11.9 30.3627C11.55 30.0127 11.1271 29.8447 10.6313 29.8587C10.1354 29.8739 9.71252 30.0565 9.36252 30.4065Z" fill="url(#paint0_linear_10469_47537)"/>
<defs>
<linearGradient id="paint0_linear_10469_47537" x1="38.6694" y1="21.3358" x2="3.58752" y2="21.3358" gradientUnits="userSpaceOnUse">
<stop stopColor="#F0899E"/>
<stop offset="0.244792" stopColor="#9617D2"/>
<stop offset="0.510417" stopColor="#4E0FFF"/>
<stop offset="0.75" stopColor="#2C60FD"/>
<stop offset="1" stopColor="#30F0F6"/>
</linearGradient>
</defs>
</svg>
