<svg width="162" height="117" viewBox="0 0 162 117" fill="none" xmlns="http://www.w3.org/2000/svg">
<path d="M161.648 11L154.902 27.855L154.284 28.229L146.163 33.1419L122.826 47.2295L119 35.506L161.648 11ZM123.642 49.7232L127.608 61.8677L145.65 50.9813L153.317 31.8141L146.163 36.144L129.924 45.9341L123.642 49.7232ZM128.426 64.3646L133.756 80.6916L144.07 54.9291L129.924 63.4643L128.426 64.3646Z" fill="url(#paint0_linear_12461_57629)"/>
<path d="M42.6482 35.4979L38.8219 47.2214L15.485 33.1338L7.3628 28.2209L6.74585 27.8469L0 11L42.6482 35.4979ZM31.7263 45.9357L15.485 36.1407L8.3295 31.8108L15.9983 50.9781L34.0386 61.8644L38.0042 49.7199L31.7263 45.9357ZM31.7263 63.4643L17.5771 54.9291L27.8903 80.6933L33.2209 64.371L31.7263 63.4643Z" fill="url(#paint1_linear_12461_57629)"/>
<path d="M80.2459 102.894V117.001L80.0355 116.877L57.272 103.737V89.6309L80.0355 102.771L80.2459 102.894Z" fill="url(#paint2_linear_12461_57629)"/>
<path d="M103.22 89.6309V103.737L80.2456 117.001V102.894L103.22 89.6309Z" fill="url(#paint3_linear_12461_57629)"/>
<path d="M57.2717 96.6828V100.207L28 83.3109L31.0821 81.5645L57.2717 96.6828Z" fill="url(#paint4_linear_12461_57629)" fill-opacity="0.85"/>
<path d="M132.491 83.3109L103.219 100.207V96.6828L129.409 81.5645L132.491 83.3109Z" fill="url(#paint5_linear_12461_57629)" fill-opacity="0.85"/>
<path d="M37.2462 28.4153V39.5667L34.1641 37.7084V26.6055L37.2462 28.4153Z" fill="url(#paint6_linear_12461_57629)" fill-opacity="0.85"/>
<path d="M126.327 26.627V37.5796L123.245 39.4379V28.4452L126.327 26.627Z" fill="url(#paint7_linear_12461_57629)" fill-opacity="0.85"/>
<path d="M80.2454 7.18164V10.7713L43.412 32.0406L40.3282 30.2273L80.2454 7.18164Z" fill="url(#paint8_linear_12461_57629)"/>
<path d="M120.161 30.2273V30.2624L117.079 32.0806V32.0406L80.2456 10.7713V7.18164L120.161 30.2273Z" fill="url(#paint9_linear_12461_57629)"/>
<path d="M126.327 26.6053V26.627L123.245 28.4452V28.4152L80.2456 3.59134V0L126.327 26.6053Z" fill="url(#paint10_linear_12461_57629)" fill-opacity="0.85"/>
<path d="M80.2455 0V3.59134L37.2462 28.4152L34.1641 26.6053L80.2455 0Z" fill="url(#paint11_linear_12461_57629)" fill-opacity="0.85"/>
<path d="M132.491 40.2461V83.3105L129.409 81.5641L126.327 79.8176L123.245 78.0662L120.161 76.3198V47.6842L132.491 40.2461Z" fill="url(#paint12_linear_12461_57629)"/>
<path d="M40.3284 47.812V76.319L37.2463 78.0654L34.1642 79.8169L31.0821 81.5633L28 83.3097V40.3672L31.0821 42.2271L34.1642 44.0921L40.3284 47.812Z" fill="url(#paint13_linear_12461_57629)"/>
<path d="M40.3287 30.2281V41.4262L37.2466 39.5663V28.4199L40.3287 30.2281Z" fill="#51FF77" fill-opacity="0.68"/>
<path d="M40.3287 30.2281V41.4262L37.2466 39.5663V28.4199L40.3287 30.2281Z" fill="url(#paint14_linear_12461_57629)"/>
<path d="M40.3287 30.2281V41.4262L37.2466 39.5663V28.4199L40.3287 30.2281Z" fill="white" fill-opacity="0.4"/>
<path d="M123.245 28.4453V39.4381L120.161 41.298V30.2635L123.245 28.4453Z" fill="#51FF77" fill-opacity="0.68"/>
<path d="M123.245 28.4453V39.4381L120.161 41.298V30.2635L123.245 28.4453Z" fill="url(#paint15_linear_12461_57629)"/>
<path d="M123.245 28.4453V39.4381L120.161 41.298V30.2635L123.245 28.4453Z" fill="white" fill-opacity="0.4"/>
<path d="M43.4119 49.6729V74.5735L40.3298 76.3199V47.8163L43.4119 49.6729ZM40.3298 30.2285V41.4283L43.4119 43.2866V32.0417L40.3298 30.2285Z" fill="url(#paint16_linear_12461_57629)"/>
<path d="M43.4122 43.2875V49.6738L40.3284 47.8138L34.1642 44.0939L31.0821 42.2289L28 40.369V33.9844L31.0821 35.8443L34.1642 37.7093L43.4122 43.2875Z" fill="url(#paint17_linear_12461_57629)"/>
<path d="M132.491 33.8555V40.2468L120.161 47.6849L117.079 49.5448V43.1586L126.327 37.5804L129.409 35.7154L132.491 33.8555Z" fill="url(#paint18_linear_12461_57629)"/>
<path d="M129.409 81.5646L103.219 96.6829V86.1009L120.161 76.3203L123.245 78.0667L126.327 79.8181L129.409 81.5646Z" fill="url(#paint19_linear_12461_57629)"/>
<path d="M57.272 86.1009V96.6829L31.0824 81.5646L34.1645 79.8181L37.2466 78.0667L40.3287 76.3203L57.272 86.1009Z" fill="url(#paint20_linear_12461_57629)"/>
<path d="M120.161 47.6833V76.3189L117.079 74.5725V49.5433L120.161 47.6833ZM117.079 32.0824V43.157L120.161 41.3037V30.2676L117.079 32.0824Z" fill="url(#paint21_linear_12461_57629)"/>
<path d="M120.161 76.3204L103.22 86.101L80.2456 99.3644V95.8415L103.22 82.5764L117.079 74.5723L120.161 76.3204Z" fill="#51FF77" fill-opacity="0.68"/>
<path d="M120.161 76.3204L103.22 86.101L80.2456 99.3644V95.8415L103.22 82.5764L117.079 74.5723L120.161 76.3204Z" fill="url(#paint22_linear_12461_57629)"/>
<path d="M120.161 76.3204L103.22 86.101L80.2456 99.3644V95.8415L103.22 82.5764L117.079 74.5723L120.161 76.3204Z" fill="white" fill-opacity="0.4"/>
<path d="M103.22 86.1016V89.6311L80.2456 102.895V99.365L103.22 86.1016Z" fill="url(#paint23_linear_12461_57629)" fill-opacity="0.85"/>
<path d="M80.2459 99.365V102.895L80.0355 102.771L57.272 89.6311V86.1016L80.0355 99.2431L80.2459 99.365Z" fill="url(#paint24_linear_12461_57629)" fill-opacity="0.85"/>
<path d="M117.079 32.0407V74.5708L103.22 82.575L80.2456 95.8401L57.2717 82.575L43.4122 74.5708V32.0407L80.2456 10.7715L117.079 32.0407Z" fill="url(#paint25_linear_12461_57629)"/>
<path d="M80.2454 95.8415V99.3644L80.035 99.2425L57.2715 86.101L40.3282 76.3204L43.412 74.5723L57.2715 82.5764L80.2454 95.8415Z" fill="#51FF77" fill-opacity="0.68"/>
<path d="M80.2454 95.8415V99.3644L80.035 99.2425L57.2715 86.101L40.3282 76.3204L43.412 74.5723L57.2715 82.5764L80.2454 95.8415Z" fill="url(#paint26_linear_12461_57629)"/>
<path d="M80.2454 95.8415V99.3644L80.035 99.2425L57.2715 86.101L40.3282 76.3204L43.412 74.5723L57.2715 82.5764L80.2454 95.8415Z" fill="white" fill-opacity="0.4"/>
<path d="M123.245 28.4156V28.4457L120.161 30.2639V30.2288L80.2456 7.18314V3.5918L123.245 28.4156Z" fill="#51FF77" fill-opacity="0.68"/>
<path d="M123.245 28.4156V28.4457L120.161 30.2639V30.2288L80.2456 7.18314V3.5918L123.245 28.4156Z" fill="url(#paint27_linear_12461_57629)"/>
<path d="M123.245 28.4156V28.4457L120.161 30.2639V30.2288L80.2456 7.18314V3.5918L123.245 28.4156Z" fill="white" fill-opacity="0.4"/>
<path d="M80.2459 3.5918V7.18314L40.3287 30.2288L37.2466 28.4207V28.4156L80.2459 3.5918Z" fill="#51FF77" fill-opacity="0.68"/>
<path d="M80.2459 3.5918V7.18314L40.3287 30.2288L37.2466 28.4207V28.4156L80.2459 3.5918Z" fill="url(#paint28_linear_12461_57629)"/>
<path d="M80.2459 3.5918V7.18314L40.3287 30.2288L37.2466 28.4207V28.4156L80.2459 3.5918Z" fill="white" fill-opacity="0.4"/>
<path opacity="0.9" d="M81.3437 30.2832L57.284 54.343C57.1271 54.4998 57.1271 54.7541 57.284 54.9109L81.3437 78.9707C81.5006 79.1275 81.7548 79.1275 81.9117 78.9707L105.971 54.9109C106.128 54.7541 106.128 54.4998 105.971 54.343L81.9117 30.2832C81.7548 30.1264 81.5006 30.1264 81.3437 30.2832Z" fill="url(#paint29_linear_12461_57629)"/>
<path d="M81.345 34.5495L61.5515 54.343C61.3947 54.4998 61.3947 54.7541 61.5515 54.9109L81.3451 74.7044C81.5019 74.8613 81.7562 74.8613 81.913 74.7044L101.706 54.9109C101.863 54.7541 101.863 54.4998 101.706 54.343L81.913 34.5495C81.7561 34.3927 81.5019 34.3927 81.345 34.5495Z" fill="#45BFE4"/>
<path opacity="0.9" d="M81.3433 39.0688L66.0691 54.343C65.9123 54.4998 65.9123 54.7541 66.0691 54.9109L81.3433 70.1851C81.5002 70.342 81.7544 70.342 81.9113 70.1851L97.1855 54.9109C97.3423 54.7541 97.3423 54.4998 97.1855 54.343L81.9112 39.0688C81.7544 38.912 81.5002 38.912 81.3433 39.0688Z" fill="url(#paint30_linear_12461_57629)"/>
<path d="M81.3429 48.286L75.2859 54.343C75.1291 54.4998 75.1291 54.7541 75.2859 54.9109L81.3429 60.9679C81.4998 61.1248 81.754 61.1248 81.9108 60.9679L87.9679 54.9109C88.1247 54.7541 88.1247 54.4998 87.9679 54.343L81.9108 48.286C81.754 48.1292 81.4997 48.1292 81.3429 48.286Z" fill="#FFB629"/>
<defs>
<linearGradient id="paint0_linear_12461_57629" x1="140.324" y1="11" x2="140.324" y2="80.6916" gradientUnits="userSpaceOnUse">
<stop stop-color="#FF0000"/>
<stop offset="1" stop-color="#456FE5"/>
</linearGradient>
<linearGradient id="paint1_linear_12461_57629" x1="146" y1="5.5" x2="-18" y2="96.5" gradientUnits="userSpaceOnUse">
<stop stop-color="#FF0000"/>
<stop offset="1" stop-color="#456FE5"/>
</linearGradient>
<linearGradient id="paint2_linear_12461_57629" x1="45.5005" y1="98.5" x2="77.3213" y2="132.131" gradientUnits="userSpaceOnUse">
<stop stop-color="#06FDFB"/>
<stop offset="0.319806" stop-color="#78A8F9"/>
<stop offset="1" stop-color="#810BB8"/>
</linearGradient>
<linearGradient id="paint3_linear_12461_57629" x1="110" y1="96" x2="52.3939" y2="109.564" gradientUnits="userSpaceOnUse">
<stop stop-color="#06FDFB"/>
<stop offset="0.319806" stop-color="#78A8F9"/>
<stop offset="1" stop-color="#810BB8"/>
</linearGradient>
<linearGradient id="paint4_linear_12461_57629" x1="42.6257" y1="100.207" x2="36.1281" y2="84.2023" gradientUnits="userSpaceOnUse">
<stop stop-color="#2C21FA"/>
<stop offset="1" stop-color="#00004D"/>
</linearGradient>
<linearGradient id="paint5_linear_12461_57629" x1="117.845" y1="100.207" x2="111.347" y2="84.2023" gradientUnits="userSpaceOnUse">
<stop stop-color="#2C21FA"/>
<stop offset="1" stop-color="#00004D"/>
</linearGradient>
<linearGradient id="paint6_linear_12461_57629" x1="35.704" y1="39.5667" x2="31.4595" y2="37.9832" gradientUnits="userSpaceOnUse">
<stop stop-color="#2C21FA"/>
<stop offset="1" stop-color="#00004D"/>
</linearGradient>
<linearGradient id="paint7_linear_12461_57629" x1="124.785" y1="39.4379" x2="120.552" y2="37.8405" gradientUnits="userSpaceOnUse">
<stop stop-color="#2C21FA"/>
<stop offset="1" stop-color="#00004D"/>
</linearGradient>
<linearGradient id="paint8_linear_12461_57629" x1="42.0828" y1="7.18164" x2="82.4112" y2="13.8841" gradientUnits="userSpaceOnUse">
<stop stop-color="#5C4EFF"/>
<stop offset="1" stop-color="#3076FF"/>
</linearGradient>
<linearGradient id="paint9_linear_12461_57629" x1="82.0001" y1="7.18164" x2="122.33" y2="13.8733" gradientUnits="userSpaceOnUse">
<stop offset="0.0326465" stop-color="#5C4EFF"/>
<stop offset="1" stop-color="#3076FF"/>
</linearGradient>
<linearGradient id="paint10_linear_12461_57629" x1="103.27" y1="28.4452" x2="93.5784" y2="3.81348" gradientUnits="userSpaceOnUse">
<stop stop-color="#2C21FA"/>
<stop offset="1" stop-color="#00004D"/>
</linearGradient>
<linearGradient id="paint11_linear_12461_57629" x1="57.1887" y1="28.4152" x2="47.5146" y2="3.80248" gradientUnits="userSpaceOnUse">
<stop stop-color="#2C21FA"/>
<stop offset="1" stop-color="#00004D"/>
</linearGradient>
<linearGradient id="paint12_linear_12461_57629" x1="172.499" y1="82" x2="171.267" y2="13.4628" gradientUnits="userSpaceOnUse">
<stop stop-color="#06FDFB"/>
<stop offset="0.319806" stop-color="#78A8F9"/>
<stop offset="1" stop-color="#810BB8"/>
</linearGradient>
<linearGradient id="paint13_linear_12461_57629" x1="16.5" y1="98" x2="51.9165" y2="104.416" gradientUnits="userSpaceOnUse">
<stop stop-color="#06FDFB"/>
<stop offset="0.319806" stop-color="#78A8F9"/>
<stop offset="1" stop-color="#810BB8"/>
</linearGradient>
<linearGradient id="paint14_linear_12461_57629" x1="40.2586" y1="28.8082" x2="36.6599" y2="29.2914" gradientUnits="userSpaceOnUse">
<stop offset="0.109375" stop-color="white" stop-opacity="0"/>
<stop offset="0.483996" stop-color="#3EF3FF"/>
<stop offset="0.911458" stop-color="white" stop-opacity="0"/>
</linearGradient>
<linearGradient id="paint15_linear_12461_57629" x1="123.175" y1="28.829" x2="119.576" y2="29.3183" gradientUnits="userSpaceOnUse">
<stop offset="0.109375" stop-color="white" stop-opacity="0"/>
<stop offset="0.483996" stop-color="#3EF3FF"/>
<stop offset="0.911458" stop-color="white" stop-opacity="0"/>
</linearGradient>
<linearGradient id="paint16_linear_12461_57629" x1="40.4653" y1="30.2285" x2="43.665" y2="30.2507" gradientUnits="userSpaceOnUse">
<stop stop-color="#5C4EFF"/>
<stop offset="1" stop-color="#3076FF"/>
</linearGradient>
<linearGradient id="paint17_linear_12461_57629" x1="28.6775" y1="33.9844" x2="44.5148" y2="35.5946" gradientUnits="userSpaceOnUse">
<stop stop-color="#5C4EFF"/>
<stop offset="1" stop-color="#3076FF"/>
</linearGradient>
<linearGradient id="paint18_linear_12461_57629" x1="117.756" y1="33.8555" x2="133.594" y2="35.4657" gradientUnits="userSpaceOnUse">
<stop stop-color="#5C4EFF"/>
<stop offset="1" stop-color="#3076FF"/>
</linearGradient>
<linearGradient id="paint19_linear_12461_57629" x1="104.37" y1="76.3203" x2="131.087" y2="79.8768" gradientUnits="userSpaceOnUse">
<stop stop-color="#5C4EFF"/>
<stop offset="1" stop-color="#3076FF"/>
</linearGradient>
<linearGradient id="paint20_linear_12461_57629" x1="32.2336" y1="76.3203" x2="58.9503" y2="79.8768" gradientUnits="userSpaceOnUse">
<stop stop-color="#5C4EFF"/>
<stop offset="1" stop-color="#3076FF"/>
</linearGradient>
<linearGradient id="paint21_linear_12461_57629" x1="117.214" y1="30.2676" x2="120.414" y2="30.2897" gradientUnits="userSpaceOnUse">
<stop stop-color="#5C4EFF"/>
<stop offset="1" stop-color="#3076FF"/>
</linearGradient>
<linearGradient id="paint22_linear_12461_57629" x1="119.254" y1="75.3123" x2="93.357" y2="98.9361" gradientUnits="userSpaceOnUse">
<stop offset="0.109375" stop-color="white" stop-opacity="0"/>
<stop offset="0.483996" stop-color="#3EF3FF"/>
<stop offset="0.911458" stop-color="white" stop-opacity="0"/>
</linearGradient>
<linearGradient id="paint23_linear_12461_57629" x1="91.7246" y1="102.895" x2="85.2958" y2="89.0969" gradientUnits="userSpaceOnUse">
<stop stop-color="#2C21FA"/>
<stop offset="1" stop-color="#00004D"/>
</linearGradient>
<linearGradient id="paint24_linear_12461_57629" x1="68.7509" y1="102.895" x2="62.3222" y2="89.0969" gradientUnits="userSpaceOnUse">
<stop stop-color="#2C21FA"/>
<stop offset="1" stop-color="#00004D"/>
</linearGradient>
<linearGradient id="paint25_linear_12461_57629" x1="15.5002" y1="18.4999" x2="117.079" y2="53.3051" gradientUnits="userSpaceOnUse">
<stop stop-color="#080527"/>
<stop offset="1" stop-color="#00479A"/>
</linearGradient>
<linearGradient id="paint26_linear_12461_57629" x1="79.3382" y1="75.3123" x2="53.4412" y2="98.9372" gradientUnits="userSpaceOnUse">
<stop offset="0.109375" stop-color="white" stop-opacity="0"/>
<stop offset="0.483996" stop-color="#3EF3FF"/>
<stop offset="0.911458" stop-color="white" stop-opacity="0"/>
</linearGradient>
<linearGradient id="paint27_linear_12461_57629" x1="122.268" y1="4.38798" x2="94.4036" y2="29.84" gradientUnits="userSpaceOnUse">
<stop offset="0.109375" stop-color="white" stop-opacity="0"/>
<stop offset="0.483996" stop-color="#3EF3FF"/>
<stop offset="0.911458" stop-color="white" stop-opacity="0"/>
</linearGradient>
<linearGradient id="paint28_linear_12461_57629" x1="79.2686" y1="4.38694" x2="51.4379" y2="29.8419" gradientUnits="userSpaceOnUse">
<stop offset="0.109375" stop-color="white" stop-opacity="0"/>
<stop offset="0.483996" stop-color="#3EF3FF"/>
<stop offset="0.911458" stop-color="white" stop-opacity="0"/>
</linearGradient>
<linearGradient id="paint29_linear_12461_57629" x1="52" y1="16.5" x2="104.5" y2="79" gradientUnits="userSpaceOnUse">
<stop offset="0.254933" stop-color="#5F0AB4" stop-opacity="0.2"/>
<stop offset="0.518614" stop-color="#6481F0" stop-opacity="0.45"/>
<stop offset="0.909544" stop-color="#06FDFB" stop-opacity="0.75"/>
</linearGradient>
<linearGradient id="paint30_linear_12461_57629" x1="68.7448" y1="36.7385" x2="85.3182" y2="61.8086" gradientUnits="userSpaceOnUse">
<stop offset="0.254933" stop-color="#5F0AB4" stop-opacity="0.2"/>
<stop offset="0.518614" stop-color="#6481F0" stop-opacity="0.45"/>
<stop offset="0.909544" stop-color="#06FDFB" stop-opacity="0.75"/>
</linearGradient>
</defs>
</svg>
