<svg width="36" height="36" viewBox="0 0 36 36" fill="none" xmlns="http://www.w3.org/2000/svg">
<circle cx="18" cy="18" r="17.5" fill="#0D00FF" fill-opacity="0.5" stroke="white"/>
<mask id="mask0_13204_63907" style="mask-type:luminance" maskUnits="userSpaceOnUse" x="10" y="11" width="16" height="15">
<path fill-rule="evenodd" clip-rule="evenodd" d="M10.5 11.25H25.8544V25.8757H10.5V11.25Z" fill="white"/>
</mask>
<g mask="url(#mask0_13204_63907)">
<path fill-rule="evenodd" clip-rule="evenodd" d="M11.8679 18.0926C12.9194 21.3641 17.0736 24.0093 18.1776 24.6641C19.2854 24.0026 23.4696 21.3281 24.4874 18.0956C25.1556 16.0061 24.5354 13.3593 22.0709 12.5651C20.8769 12.1818 19.4841 12.4151 18.5226 13.1591C18.3216 13.3136 18.0426 13.3166 17.8401 13.1636C16.8216 12.3978 15.4911 12.1736 14.2784 12.5651C11.8176 13.3586 11.1996 16.0053 11.8679 18.0926ZM18.1785 25.8758C18.0855 25.8758 17.9932 25.8533 17.9092 25.8076C17.6745 25.6793 12.1447 22.6313 10.797 18.4358C10.7962 18.4358 10.7962 18.4351 10.7962 18.4351C9.95022 15.7936 10.8922 12.4741 13.9335 11.4938C15.3615 11.0318 16.9177 11.2351 18.1762 12.0293C19.3957 11.2583 21.0157 11.0453 22.4152 11.4938C25.4595 12.4756 26.4045 15.7943 25.5592 18.4351C24.255 22.5826 18.6847 25.6763 18.4485 25.8061C18.3645 25.8526 18.2715 25.8758 18.1785 25.8758Z" fill="white"/>
</g>
<path fill-rule="evenodd" clip-rule="evenodd" d="M22.615 16.9682C22.3248 16.9682 22.0788 16.7455 22.0548 16.4515C22.0053 15.835 21.5928 15.3145 21.0055 15.1247C20.7093 15.0287 20.5473 14.7115 20.6425 14.4167C20.7393 14.1212 21.0535 13.9607 21.3505 14.0537C22.3728 14.3845 23.089 15.2897 23.1768 16.36C23.2015 16.6697 22.9713 16.9412 22.6615 16.966C22.6458 16.9675 22.6308 16.9682 22.615 16.9682Z" fill="white"/>
</svg>
