<svg width="37" height="37" viewBox="0 0 37 37" fill="none" xmlns="http://www.w3.org/2000/svg">
<path d="M18.5 36C28.165 36 36 28.165 36 18.5C36 8.83502 28.165 1 18.5 1C8.83502 1 1 8.83502 1 18.5C1 28.165 8.83502 36 18.5 36Z" fill="#0D00FF" fill-opacity="0.5" stroke="white"/>
<mask id="mask0_222_186" style="mask-type:luminance" maskUnits="userSpaceOnUse" x="11" y="11" width="16" height="16">
<path fill-rule="evenodd" clip-rule="evenodd" d="M11 11.75H26.3544V26.3757H11V11.75Z" fill="white"/>
</mask>
<g mask="url(#mask0_222_186)">
<path fill-rule="evenodd" clip-rule="evenodd" d="M20 21C21.0515 24.2715 17.5736 24.5093 18.6776 25.1641C19.7854 24.5026 23.4822 22.2325 24.5 19C25.1682 16.9105 25.0354 13.8593 22.5709 13.0651C21.3769 12.6818 19.9841 12.9151 19.0226 13.6591C18.8216 13.8136 18.5426 13.8166 18.3401 13.6636C17.3216 12.8978 25.2127 19.1085 24 19.5C21.5392 20.2935 19.3317 18.9127 20 21ZM18.6785 26.3758C18.5855 26.3758 18.4932 26.3533 18.4092 26.3076C18.1745 26.1793 12.6447 23.1313 11.297 18.9358L11.2962 18.9351C10.4502 16.2936 11.3922 12.9741 14.4335 11.9938C15.8615 11.5318 17.4177 11.7351 18.6762 12.5293C19.8957 11.7583 21.5157 11.5453 22.9152 11.9938C25.9595 12.9756 26.9045 16.2943 26.0592 18.9351C24.755 23.0826 19.1847 26.1763 18.9485 26.3061C18.8645 26.3526 18.7715 26.3758 18.6785 26.3758Z" fill="white"/>
</g>
<path d="M19.8047 13.6694C19.8321 13.7615 19.8913 13.8407 19.9142 13.9322" stroke="white" stroke-width="3" stroke-linecap="round"/>
<path d="M21.9941 15.3115V15.8589" stroke="white" stroke-width="3" stroke-linecap="round"/>
<path d="M21.0527 15.574C20.7612 15.5423 20.4768 15.4343 20.2097 15.3186C20.0188 15.2359 19.8351 15.1399 19.6563 15.0339C19.6184 15.0115 19.5313 14.9256 19.5419 14.9682C19.548 14.9926 19.5803 15.0005 19.6003 15.0157C19.6981 15.09 19.793 15.1662 19.8825 15.2505C19.9966 15.3578 20.1051 15.4711 20.1988 15.5959" stroke="white" stroke-width="3" stroke-linecap="round"/>
<path d="M20.3079 19.3838C20.3079 19.9286 20.3609 20.47 20.3505 21.015C20.348 21.1492 20.3536 21.3029 20.2909 21.4261C20.2206 21.5643 20.0729 21.6667 19.9625 21.7704C19.7835 21.9385 19.5959 22.1215 19.4698 22.3348C19.4126 22.4317 19.3931 22.5876 19.3567 22.6924C19.311 22.824 19.266 22.9558 19.218 23.0865C19.207 23.1166 19.2001 23.1559 19.1742 23.1766C18.9516 23.3547 18.7418 23.5714 18.5368 23.7702C18.4811 23.8242 18.4532 23.8461 18.3726 23.8164C18.2383 23.7669 18.7742 23.3661 18.8008 23.3444C19.245 22.9827 19.6407 22.6147 20.0014 22.1694C20.2173 21.9029 20.4402 21.6123 20.7227 21.4116C20.8361 21.331 20.9869 21.2755 21.0791 21.1695C21.2886 20.9288 21.3699 20.6147 21.5608 20.3642C21.8362 20.0031 22.2817 19.8295 22.5315 19.4325C22.7508 19.0841 22.8856 18.6567 22.9682 18.2562C23.0523 17.8489 23.1209 17.4228 23.0838 17.0057C23.0551 16.6825 22.9373 16.3807 22.8527 16.0703C22.8068 15.9023 22.746 15.7785 22.652 15.6312C22.4919 15.3803 22.2818 15.1769 22.1119 14.9378C21.973 14.7423 21.8424 14.5795 21.6277 14.4659C21.4733 14.3841 21.2323 14.3456 21.0986 14.2287C21.0315 14.1699 21.2928 14.1946 21.3151 14.1946C21.5192 14.1946 21.7054 14.1919 21.8929 14.2834C22.1386 14.4033 22.3129 14.6508 22.4634 14.8697C22.5947 15.0607 22.7385 15.2365 22.9086 15.394C22.9667 15.4477 22.9573 15.3419 22.9573 15.3113C22.9573 15.1202 22.8265 14.9512 22.731 14.7931C22.6517 14.6617 22.6143 14.6133 22.4975 14.534C22.4921 14.5303 22.3996 14.4793 22.4464 14.4829C22.591 14.494 22.7402 14.5487 22.8721 14.6057C23.1296 14.7171 23.2889 14.9729 23.4268 15.2066C23.4835 15.3028 23.5502 15.3816 23.5655 15.4962C23.5959 15.7243 23.5922 15.9563 23.5922 16.1859C23.5922 16.6784 23.6439 17.166 23.6567 17.6577C23.6665 18.0324 23.5539 18.4184 23.3502 18.7367C23.2189 18.9418 23.126 19.1638 23.0266 19.3874C22.9691 19.5168 22.8599 19.6053 22.77 19.7147C22.6566 19.8525 22.5458 20.0425 22.3953 20.1428C22.0863 20.3488 21.7664 20.5966 21.5049 20.8581C21.352 21.011 21.1853 21.1477 21.0305 21.2984C20.8201 21.5033 20.5582 21.6362 20.3542 21.8507C20.1659 22.0486 19.983 22.2486 19.7898 22.4418C19.7521 22.4795 19.6456 22.5552 19.6341 22.6158C19.6181 22.6995 19.6719 22.8354 19.6997 22.9114C19.7785 23.1262 19.9564 23.2336 20.1595 23.123C20.4871 22.9448 20.8003 22.6711 21.0427 22.3883C21.1322 22.2839 21.2272 22.1916 21.3261 22.0964C21.4837 21.9446 21.6044 21.7149 21.7092 21.5247C21.8076 21.3461 21.8833 21.1574 21.9708 20.9736C22.065 20.7758 22.0734 20.6319 22.0815 20.4129" stroke="white" stroke-width="3" stroke-linecap="round"/>
</svg>
