<svg
  width="24"
  height="24"
  viewBox="0 0 24 24"
  fill="none"
  xmlns="http://www.w3.org/2000/svg"
>
<g id="Iconly/Bold/Lock">
<g id="Lock">
<path
        id="Lock_2"
        fill-rule="evenodd"
        clip-rule="evenodd"
        d="M17.5227 7.39601V8.92935C19.2451 9.46696 20.5 11.0261 20.5 12.8884V17.8253C20.5 20.1308 18.5886 22 16.2322 22H7.7688C5.41136 22 3.5 20.1308 3.5 17.8253V12.8884C3.5 11.0261 4.75595 9.46696 6.47729 8.92935V7.39601C6.48745 4.41479 8.95667 2 11.9848 2C15.0535 2 17.5227 4.41479 17.5227 7.39601ZM12.0035 3.73828C14.0662 3.73828 15.7428 5.37795 15.7428 7.39524V8.71294H8.25391V7.37537C8.26407 5.36801 9.9407 3.73828 12.0035 3.73828ZM12.8876 16.4535C12.8876 16.9404 12.4913 17.328 11.9934 17.328C11.5057 17.328 11.1094 16.9404 11.1094 16.4535V14.2474C11.1094 13.7704 11.5057 13.3828 11.9934 13.3828C12.4913 13.3828 12.8876 13.7704 12.8876 14.2474V16.4535Z"
        fill="#00000E"
        fill-opacity="0.5"
      />
</g>
</g>
</svg>
