<svg width="22" height="21" viewBox="0 0 22 21" fill="none" xmlns="http://www.w3.org/2000/svg">
<g clip-path="url(#clip0_12729_58809)">
<path d="M21.4898 0L12.0498 7.11191L13.8053 2.92066L21.4898 0Z" fill="#E17726"/>
<path d="M0.532484 0.0078125L8.19648 2.9206L9.86332 7.1668L0.532484 0.0078125ZM17.6915 15.1245L21.8639 15.2053L20.4057 20.249L15.3145 18.8218L17.6915 15.1245ZM4.30927 15.1245L6.67744 18.8218L1.59484 20.2491L0.145508 15.2053L4.30927 15.1245Z" fill="#E27625"/>
<path d="M9.6358 6.086L9.8063 11.6933L4.7041 11.4569L6.15541 9.2276L6.1738 9.20616L9.6358 6.086ZM12.3104 6.02344L15.8253 9.20634L15.8435 9.22769L17.2948 11.457L12.1937 11.6933L12.3104 6.02344ZM6.82598 15.1416L9.61191 17.3517L6.37567 18.9425L6.82598 15.1416ZM15.1736 15.1412L15.6146 18.9426L12.3873 17.3515L15.1736 15.1412Z" fill="#E27625"/>
<path d="M12.4587 17.1426L15.7335 18.7571L12.6873 20.2312L12.7189 19.2569L12.4587 17.1426ZM9.53965 17.1433L9.28966 19.241L9.3102 20.23L6.25684 18.7571L9.53965 17.1433Z" fill="#D5BFB2"/>
<path d="M8.59391 12.4258L9.44967 14.257L6.53613 13.3879L8.59391 12.4258ZM13.4051 12.426L15.4726 13.3879L12.5495 14.2567L13.4051 12.426Z" fill="#233447"/>
<path d="M7.04889 15.1231L6.57795 19.0641L4.05371 15.2093L7.04889 15.1231ZM14.9508 15.1232L17.9461 15.2093L15.4124 19.0643L14.9508 15.1232ZM17.3688 11.2344L15.189 13.4963L13.5083 12.7144L12.7037 14.4367L12.1762 11.4749L17.3688 11.2344ZM4.62966 11.2344L9.8233 11.4749L9.29573 14.4367L8.49092 12.7146L6.81918 13.4964L4.62966 11.2344Z" fill="#CC6228"/>
<path d="M4.4834 10.7702L6.94963 13.3183L7.03505 15.8338L4.4834 10.7702ZM17.5199 10.7656L14.9636 15.8383L15.0598 13.3183L17.5199 10.7656ZM9.70333 10.9254L9.80259 11.5615L10.0479 13.1462L9.89016 18.0134L9.14465 14.1035L9.14439 14.0631L9.70333 10.9254ZM12.2961 10.9166L12.8565 14.0631L12.8563 14.1035L12.1089 18.0232L12.0793 17.0428L11.9627 13.1174L12.2961 10.9166Z" fill="#E27525"/>
<path d="M15.2788 13.2168L15.1953 15.4024L12.5936 17.4662L12.0677 17.0879L12.6572 13.9961L15.2788 13.2168ZM6.73047 13.2168L9.34288 13.9961L9.93241 17.0879L9.40648 17.4662L6.80472 15.4022L6.73047 13.2168Z" fill="#F5841F"/>
<path d="M5.75977 18.2754L9.0883 19.8812L9.0742 19.1955L9.35273 18.9465H12.6471L12.9356 19.1946L12.9143 19.8798L16.2218 18.2794L14.6124 19.6336L12.6663 20.9945H9.326L7.38123 19.628L5.75977 18.2754Z" fill="#C0AC9D"/>
<path d="M12.2209 16.9297L12.6915 17.2682L12.9673 19.5086L12.5682 19.1655H9.43352L9.04199 19.5155L9.30874 17.2684L9.77951 16.9297H12.2209Z" fill="#161616"/>
<path d="M20.8668 0.197266L22 3.6585L21.2923 7.15824L21.7962 7.554L21.1143 8.08373L21.6269 8.48675L20.9482 9.11597L21.3648 9.42318L20.2592 10.738L15.7242 9.39352L15.685 9.37208L12.417 6.56525L20.8668 0.197266ZM1.13317 0.197266L9.58306 6.56525L6.31503 9.37208L6.27576 9.39352L1.74084 10.738L0.635164 9.42318L1.05145 9.11623L0.373227 8.48675L0.884727 8.08417L0.192586 7.55295L0.715516 7.15693L0 3.65868L1.13317 0.197266Z" fill="#763E1A"/>
<path d="M15.5029 9.09831L20.3079 10.5227L21.869 15.4215H17.7505L14.9129 15.4579L16.9766 11.3622L15.5029 9.09831ZM6.49802 9.09831L5.02411 11.3622L7.08807 15.4579L4.2517 15.4215H0.140625L1.69291 10.5228L6.49802 9.09831ZM14.0413 2.89648L12.6973 6.5924L12.4121 11.5851L12.3029 13.1501L12.2942 17.1478H9.70659L9.69816 13.1576L9.58868 11.5838L9.30337 6.5924L7.95956 2.89648H14.0413Z" fill="#F5841F"/>
</g>
<defs>
<clipPath id="clip0_12729_58809">
<rect width="22" height="21" fill="white"/>
</clipPath>
</defs>
</svg>
