<svg width="22" height="21" viewBox="0 0 22 21" fill="none" xmlns="http://www.w3.org/2000/svg">
<g clip-path="url(#clip0_252_155)">
<path d="M21.49 0L12.05 7.11191L13.8055 2.92066L21.49 0Z" fill="#E17726"/>
<path d="M0.531996 0.00830078L8.19599 2.92109L9.86283 7.16729L0.531996 0.00830078ZM17.6911 15.125L21.8634 15.2058L20.4052 20.2495L15.314 18.8223L17.6911 15.125ZM4.30878 15.125L6.67696 18.8223L1.59436 20.2496L0.14502 15.2058L4.30878 15.125Z" fill="#E27625"/>
<path d="M9.63628 6.08576L9.80679 11.693L4.70459 11.4567L6.1559 9.22736L6.17429 9.20592L9.63628 6.08576ZM12.3109 6.02319L15.8258 9.20609L15.844 9.22744L17.2953 11.4568L12.1942 11.693L12.3109 6.02319ZM6.82647 15.1413L9.61239 17.3515L6.37616 18.9423L6.82647 15.1413ZM15.1741 15.141L15.615 18.9424L12.3878 17.3513L15.1741 15.141Z" fill="#E27625"/>
<path d="M12.4589 17.1431L15.7338 18.7576L12.6875 20.2316L12.7192 19.2574L12.4589 17.1431ZM9.53989 17.1438L9.2899 19.2415L9.31044 20.2305L6.25708 18.7576L9.53989 17.1438Z" fill="#D5BFB2"/>
<path d="M8.5944 12.4248L9.45016 14.256L6.53662 13.387L8.5944 12.4248ZM13.4056 12.425L15.4731 13.387L12.55 14.2557L13.4056 12.425Z" fill="#233447"/>
<path d="M7.04913 15.1226L6.5782 19.0636L4.05396 15.2088L7.04913 15.1226ZM14.9511 15.1227L17.9464 15.2088L15.4127 19.0638L14.9511 15.1227ZM17.369 11.2339L15.1892 13.4959L13.5085 12.7139L12.7039 14.4362L12.1764 11.4744L17.369 11.2339ZM4.62991 11.2339L9.82354 11.4744L9.29597 14.4362L8.49117 12.7141L6.81942 13.4959L4.62991 11.2339Z" fill="#CC6228"/>
<path d="M4.48291 10.7697L6.94914 13.3178L7.03457 15.8333L4.48291 10.7697ZM17.5194 10.7651L14.9631 15.8378L15.0593 13.3178L17.5194 10.7651ZM9.70284 10.9249L9.8021 11.561L10.0474 13.1457L9.88967 18.0129L9.14416 14.103L9.1439 14.0626L9.70284 10.9249ZM12.2957 10.9161L12.8561 14.0626L12.8558 14.103L12.1084 18.0227L12.0788 17.0423L11.9622 13.1169L12.2957 10.9161Z" fill="#E27525"/>
<path d="M15.2788 13.2166L15.1953 15.4021L12.5936 17.466L12.0677 17.0876L12.6572 13.9958L15.2788 13.2166ZM6.73047 13.2166L9.34288 13.9958L9.93241 17.0876L9.40648 17.466L6.80472 15.402L6.73047 13.2166Z" fill="#F5841F"/>
<path d="M5.75928 18.2751L9.08781 19.8809L9.07371 19.1952L9.35224 18.9463H12.6466L12.9351 19.1943L12.9138 19.8795L16.2213 18.2792L14.6119 19.6333L12.6658 20.9942H9.32551L7.38075 19.6277L5.75928 18.2751Z" fill="#C0AC9D"/>
<path d="M12.2207 16.9294L12.6913 17.268L12.967 19.5083L12.5679 19.1652H9.43328L9.04175 19.5152L9.3085 17.2682L9.77926 16.9294H12.2207Z" fill="#161616"/>
<path d="M20.8668 0.196777L22 3.65802L21.2923 7.15775L21.7962 7.55352L21.1143 8.08324L21.6269 8.48627L20.9482 9.11548L21.3648 9.42269L20.2592 10.7375L15.7242 9.39303L15.685 9.37159L12.417 6.56477L20.8668 0.196777ZM1.13317 0.196777L9.58306 6.56477L6.31503 9.37159L6.27576 9.39303L1.74084 10.7375L0.635164 9.42269L1.05145 9.11574L0.373227 8.48627L0.884727 8.08368L0.192586 7.55247L0.715516 7.15644L0 3.65819L1.13317 0.196777Z" fill="#763E1A"/>
<path d="M15.5024 9.09904L20.3074 10.5235L21.8685 15.4222H17.75L14.9124 15.4586L16.9761 11.3629L15.5024 9.09904ZM6.49754 9.09904L5.02362 11.3629L7.08758 15.4586L4.25121 15.4222H0.140137L1.69243 10.5235L6.49754 9.09904ZM14.0408 2.89722L12.6968 6.59313L12.4116 11.5859L12.3024 13.1508L12.2938 17.1485H9.7061L9.69768 13.1583L9.58819 11.5846L9.30288 6.59313L7.95907 2.89722H14.0408Z" fill="#F5841F"/>
</g>
<defs>
<clipPath id="clip0_252_155">
<rect width="22" height="21" fill="white"/>
</clipPath>
</defs>
</svg>
