<svg width="19" height="20" viewBox="0 0 19 20" fill="none" xmlns="http://www.w3.org/2000/svg">
<path d="M16.9788 4.43L9.00879 0L1.03879 4.43L6.10879 7.24C6.83879 6.48 7.86879 6 9.00879 6C10.1488 6 11.1788 6.48 11.9088 7.24L16.9788 4.43ZM7.00879 10C7.00879 8.9 7.90879 8 9.00879 8C10.1088 8 11.0088 8.9 11.0088 10C11.0088 11.1 10.1088 12 9.00879 12C7.90879 12 7.00879 11.1 7.00879 10ZM8.00879 19.44L0.00878906 15V6.14L5.13879 8.99C5.04879 9.31 5.00879 9.65 5.00879 10C5.00879 11.86 6.27879 13.43 8.00879 13.87V19.44V19.44ZM10.0088 19.44V13.87C11.7388 13.43 13.0088 11.86 13.0088 10C13.0088 9.65 12.9688 9.31 12.8788 8.99L18.0088 6.14V15L10.0088 19.44V19.44Z" fill="white"/>
</svg>
