<svg width="158" height="114" viewBox="0 0 158 114" fill="none" xmlns="http://www.w3.org/2000/svg">
<path d="M158 10.9219L151.254 27.7768L150.637 28.1509L142.515 33.0621L119.178 47.1497L115.352 35.4262L158 10.9219ZM119.996 49.6434L123.961 61.7879L142.001 50.9081L149.67 31.7408L142.515 36.0707L126.273 45.8657L119.996 49.6434ZM124.776 64.2864L130.108 80.6135L140.421 54.851L126.272 63.3845L124.776 64.2864Z" fill="#51FF77" fill-opacity="0.68"/>
<path d="M158 10.9219L151.254 27.7768L150.637 28.1509L142.515 33.0621L119.178 47.1497L115.352 35.4262L158 10.9219ZM119.996 49.6434L123.961 61.7879L142.001 50.9081L149.67 31.7408L142.515 36.0707L126.273 45.8657L119.996 49.6434ZM124.776 64.2864L130.108 80.6135L140.421 54.851L126.272 63.3845L124.776 64.2864Z" fill="url(#paint0_linear_12461_57583)"/>
<path d="M158 10.9219L151.254 27.7768L150.637 28.1509L142.515 33.0621L119.178 47.1497L115.352 35.4262L158 10.9219ZM119.996 49.6434L123.961 61.7879L142.001 50.9081L149.67 31.7408L142.515 36.0707L126.273 45.8657L119.996 49.6434ZM124.776 64.2864L130.108 80.6135L140.421 54.851L126.272 63.3845L124.776 64.2864Z" fill="white" fill-opacity="0.4"/>
<path d="M43.5311 35.6053L39.7047 47.3288L16.3679 33.2493L8.24728 28.3364L7.62871 27.9624L0.882812 11.1074L43.5311 35.6053ZM32.6108 46.0512L16.3679 36.2563L9.21397 31.9263L16.8812 51.0936L34.9215 61.9799L38.8887 49.8354L32.6108 46.0512ZM32.6108 63.5798L18.46 55.0446L28.7747 80.8072L34.1053 64.4801L32.6108 63.5798Z" fill="#51FF77" fill-opacity="0.68"/>
<path d="M43.5311 35.6053L39.7047 47.3288L16.3679 33.2493L8.24728 28.3364L7.62871 27.9624L0.882812 11.1074L43.5311 35.6053ZM32.6108 46.0512L16.3679 36.2563L9.21397 31.9263L16.8812 51.0936L34.9215 61.9799L38.8887 49.8354L32.6108 46.0512ZM32.6108 63.5798L18.46 55.0446L28.7747 80.8072L34.1053 64.4801L32.6108 63.5798Z" fill="url(#paint1_linear_12461_57583)"/>
<path d="M43.5311 35.6053L39.7047 47.3288L16.3679 33.2493L8.24728 28.3364L7.62871 27.9624L0.882812 11.1074L43.5311 35.6053ZM32.6108 46.0512L16.3679 36.2563L9.21397 31.9263L16.8812 51.0936L34.9215 61.9799L38.8887 49.8354L32.6108 46.0512ZM32.6108 63.5798L18.46 55.0446L28.7747 80.8072L34.1053 64.4801L32.6108 63.5798Z" fill="white" fill-opacity="0.4"/>
<path d="M79.4437 99.7912V113.472L79.2397 113.353L57.1642 100.609V86.9277L79.2397 99.6714L79.4437 99.7912Z" fill="url(#paint2_linear_12461_57583)"/>
<path d="M101.724 86.9277V100.609L79.4429 113.472V99.7912L101.724 86.9277Z" fill="url(#paint3_linear_12461_57583)"/>
<path d="M57.1637 93.7679V97.1862L28.7747 80.7992L31.7639 79.1055L57.1637 93.7679Z" fill="url(#paint4_linear_12461_57583)" fill-opacity="0.85"/>
<path d="M130.113 80.7992L101.724 97.1862V93.7679L127.124 79.1055L130.113 80.7992Z" fill="url(#paint5_linear_12461_57583)" fill-opacity="0.85"/>
<path d="M37.7419 27.558V38.3731L34.7527 36.5709V25.8027L37.7419 27.558Z" fill="url(#paint6_linear_12461_57583)" fill-opacity="0.85"/>
<path d="M124.135 25.8242V36.4466L121.146 38.2489V27.5876L124.135 25.8242Z" fill="url(#paint7_linear_12461_57583)" fill-opacity="0.85"/>
<path d="M79.4426 6.96484V10.4463L43.72 31.0741L40.7308 29.3156L79.4426 6.96484Z" fill="url(#paint8_linear_12461_57583)"/>
<path d="M118.156 29.3156V29.3496L115.167 31.113V31.0741L79.4429 10.4463V6.96484L118.156 29.3156Z" fill="url(#paint9_linear_12461_57583)"/>
<path d="M124.135 25.803V25.8241L121.145 27.5875V27.5583L79.4429 3.48304V0L124.135 25.803Z" fill="url(#paint10_linear_12461_57583)" fill-opacity="0.85"/>
<path d="M79.4429 0V3.48304L37.7419 27.5583L34.7527 25.803L79.4429 0Z" fill="url(#paint11_linear_12461_57583)" fill-opacity="0.85"/>
<path d="M130.113 39.0332V80.799L127.124 79.1052L124.135 77.4114L121.145 75.7128L118.156 74.0191V46.247L130.113 39.0332Z" fill="url(#paint12_linear_12461_57583)"/>
<path d="M40.7314 46.3707V74.0181L37.7422 75.7118L34.753 77.4104L31.7639 79.1042L28.7747 80.7979V39.1504L31.7639 40.9543L34.753 42.763L40.7314 46.3707Z" fill="url(#paint13_linear_12461_57583)"/>
<path d="M40.7316 29.3162V40.1766L37.7424 38.3727V27.5625L40.7316 29.3162Z" fill="#51FF77" fill-opacity="0.68"/>
<path d="M40.7316 29.3162V40.1766L37.7424 38.3727V27.5625L40.7316 29.3162Z" fill="url(#paint14_linear_12461_57583)"/>
<path d="M40.7316 29.3162V40.1766L37.7424 38.3727V27.5625L40.7316 29.3162Z" fill="white" fill-opacity="0.4"/>
<path d="M121.145 27.5879V38.2491L118.156 40.053V29.3513L121.145 27.5879Z" fill="#51FF77" fill-opacity="0.68"/>
<path d="M121.145 27.5879V38.2491L118.156 40.053V29.3513L121.145 27.5879Z" fill="url(#paint15_linear_12461_57583)"/>
<path d="M121.145 27.5879V38.2491L118.156 40.053V29.3513L121.145 27.5879Z" fill="white" fill-opacity="0.4"/>
<path d="M43.7203 48.1744V72.3241L40.736 74.0179V46.3738L43.7203 48.1744ZM40.736 29.3164V40.1785L43.7252 41.9807V31.0749L40.736 29.3164Z" fill="url(#paint16_linear_12461_57583)"/>
<path d="M43.7206 41.9815V48.1752L40.7314 46.3714L34.753 42.7636L31.7639 40.9549L28.7747 39.1511V32.959L31.7639 34.7629L34.753 36.5716L43.7206 41.9815Z" fill="url(#paint17_linear_12461_57583)"/>
<path d="M130.114 32.834V39.0325L118.157 46.2464L115.168 48.0502V41.8565L124.135 36.4466L127.124 34.6379L130.114 32.834Z" fill="url(#paint18_linear_12461_57583)"/>
<path d="M127.124 79.1056L101.724 93.7681V83.5052L118.156 74.0195L121.146 75.7133L124.135 77.4119L127.124 79.1056Z" fill="url(#paint19_linear_12461_57583)"/>
<path d="M57.1629 83.5052V93.7681L31.7631 79.1056L34.7522 77.4119L37.7414 75.7133L40.7305 74.0195L57.1629 83.5052Z" fill="url(#paint20_linear_12461_57583)"/>
<path d="M118.157 46.246V74.0181L115.168 72.3243V48.0499L118.157 46.246ZM115.168 31.1156V41.8562L118.157 40.0588V29.3555L115.168 31.1156Z" fill="url(#paint21_linear_12461_57583)"/>
<path d="M118.156 74.0176L101.724 83.5033L79.4429 96.3668V92.9501L101.724 80.085L115.167 72.3223L118.156 74.0176Z" fill="url(#paint22_linear_12461_57583)"/>
<path d="M101.724 83.5039V86.927L79.4429 99.7905V96.3674L101.724 83.5039Z" fill="url(#paint23_linear_12461_57583)" fill-opacity="0.85"/>
<path d="M79.4437 96.3674V99.7905L79.2397 99.6707L57.1642 86.927V83.5039L79.2397 96.2492L79.4437 96.3674Z" fill="url(#paint24_linear_12461_57583)" fill-opacity="0.85"/>
<path d="M115.167 31.0751V72.3227L101.724 80.0855L79.4431 92.9505L57.1636 80.0855L43.7205 72.3227V31.0751L79.4431 10.4473L115.167 31.0751Z" fill="#2E2B4D"/>
<path d="M79.4426 92.9501V96.3668L79.2386 96.2486L57.1631 83.5033L40.7308 74.0176L43.72 72.3223L57.1631 80.085L79.4426 92.9501Z" fill="url(#paint25_linear_12461_57583)"/>
<path d="M121.145 27.5577V27.5868L118.156 29.3502V29.3162L79.4429 6.96547V3.48242L121.145 27.5577Z" fill="#51FF77" fill-opacity="0.68"/>
<path d="M121.145 27.5577V27.5868L118.156 29.3502V29.3162L79.4429 6.96547V3.48242L121.145 27.5577Z" fill="url(#paint26_linear_12461_57583)"/>
<path d="M121.145 27.5577V27.5868L118.156 29.3502V29.3162L79.4429 6.96547V3.48242L121.145 27.5577Z" fill="white" fill-opacity="0.4"/>
<path d="M79.4434 3.48242V6.96547L40.7316 29.3162L37.7424 27.5625V27.5577L79.4434 3.48242Z" fill="#51FF77" fill-opacity="0.68"/>
<path d="M79.4434 3.48242V6.96547L40.7316 29.3162L37.7424 27.5625V27.5577L79.4434 3.48242Z" fill="url(#paint27_linear_12461_57583)"/>
<path d="M79.4434 3.48242V6.96547L40.7316 29.3162L37.7424 27.5625V27.5577L79.4434 3.48242Z" fill="white" fill-opacity="0.4"/>
<path d="M79.4435 73.9232L56.8256 51.5547H63.1974L79.4435 73.9232Z" fill="#51FF77" fill-opacity="0.68"/>
<path d="M79.4435 73.9232L56.8256 51.5547H63.1974L79.4435 73.9232Z" fill="url(#paint28_linear_12461_57583)"/>
<path d="M79.4435 73.9232L56.8256 51.5547H63.1974L79.4435 73.9232Z" fill="white" fill-opacity="0.4"/>
<path d="M102.062 51.5547L79.4429 73.9232L95.6906 51.5547H102.062Z" fill="#51FF77" fill-opacity="0.68"/>
<path d="M102.062 51.5547L79.4429 73.9232L95.6906 51.5547H102.062Z" fill="url(#paint29_linear_12461_57583)"/>
<path d="M102.062 51.5547L79.4429 73.9232L95.6906 51.5547H102.062Z" fill="white" fill-opacity="0.4"/>
<path d="M79.4431 73.9232L63.197 51.5547H71.3209L79.4431 73.9232Z" fill="#51FF77" fill-opacity="0.68"/>
<path d="M79.4431 73.9232L63.197 51.5547H71.3209L79.4431 73.9232Z" fill="url(#paint30_linear_12461_57583)"/>
<path d="M79.4431 73.9232L63.197 51.5547H71.3209L79.4431 73.9232Z" fill="white" fill-opacity="0.4"/>
<path d="M95.6906 51.5547L79.4429 73.9232L87.5667 51.5547H95.6906Z" fill="#51FF77" fill-opacity="0.68"/>
<path d="M95.6906 51.5547L79.4429 73.9232L87.5667 51.5547H95.6906Z" fill="url(#paint31_linear_12461_57583)"/>
<path d="M95.6906 51.5547L79.4429 73.9232L87.5667 51.5547H95.6906Z" fill="white" fill-opacity="0.4"/>
<path d="M87.5666 51.5547L79.4428 73.9232L71.3206 51.5547H87.5666Z" fill="#51FF77" fill-opacity="0.68"/>
<path d="M87.5666 51.5547L79.4428 73.9232L71.3206 51.5547H87.5666Z" fill="url(#paint32_linear_12461_57583)"/>
<path d="M87.5666 51.5547L79.4428 73.9232L71.3206 51.5547H87.5666Z" fill="white" fill-opacity="0.4"/>
<path d="M67.8657 40.5156L63.1974 51.5558H56.8256L67.8657 40.5156Z" fill="#39FF65" fill-opacity="0.8"/>
<path d="M67.8657 40.5156L63.1974 51.5558H56.8256L67.8657 40.5156Z" fill="url(#paint33_linear_12461_57583)"/>
<path d="M67.8657 40.5156L63.1974 51.5558H56.8256L67.8657 40.5156Z" fill="white" fill-opacity="0.2"/>
<path d="M79.4436 40.5156L71.3214 51.5558L67.8658 40.5156H79.4436Z" fill="#39FF65" fill-opacity="0.8"/>
<path d="M79.4436 40.5156L71.3214 51.5558L67.8658 40.5156H79.4436Z" fill="url(#paint34_linear_12461_57583)"/>
<path d="M79.4436 40.5156L71.3214 51.5558L67.8658 40.5156H79.4436Z" fill="white" fill-opacity="0.2"/>
<path d="M91.0206 40.5156L87.5667 51.5558L79.4429 40.5156H91.0206Z" fill="#39FF65" fill-opacity="0.8"/>
<path d="M91.0206 40.5156L87.5667 51.5558L79.4429 40.5156H91.0206Z" fill="url(#paint35_linear_12461_57583)"/>
<path d="M91.0206 40.5156L87.5667 51.5558L79.4429 40.5156H91.0206Z" fill="white" fill-opacity="0.2"/>
<path d="M102.063 51.5558H95.6911L91.0211 40.5156L102.063 51.5558Z" fill="#39FF65" fill-opacity="0.8"/>
<path d="M102.063 51.5558H95.6911L91.0211 40.5156L102.063 51.5558Z" fill="url(#paint36_linear_12461_57583)"/>
<path d="M102.063 51.5558H95.6911L91.0211 40.5156L102.063 51.5558Z" fill="white" fill-opacity="0.2"/>
<path d="M71.3209 51.5558H63.197L67.8653 40.5156L71.3209 51.5558Z" fill="#51FF77" fill-opacity="0.68"/>
<path d="M71.3209 51.5558H63.197L67.8653 40.5156L71.3209 51.5558Z" fill="url(#paint37_linear_12461_57583)"/>
<path d="M71.3209 51.5558H63.197L67.8653 40.5156L71.3209 51.5558Z" fill="white" fill-opacity="0.4"/>
<path d="M95.6903 51.5558H87.5664L91.0203 40.5156L95.6903 51.5558Z" fill="#51FF77" fill-opacity="0.68"/>
<path d="M95.6903 51.5558H87.5664L91.0203 40.5156L95.6903 51.5558Z" fill="url(#paint38_linear_12461_57583)"/>
<path d="M95.6903 51.5558H87.5664L91.0203 40.5156L95.6903 51.5558Z" fill="white" fill-opacity="0.4"/>
<path d="M87.5666 51.5558H71.3206L79.4428 40.5156L87.5666 51.5558Z" fill="#51FF77" fill-opacity="0.68"/>
<path d="M87.5666 51.5558H71.3206L79.4428 40.5156L87.5666 51.5558Z" fill="url(#paint39_linear_12461_57583)"/>
<path d="M87.5666 51.5558H71.3206L79.4428 40.5156L87.5666 51.5558Z" fill="white" fill-opacity="0.4"/>
<defs>
<linearGradient id="paint0_linear_12461_57583" x1="157.031" y1="13.0022" x2="111.776" y2="28.6936" gradientUnits="userSpaceOnUse">
<stop offset="0.109375" stop-color="white" stop-opacity="0"/>
<stop offset="0.483996" stop-color="#3EF3FF"/>
<stop offset="0.911458" stop-color="white" stop-opacity="0"/>
</linearGradient>
<linearGradient id="paint1_linear_12461_57583" x1="42.5618" y1="13.188" x2="-2.69417" y2="28.8779" gradientUnits="userSpaceOnUse">
<stop offset="0.109375" stop-color="white" stop-opacity="0"/>
<stop offset="0.483996" stop-color="#3EF3FF"/>
<stop offset="0.911458" stop-color="white" stop-opacity="0"/>
</linearGradient>
<linearGradient id="paint2_linear_12461_57583" x1="45.7486" y1="95.5294" x2="76.61" y2="128.144" gradientUnits="userSpaceOnUse">
<stop stop-color="#06FDFB"/>
<stop offset="0.319806" stop-color="#78A8F9"/>
<stop offset="1" stop-color="#810BB8"/>
</linearGradient>
<linearGradient id="paint3_linear_12461_57583" x1="108.3" y1="93.1048" x2="52.4311" y2="106.26" gradientUnits="userSpaceOnUse">
<stop stop-color="#06FDFB"/>
<stop offset="0.319806" stop-color="#78A8F9"/>
<stop offset="1" stop-color="#810BB8"/>
</linearGradient>
<linearGradient id="paint4_linear_12461_57583" x1="42.9594" y1="97.1862" x2="36.6577" y2="81.6638" gradientUnits="userSpaceOnUse">
<stop stop-color="#2C21FA"/>
<stop offset="1" stop-color="#00004D"/>
</linearGradient>
<linearGradient id="paint5_linear_12461_57583" x1="115.909" y1="97.1862" x2="109.607" y2="81.6638" gradientUnits="userSpaceOnUse">
<stop stop-color="#2C21FA"/>
<stop offset="1" stop-color="#00004D"/>
</linearGradient>
<linearGradient id="paint6_linear_12461_57583" x1="36.2463" y1="38.3731" x2="32.1298" y2="36.8374" gradientUnits="userSpaceOnUse">
<stop stop-color="#2C21FA"/>
<stop offset="1" stop-color="#00004D"/>
</linearGradient>
<linearGradient id="paint7_linear_12461_57583" x1="122.639" y1="38.2489" x2="118.535" y2="36.6996" gradientUnits="userSpaceOnUse">
<stop stop-color="#2C21FA"/>
<stop offset="1" stop-color="#00004D"/>
</linearGradient>
<linearGradient id="paint8_linear_12461_57583" x1="42.4324" y1="6.96485" x2="81.543" y2="13.4646" gradientUnits="userSpaceOnUse">
<stop offset="0.0326465" stop-color="#5C4EFF"/>
<stop offset="1" stop-color="#3076FF"/>
</linearGradient>
<linearGradient id="paint9_linear_12461_57583" x1="81.1446" y1="6.96485" x2="120.26" y2="13.4553" gradientUnits="userSpaceOnUse">
<stop offset="0.0326465" stop-color="#5C4EFF"/>
<stop offset="1" stop-color="#3076FF"/>
</linearGradient>
<linearGradient id="paint10_linear_12461_57583" x1="101.773" y1="27.5875" x2="92.3736" y2="3.69848" gradientUnits="userSpaceOnUse">
<stop stop-color="#2C21FA"/>
<stop offset="1" stop-color="#00004D"/>
</linearGradient>
<linearGradient id="paint11_linear_12461_57583" x1="57.0823" y1="27.5583" x2="47.6996" y2="3.68805" gradientUnits="userSpaceOnUse">
<stop stop-color="#2C21FA"/>
<stop offset="1" stop-color="#00004D"/>
</linearGradient>
<linearGradient id="paint12_linear_12461_57583" x1="168.909" y1="79.528" x2="167.713" y2="13.0576" gradientUnits="userSpaceOnUse">
<stop stop-color="#06FDFB"/>
<stop offset="0.319806" stop-color="#78A8F9"/>
<stop offset="1" stop-color="#810BB8"/>
</linearGradient>
<linearGradient id="paint13_linear_12461_57583" x1="79.5273" y1="79.5306" x2="78.3384" y2="13.2482" gradientUnits="userSpaceOnUse">
<stop stop-color="#06FDFB"/>
<stop offset="0.319806" stop-color="#78A8F9"/>
<stop offset="1" stop-color="#810BB8"/>
</linearGradient>
<linearGradient id="paint14_linear_12461_57583" x1="40.6637" y1="27.939" x2="37.1734" y2="28.4077" gradientUnits="userSpaceOnUse">
<stop offset="0.109375" stop-color="white" stop-opacity="0"/>
<stop offset="0.483996" stop-color="#3EF3FF"/>
<stop offset="0.911458" stop-color="white" stop-opacity="0"/>
</linearGradient>
<linearGradient id="paint15_linear_12461_57583" x1="121.077" y1="27.96" x2="117.589" y2="28.434" gradientUnits="userSpaceOnUse">
<stop offset="0.109375" stop-color="white" stop-opacity="0"/>
<stop offset="0.483996" stop-color="#3EF3FF"/>
<stop offset="0.911458" stop-color="white" stop-opacity="0"/>
</linearGradient>
<linearGradient id="paint16_linear_12461_57583" x1="40.8674" y1="29.3164" x2="43.9706" y2="29.3379" gradientUnits="userSpaceOnUse">
<stop offset="0.0326465" stop-color="#5C4EFF"/>
<stop offset="1" stop-color="#3076FF"/>
</linearGradient>
<linearGradient id="paint17_linear_12461_57583" x1="29.4317" y1="32.959" x2="44.7898" y2="34.5203" gradientUnits="userSpaceOnUse">
<stop stop-color="#5C4EFF"/>
<stop offset="1" stop-color="#3076FF"/>
</linearGradient>
<linearGradient id="paint18_linear_12461_57583" x1="115.825" y1="32.834" x2="131.183" y2="34.3953" gradientUnits="userSpaceOnUse">
<stop stop-color="#5C4EFF"/>
<stop offset="1" stop-color="#3076FF"/>
</linearGradient>
<linearGradient id="paint19_linear_12461_57583" x1="102.841" y1="74.0195" x2="128.752" y2="77.4688" gradientUnits="userSpaceOnUse">
<stop stop-color="#5C4EFF"/>
<stop offset="1" stop-color="#3076FF"/>
</linearGradient>
<linearGradient id="paint20_linear_12461_57583" x1="32.8795" y1="74.0195" x2="58.7906" y2="77.4688" gradientUnits="userSpaceOnUse">
<stop stop-color="#5C4EFF"/>
<stop offset="1" stop-color="#3076FF"/>
</linearGradient>
<linearGradient id="paint21_linear_12461_57583" x1="115.299" y1="29.3555" x2="118.402" y2="29.377" gradientUnits="userSpaceOnUse">
<stop offset="0.0326465" stop-color="#5C4EFF"/>
<stop offset="1" stop-color="#3076FF"/>
</linearGradient>
<linearGradient id="paint22_linear_12461_57583" x1="81.1446" y1="72.3223" x2="120.251" y2="78.8392" gradientUnits="userSpaceOnUse">
<stop offset="0.0326465" stop-color="#5C4EFF"/>
<stop offset="1" stop-color="#3076FF"/>
</linearGradient>
<linearGradient id="paint23_linear_12461_57583" x1="90.5757" y1="99.7905" x2="84.3408" y2="86.4089" gradientUnits="userSpaceOnUse">
<stop stop-color="#2C21FA"/>
<stop offset="1" stop-color="#00004D"/>
</linearGradient>
<linearGradient id="paint24_linear_12461_57583" x1="68.2962" y1="99.7905" x2="62.061" y2="86.4093" gradientUnits="userSpaceOnUse">
<stop stop-color="#2C21FA"/>
<stop offset="1" stop-color="#00004D"/>
</linearGradient>
<linearGradient id="paint25_linear_12461_57583" x1="42.4324" y1="72.3223" x2="81.5374" y2="78.8386" gradientUnits="userSpaceOnUse">
<stop offset="0.0326465" stop-color="#5C4EFF"/>
<stop offset="1" stop-color="#3076FF"/>
</linearGradient>
<linearGradient id="paint26_linear_12461_57583" x1="120.198" y1="4.2546" x2="93.1739" y2="28.9391" gradientUnits="userSpaceOnUse">
<stop offset="0.109375" stop-color="white" stop-opacity="0"/>
<stop offset="0.483996" stop-color="#3EF3FF"/>
<stop offset="0.911458" stop-color="white" stop-opacity="0"/>
</linearGradient>
<linearGradient id="paint27_linear_12461_57583" x1="78.4957" y1="4.25358" x2="51.5043" y2="28.9399" gradientUnits="userSpaceOnUse">
<stop offset="0.109375" stop-color="white" stop-opacity="0"/>
<stop offset="0.483996" stop-color="#3EF3FF"/>
<stop offset="0.911458" stop-color="white" stop-opacity="0"/>
</linearGradient>
<linearGradient id="paint28_linear_12461_57583" x1="78.9294" y1="52.2224" x2="58.6877" y2="63.8192" gradientUnits="userSpaceOnUse">
<stop offset="0.109375" stop-color="white" stop-opacity="0"/>
<stop offset="0.483996" stop-color="#3EF3FF"/>
<stop offset="0.911458" stop-color="white" stop-opacity="0"/>
</linearGradient>
<linearGradient id="paint29_linear_12461_57583" x1="101.548" y1="52.2224" x2="81.3058" y2="63.8204" gradientUnits="userSpaceOnUse">
<stop offset="0.109375" stop-color="white" stop-opacity="0"/>
<stop offset="0.483996" stop-color="#3EF3FF"/>
<stop offset="0.911458" stop-color="white" stop-opacity="0"/>
</linearGradient>
<linearGradient id="paint30_linear_12461_57583" x1="79.0739" y1="52.2224" x2="62.559" y2="59.0185" gradientUnits="userSpaceOnUse">
<stop offset="0.109375" stop-color="white" stop-opacity="0"/>
<stop offset="0.483996" stop-color="#3EF3FF"/>
<stop offset="0.911458" stop-color="white" stop-opacity="0"/>
</linearGradient>
<linearGradient id="paint31_linear_12461_57583" x1="95.3213" y1="52.2224" x2="78.8053" y2="59.0197" gradientUnits="userSpaceOnUse">
<stop offset="0.109375" stop-color="white" stop-opacity="0"/>
<stop offset="0.483996" stop-color="#3EF3FF"/>
<stop offset="0.911458" stop-color="white" stop-opacity="0"/>
</linearGradient>
<linearGradient id="paint32_linear_12461_57583" x1="87.1974" y1="52.2224" x2="70.6826" y2="59.0185" gradientUnits="userSpaceOnUse">
<stop offset="0.109375" stop-color="white" stop-opacity="0"/>
<stop offset="0.483996" stop-color="#3EF3FF"/>
<stop offset="0.911458" stop-color="white" stop-opacity="0"/>
</linearGradient>
<linearGradient id="paint33_linear_12461_57583" x1="67.6148" y1="40.8452" x2="57.6807" y2="46.4738" gradientUnits="userSpaceOnUse">
<stop offset="0.109375" stop-color="white" stop-opacity="0"/>
<stop offset="0.483996" stop-color="#3EF3FF"/>
<stop offset="0.911458" stop-color="white" stop-opacity="0"/>
</linearGradient>
<linearGradient id="paint34_linear_12461_57583" x1="79.1805" y1="40.8452" x2="69.0092" y2="46.8888" gradientUnits="userSpaceOnUse">
<stop offset="0.109375" stop-color="white" stop-opacity="0"/>
<stop offset="0.483996" stop-color="#3EF3FF"/>
<stop offset="0.911458" stop-color="white" stop-opacity="0"/>
</linearGradient>
<linearGradient id="paint35_linear_12461_57583" x1="90.7575" y1="40.8452" x2="80.5862" y2="46.8888" gradientUnits="userSpaceOnUse">
<stop offset="0.109375" stop-color="white" stop-opacity="0"/>
<stop offset="0.483996" stop-color="#3EF3FF"/>
<stop offset="0.911458" stop-color="white" stop-opacity="0"/>
</linearGradient>
<linearGradient id="paint36_linear_12461_57583" x1="101.812" y1="40.8452" x2="91.877" y2="46.4751" gradientUnits="userSpaceOnUse">
<stop offset="0.109375" stop-color="white" stop-opacity="0"/>
<stop offset="0.483996" stop-color="#3EF3FF"/>
<stop offset="0.911458" stop-color="white" stop-opacity="0"/>
</linearGradient>
<linearGradient id="paint37_linear_12461_57583" x1="71.1362" y1="40.8452" x2="62.9095" y2="44.2751" gradientUnits="userSpaceOnUse">
<stop offset="0.109375" stop-color="white" stop-opacity="0"/>
<stop offset="0.483996" stop-color="#3EF3FF"/>
<stop offset="0.911458" stop-color="white" stop-opacity="0"/>
</linearGradient>
<linearGradient id="paint38_linear_12461_57583" x1="95.5056" y1="40.8452" x2="87.2789" y2="44.2751" gradientUnits="userSpaceOnUse">
<stop offset="0.109375" stop-color="white" stop-opacity="0"/>
<stop offset="0.483996" stop-color="#3EF3FF"/>
<stop offset="0.911458" stop-color="white" stop-opacity="0"/>
</linearGradient>
<linearGradient id="paint39_linear_12461_57583" x1="87.1974" y1="40.8452" x2="75.8053" y2="50.3436" gradientUnits="userSpaceOnUse">
<stop offset="0.109375" stop-color="white" stop-opacity="0"/>
<stop offset="0.483996" stop-color="#3EF3FF"/>
<stop offset="0.911458" stop-color="white" stop-opacity="0"/>
</linearGradient>
</defs>
</svg>
