<svg width="29" height="27" viewBox="0 0 29 27" fill="none" xmlns="http://www.w3.org/2000/svg">
<path d="M9.0997 10.6738H1.34058C1.29273 10.6738 1.24683 10.6923 1.21301 10.7253C1.17915 10.7583 1.16016 10.803 1.16016 10.8497V18.411C1.16016 18.4577 1.17915 18.5024 1.21301 18.5354C1.24683 18.5684 1.29273 18.5869 1.34058 18.5869H9.0997C9.14759 18.5869 9.19348 18.5684 9.2273 18.5354C9.26116 18.5024 9.28016 18.4577 9.28016 18.411V10.8497C9.28016 10.803 9.26116 10.7583 9.2273 10.7253C9.19348 10.6923 9.14759 10.6738 9.0997 10.6738ZM6.57348 15.7734C6.57348 15.82 6.55448 15.8647 6.52062 15.8977C6.4868 15.9307 6.44091 15.9492 6.39306 15.9492H4.04726C3.9994 15.9492 3.95351 15.9307 3.91965 15.8977C3.88583 15.8647 3.86683 15.82 3.86683 15.7734V13.4873C3.86683 13.4407 3.88583 13.396 3.91965 13.363C3.95351 13.33 3.9994 13.3115 4.04726 13.3115H6.39306C6.44091 13.3115 6.4868 13.33 6.52062 13.363C6.55448 13.396 6.57348 13.4407 6.57348 13.4873V15.7734Z" fill="#00000E"/>
<path d="M25.288 12.9355H22.2721C22.1439 12.9355 22.04 13.0367 22.04 13.1616V16.1007C22.04 16.2256 22.1439 16.3269 22.2721 16.3269H25.288C25.4162 16.3269 25.52 16.2256 25.52 16.1007V13.1616C25.52 13.0367 25.4162 12.9355 25.288 12.9355Z" fill="#00000E"/>
<path d="M21.8851 10.6738H19.8744C19.789 10.6738 19.7197 10.7413 19.7197 10.8246V12.784C19.7197 12.8672 19.789 12.9347 19.8744 12.9347H21.8851C21.9705 12.9347 22.0397 12.8672 22.0397 12.784V10.8246C22.0397 10.7413 21.9705 10.6738 21.8851 10.6738Z" fill="#00000E"/>
<path d="M27.6849 10.6738H25.6742C25.5888 10.6738 25.5195 10.7413 25.5195 10.8246V12.784C25.5195 12.8672 25.5888 12.9347 25.6742 12.9347H27.6849C27.7703 12.9347 27.8395 12.8672 27.8395 12.784V10.8246C27.8395 10.7413 27.7703 10.6738 27.6849 10.6738Z" fill="#00000E"/>
<path d="M21.8851 16.3262H19.8744C19.789 16.3262 19.7197 16.3936 19.7197 16.4769V18.4363C19.7197 18.5195 19.789 18.587 19.8744 18.587H21.8851C21.9705 18.587 22.0397 18.5195 22.0397 18.4363V16.4769C22.0397 16.3936 21.9705 16.3262 21.8851 16.3262Z" fill="#00000E"/>
<path d="M27.6849 16.3262H25.6742C25.5888 16.3262 25.5195 16.3936 25.5195 16.4769V18.4363C25.5195 18.5195 25.5888 18.587 25.6742 18.587H27.6849C27.7703 18.587 27.8395 18.5195 27.8395 18.4363V16.4769C27.8395 16.3936 27.7703 16.3262 27.6849 16.3262Z" fill="#00000E"/>
<path d="M18.4056 10.6738H16.3949C16.3095 10.6738 16.2402 10.7413 16.2402 10.8246V12.784C16.2402 12.8672 16.3095 12.9347 16.3949 12.9347H18.4056C18.491 12.9347 18.5602 12.8672 18.5602 12.784V10.8246C18.5602 10.7413 18.491 10.6738 18.4056 10.6738Z" fill="#00000E"/>
<path d="M18.4056 16.3262H16.3949C16.3095 16.3262 16.2402 16.3936 16.2402 16.4769V18.4363C16.2402 18.5195 16.3095 18.587 16.3949 18.587H18.4056C18.491 18.587 18.5602 18.5195 18.5602 18.4363V16.4769C18.5602 16.3936 18.491 16.3262 18.4056 16.3262Z" fill="#00000E"/>
<path d="M16.2404 13.4868C16.2404 13.4401 16.22 13.3954 16.1838 13.3624C16.1475 13.3294 16.0984 13.3109 16.0471 13.3109H13.3404V10.8498C13.3404 10.8031 13.32 10.7583 13.2838 10.7254C13.2475 10.6923 13.1984 10.6738 13.1471 10.6738H10.6338C10.5825 10.6738 10.5333 10.6923 10.4971 10.7254C10.4608 10.7583 10.4404 10.8031 10.4404 10.8498V18.411C10.4404 18.4576 10.4608 18.5024 10.4971 18.5353C10.5333 18.5684 10.5825 18.5869 10.6338 18.5869H13.1471C13.1984 18.5869 13.2475 18.5684 13.2838 18.5353C13.32 18.5024 13.3404 18.4576 13.3404 18.411V15.9499H16.0471C16.0984 15.9499 16.1475 15.9313 16.1838 15.8983C16.22 15.8653 16.2404 15.8206 16.2404 15.7739V13.4868Z" fill="#00000E"/>
</svg>





