<svg width="16" height="17" viewBox="0 0 16 17" fill="none" xmlns="http://www.w3.org/2000/svg">
<path d="M6.7459 16.2589C6.44784 15.9667 6.42074 15.5095 6.66461 15.1873L6.7459 15.095L13.4734 8.5L6.7459 1.90503C6.44784 1.61283 6.42074 1.15558 6.66461 0.833374L6.7459 0.741063C7.04396 0.448863 7.51037 0.422302 7.83904 0.661373L7.93321 0.741063L15.2541 7.91802C15.5522 8.21022 15.5793 8.66746 15.3354 8.98967L15.2541 9.08198L7.93321 16.2589C7.60534 16.5804 7.07376 16.5804 6.7459 16.2589Z" fill="#0D00FF"/>
<path d="M0.745899 16.2589C0.44784 15.9667 0.420743 15.5095 0.66461 15.1873L0.745899 15.095L7.47342 8.5L0.7459 1.90503C0.447841 1.61283 0.420744 1.15558 0.664611 0.833374L0.745901 0.741063C1.04396 0.448863 1.51037 0.422302 1.83904 0.661373L1.93321 0.741063L9.2541 7.91802C9.55216 8.21022 9.57926 8.66746 9.33539 8.98967L9.2541 9.08198L1.93321 16.2589C1.60534 16.5804 1.07376 16.5804 0.745899 16.2589Z" fill="#0D00FF"/>
</svg>
