<svg width="16" height="17" viewBox="0 0 16 17" fill="none" xmlns="http://www.w3.org/2000/svg">
<path d="M9.2541 0.741064C9.55216 1.03326 9.57926 1.49051 9.33539 1.81272L9.2541 1.90503L2.52658 8.5L9.2541 15.095C9.55216 15.3872 9.57926 15.8444 9.33539 16.1666L9.2541 16.2589C8.95604 16.5511 8.48963 16.5777 8.16096 16.3386L8.06679 16.2589L0.745899 9.08198C0.44784 8.78978 0.420743 8.33254 0.66461 8.01033L0.745899 7.91802L8.06679 0.741064C8.39466 0.419645 8.92624 0.419645 9.2541 0.741064Z" fill="#0D00FF"/>
<path d="M15.2541 0.741064C15.5522 1.03326 15.5793 1.49051 15.3354 1.81272L15.2541 1.90503L8.52658 8.5L15.2541 15.095C15.5522 15.3872 15.5793 15.8444 15.3354 16.1666L15.2541 16.2589C14.956 16.5511 14.4896 16.5777 14.161 16.3386L14.0668 16.2589L6.7459 9.08198C6.44784 8.78978 6.42074 8.33254 6.66461 8.01033L6.7459 7.91802L14.0668 0.741064C14.3947 0.419645 14.9262 0.419645 15.2541 0.741064Z" fill="#0D00FF"/>
</svg>
