<svg width="14" height="14" viewBox="0 0 14 14" fill="none" xmlns="http://www.w3.org/2000/svg">
<path d="M9.00001 2.59961C9.00001 3.13004 8.78929 3.63875 8.41422 4.01382C8.03915 4.3889 7.53044 4.59961 7.00001 4.59961C6.46957 4.59961 5.96087 4.3889 5.58579 4.01382C5.21072 3.63875 5.00001 3.13004 5.00001 2.59961C5.00001 2.06918 5.21072 1.56047 5.58579 1.1854C5.96087 0.810323 6.46957 0.599609 7.00001 0.599609C7.53044 0.599609 8.03915 0.810323 8.41422 1.1854C8.78929 1.56047 9.00001 2.06918 9.00001 2.59961ZM13 2.99961C13 3.42396 12.8314 3.83092 12.5314 4.13098C12.2313 4.43104 11.8244 4.59961 11.4 4.59961C10.9757 4.59961 10.5687 4.43104 10.2686 4.13098C9.96858 3.83092 9.80001 3.42396 9.80001 2.99961C9.80001 2.57526 9.96858 2.1683 10.2686 1.86824C10.5687 1.56818 10.9757 1.39961 11.4 1.39961C11.8244 1.39961 12.2313 1.56818 12.5314 1.86824C12.8314 2.1683 13 2.57526 13 2.99961ZM2.60001 4.59961C3.02435 4.59961 3.43132 4.43104 3.73138 4.13098C4.03144 3.83092 4.20001 3.42396 4.20001 2.99961C4.20001 2.57526 4.03144 2.1683 3.73138 1.86824C3.43132 1.56818 3.02435 1.39961 2.60001 1.39961C2.17566 1.39961 1.76869 1.56818 1.46864 1.86824C1.16858 2.1683 1.00001 2.57526 1.00001 2.99961C1.00001 3.42396 1.16858 3.83092 1.46864 4.13098C1.76869 4.43104 2.17566 4.59961 2.60001 4.59961ZM3.80001 6.39961C3.80001 5.84761 4.24801 5.39961 4.80001 5.39961H9.20001C9.75201 5.39961 10.2 5.84761 10.2 6.39961V10.1996C10.2 11.0483 9.86286 11.8622 9.26275 12.4624C8.66263 13.0625 7.8487 13.3996 7.00001 13.3996C6.15131 13.3996 5.33738 13.0625 4.73726 12.4624C4.13715 11.8622 3.80001 11.0483 3.80001 10.1996V6.39961ZM3.00001 6.39961C3.00001 6.02921 3.11201 5.68601 3.30321 5.39961H1.60001C1.04801 5.39961 0.600006 5.84761 0.600006 6.39961V9.39961C0.599969 9.7421 0.673237 10.0806 0.814887 10.3925C0.956538 10.7043 1.16329 10.9822 1.42125 11.2075C1.67921 11.4328 1.9824 11.6003 2.31046 11.6987C2.63851 11.7971 2.98383 11.8241 3.32321 11.778C3.10917 11.2794 2.99919 10.7423 3.00001 10.1996V6.39961ZM11 10.1996C11 10.7596 10.8848 11.294 10.6768 11.778C11.0162 11.8241 11.3615 11.7971 11.6896 11.6987C12.0176 11.6003 12.3208 11.4328 12.5788 11.2075C12.8367 10.9822 13.0435 10.7043 13.1851 10.3925C13.3268 10.0806 13.4 9.7421 13.4 9.39961V6.39961C13.4 5.84761 12.952 5.39961 12.4 5.39961H10.6968C10.8888 5.68601 11 6.02921 11 6.39961V10.1996Z" fill="white"/>
</svg>
