<svg width="14" height="14" viewBox="0 0 14 14" fill="none" xmlns="http://www.w3.org/2000/svg">
<path d="M9.0001 2.59961C9.0001 3.13004 8.78938 3.63875 8.41431 4.01382C8.03924 4.3889 7.53053 4.59961 7.0001 4.59961C6.46966 4.59961 5.96096 4.3889 5.58588 4.01382C5.21081 3.63875 5.0001 3.13004 5.0001 2.59961C5.0001 2.06918 5.21081 1.56047 5.58588 1.1854C5.96096 0.810323 6.46966 0.599609 7.0001 0.599609C7.53053 0.599609 8.03924 0.810323 8.41431 1.1854C8.78938 1.56047 9.0001 2.06918 9.0001 2.59961ZM13.0001 2.99961C13.0001 3.42396 12.8315 3.83092 12.5315 4.13098C12.2314 4.43104 11.8244 4.59961 11.4001 4.59961C10.9758 4.59961 10.5688 4.43104 10.2687 4.13098C9.96867 3.83092 9.8001 3.42396 9.8001 2.99961C9.8001 2.57526 9.96867 2.1683 10.2687 1.86824C10.5688 1.56818 10.9758 1.39961 11.4001 1.39961C11.8244 1.39961 12.2314 1.56818 12.5315 1.86824C12.8315 2.1683 13.0001 2.57526 13.0001 2.99961ZM2.6001 4.59961C3.02444 4.59961 3.43141 4.43104 3.73147 4.13098C4.03153 3.83092 4.2001 3.42396 4.2001 2.99961C4.2001 2.57526 4.03153 2.1683 3.73147 1.86824C3.43141 1.56818 3.02444 1.39961 2.6001 1.39961C2.17575 1.39961 1.76878 1.56818 1.46873 1.86824C1.16867 2.1683 1.0001 2.57526 1.0001 2.99961C1.0001 3.42396 1.16867 3.83092 1.46873 4.13098C1.76878 4.43104 2.17575 4.59961 2.6001 4.59961ZM3.8001 6.39961C3.8001 5.84761 4.2481 5.39961 4.8001 5.39961H9.2001C9.7521 5.39961 10.2001 5.84761 10.2001 6.39961V10.1996C10.2001 11.0483 9.86296 11.8622 9.26284 12.4624C8.66272 13.0625 7.84879 13.3996 7.0001 13.3996C6.1514 13.3996 5.33747 13.0625 4.73736 12.4624C4.13724 11.8622 3.8001 11.0483 3.8001 10.1996V6.39961ZM3.0001 6.39961C3.0001 6.02921 3.1121 5.68601 3.3033 5.39961H1.6001C1.0481 5.39961 0.600098 5.84761 0.600098 6.39961V9.39961C0.60006 9.7421 0.673329 10.0806 0.814979 10.3925C0.956629 10.7043 1.16338 10.9822 1.42134 11.2075C1.6793 11.4328 1.9825 11.6003 2.31055 11.6987C2.63861 11.7971 2.98392 11.8241 3.3233 11.778C3.10926 11.2794 2.99928 10.7423 3.0001 10.1996V6.39961ZM11.0001 10.1996C11.0001 10.7596 10.8849 11.294 10.6769 11.778C11.0163 11.8241 11.3616 11.7971 11.6896 11.6987C12.0177 11.6003 12.3209 11.4328 12.5789 11.2075C12.8368 10.9822 13.0436 10.7043 13.1852 10.3925C13.3269 10.0806 13.4001 9.7421 13.4001 9.39961V6.39961C13.4001 5.84761 12.9521 5.39961 12.4001 5.39961H10.6969C10.8889 5.68601 11.0001 6.02921 11.0001 6.39961V10.1996Z" fill="url(#paint0_linear_12533_55721)"/>
<defs>
<linearGradient id="paint0_linear_12533_55721" x1="0.600098" y1="0.599609" x2="13.8637" y2="1.24207" gradientUnits="userSpaceOnUse">
<stop stop-color="#0C50FF"/>
<stop offset="0.505208" stop-color="#619BFE"/>
<stop offset="1" stop-color="#FF74F1"/>
</linearGradient>
</defs>
</svg>
