<svg width="55" height="46" viewBox="0 0 55 46" fill="none" xmlns="http://www.w3.org/2000/svg">
<path d="M20.3276 28.4421C20.3095 28.32 20.2669 28.2029 20.2024 28.0978C20.1377 27.9923 20.0523 27.9011 19.9514 27.8296C19.8504 27.7581 19.736 27.7078 19.6151 27.6817C19.4955 27.656 19.3719 27.6545 19.2518 27.6773L2.43464 30.279L2.43464 30.279L2.43362 30.2791L0.968402 30.5136L0.8 30.5405V30.7111V36.1617V36.3048L0.935446 36.351L26.8522 45.1892L26.9087 45.2084L26.9665 45.1936L54.3602 38.1605L54.5105 38.122V37.9668V32.0122V31.8557L54.3586 31.8181L52.8934 31.4547L52.8934 31.4546L52.8885 31.4535L35.4344 27.5879C35.3132 27.5468 35.185 27.531 35.0574 27.5414C34.9255 27.5521 34.7974 27.5905 34.6814 27.6543C34.5655 27.718 34.4643 27.8055 34.3846 27.9111C34.3048 28.0166 34.2483 28.1379 34.2187 28.2668C34.1891 28.3958 34.1871 28.5295 34.2128 28.6593C34.2386 28.7891 34.2915 28.912 34.368 29.0199C34.4446 29.1278 34.5431 29.2182 34.6571 29.2854C34.7678 29.3506 34.8906 29.3923 35.018 29.4081L49.555 32.6681L27.145 38.3101L5.79221 31.7106L19.5502 29.5022C19.5505 29.5022 19.5508 29.5021 19.5512 29.5021C19.6717 29.4838 19.7875 29.4419 19.8918 29.3787C19.9964 29.3154 20.0875 29.2321 20.1597 29.1334C20.232 29.0348 20.284 28.9228 20.3128 28.8039C20.3415 28.6855 20.3465 28.5625 20.3276 28.4421ZM20.3276 28.4421C20.3277 28.4424 20.3277 28.4428 20.3278 28.4431L20.1299 28.4722L20.3274 28.441C20.3275 28.4413 20.3275 28.4417 20.3276 28.4421ZM2.66522 35.0221V32.6361L27.0211 40.2676L27.0751 40.2845L27.13 40.2706L52.6669 33.7935L52.6463 36.7678L26.9836 43.291L2.66522 35.0221Z" fill="url(#paint0_linear_255_162)" stroke="url(#paint1_linear_255_162)" stroke-width="0.4"/>
<path d="M27.6555 34.5801L22.9668 26.9609L27.6555 28.1331L32.3442 26.9609L27.6555 34.5801Z" fill="url(#paint2_linear_255_162)"/>
<path fill-rule="evenodd" clip-rule="evenodd" d="M28.8586 2.6608C29.1106 2.57693 29.3782 2.55122 29.6415 2.58559C29.9048 2.61996 30.1569 2.71352 30.3789 2.85924C30.6009 3.00497 30.787 3.19907 30.9232 3.427C31.0594 3.65492 31.1423 3.91073 31.1655 4.17525L31.1725 4.32997V10.7605L35.6197 11.6514C35.9904 11.7252 36.3273 11.9165 36.5807 12.1969C36.834 12.4773 36.9903 12.8318 37.0264 13.208L37.0334 13.3745V22.2713H38.2056C38.5043 22.2716 38.7917 22.386 39.0089 22.5911C39.2262 22.7962 39.3569 23.0765 39.3744 23.3748C39.3919 23.673 39.2949 23.9667 39.1031 24.1958C38.9114 24.4249 38.6394 24.5721 38.3427 24.6074L38.2056 24.6156H17.1064C16.8077 24.6153 16.5203 24.5009 16.3031 24.2958C16.0858 24.0907 15.9551 23.8104 15.9376 23.5121C15.9201 23.2139 16.0171 22.9202 16.2088 22.6911C16.4006 22.462 16.6726 22.3148 16.9693 22.2795L17.1064 22.2713H18.2786V7.45499C18.2786 6.75169 18.6959 6.1234 19.3312 5.84442L19.4812 5.78699L28.8586 2.6608ZM28.8282 5.14346L20.6229 7.87815V22.2713H28.8282V5.14346ZM31.1725 13.1529V22.2713H34.689V13.8551L31.1725 13.1529Z" fill="url(#paint3_linear_255_162)"/>
<defs>
<linearGradient id="paint0_linear_255_162" x1="-2.16695" y1="33.9605" x2="84.6033" y2="4.52772" gradientUnits="userSpaceOnUse">
<stop stop-color="#0C50FF"/>
<stop offset="0.505208" stop-color="#619BFE"/>
<stop offset="1" stop-color="#FF74F1"/>
</linearGradient>
<linearGradient id="paint1_linear_255_162" x1="-2.16695" y1="33.9605" x2="84.6033" y2="4.52772" gradientUnits="userSpaceOnUse">
<stop stop-color="#0C50FF"/>
<stop offset="0.505208" stop-color="#619BFE"/>
<stop offset="1" stop-color="#FF74F1"/>
</linearGradient>
<linearGradient id="paint2_linear_255_162" x1="22.4097" y1="29.7074" x2="39.1235" y2="27.4481" gradientUnits="userSpaceOnUse">
<stop stop-color="#0C50FF"/>
<stop offset="0.505208" stop-color="#619BFE"/>
<stop offset="1" stop-color="#FF74F1"/>
</linearGradient>
<linearGradient id="paint3_linear_255_162" x1="14.543" y1="10.5172" x2="56.5138" y2="5.61558" gradientUnits="userSpaceOnUse">
<stop stop-color="#0C50FF"/>
<stop offset="0.505208" stop-color="#619BFE"/>
<stop offset="1" stop-color="#FF74F1"/>
</linearGradient>
</defs>
</svg>
