 <svg
                        xmlns="http://www.w3.org/2000/svg"
                        width="38"
                        height="38"
                        viewBox="0 0 38 38"
                        fill="none"
                      >
                        <path
                          d="M19.7951 37.9369C18.733 37.9401 17.7139 37.518 16.9651 36.7649L1.29709 21.0949C0.470263 20.2704 0.0463057 19.125 0.137085 17.9609L1.13709 4.82888C1.27968 2.85365 2.85348 1.28412 4.82909 1.14688L17.9611 0.146878C18.0631 0.124878 18.1671 0.124878 18.2691 0.124878C19.3288 0.127598 20.3445 0.548836 21.0951 1.29688L36.7651 16.9649C37.5156 17.7151 37.9372 18.7327 37.9372 19.7939C37.9372 20.855 37.5156 21.8727 36.7651 22.6229L22.6231 36.7649C21.8747 37.5175 20.8564 37.9395 19.7951 37.9369ZM18.2671 4.12488L5.12509 5.12488L4.12509 18.2669L19.7951 33.9369L33.9351 19.7969L18.2671 4.12488ZM11.3091 15.3089C9.40076 15.3093 7.75791 13.9616 7.38524 12.09C7.01258 10.2184 8.0139 8.34424 9.77682 7.61364C11.5397 6.88304 13.5733 7.49951 14.6337 9.08604C15.6942 10.6726 15.4863 12.7873 14.1371 14.1369C13.3887 14.8895 12.3704 15.3115 11.3091 15.3089Z"
                          fill="#00000E"
                        />
                      </svg>