<svg width="36" height="36" viewBox="0 0 36 36" fill="none" xmlns="http://www.w3.org/2000/svg">
<circle cx="18" cy="18" r="17.5" fill="#0D00FF" fill-opacity="0.5" stroke="white"/>
<g clip-path="url(#clip0_13204_63904)">
<path d="M22.2734 20.6719C21.2315 20.6719 20.3058 21.1782 19.7289 21.9576L14.7624 19.4195C14.8457 19.1364 14.8906 18.837 14.8906 18.5273C14.8906 18.1079 14.8084 17.7074 14.6595 17.3407L19.8647 14.2133C20.4455 14.895 21.3098 15.3281 22.2734 15.3281C24.0181 15.3281 25.4375 13.9087 25.4375 12.1641C25.4375 10.4194 24.0181 9 22.2734 9C20.5288 9 19.1094 10.4194 19.1094 12.1641C19.1094 12.5673 19.1853 12.9531 19.3235 13.308L14.1052 16.4433C13.5249 15.7817 12.6737 15.3633 11.7266 15.3633C9.9819 15.3633 8.5625 16.7827 8.5625 18.5273C8.5625 20.272 9.9819 21.6914 11.7266 21.6914C12.7855 21.6914 13.7246 21.1684 14.2992 20.3672L19.2513 22.8979C19.1591 23.1944 19.1094 23.5095 19.1094 23.8359C19.1094 25.5806 20.5288 27 22.2734 27C24.0181 27 25.4375 25.5806 25.4375 23.8359C25.4375 22.0913 24.0181 20.6719 22.2734 20.6719ZM22.2734 10.0547C23.4365 10.0547 24.3828 11.001 24.3828 12.1641C24.3828 13.3272 23.4365 14.2734 22.2734 14.2734C21.1103 14.2734 20.1641 13.3272 20.1641 12.1641C20.1641 11.001 21.1103 10.0547 22.2734 10.0547ZM11.7266 20.6367C10.5635 20.6367 9.61719 19.6905 9.61719 18.5273C9.61719 17.3642 10.5635 16.418 11.7266 16.418C12.8897 16.418 13.8359 17.3642 13.8359 18.5273C13.8359 19.6905 12.8897 20.6367 11.7266 20.6367ZM22.2734 25.9453C21.1103 25.9453 20.1641 24.999 20.1641 23.8359C20.1641 22.6728 21.1103 21.7266 22.2734 21.7266C23.4365 21.7266 24.3828 22.6728 24.3828 23.8359C24.3828 24.999 23.4365 25.9453 22.2734 25.9453Z" fill="white"/>
</g>
<defs>
<clipPath id="clip0_13204_63904">
<rect width="18" height="18" fill="white" transform="translate(8 9)"/>
</clipPath>
</defs>
</svg>
