<svg width="34" height="36" viewBox="0 0 34 36" fill="none" xmlns="http://www.w3.org/2000/svg">
<path d="M27.5469 23.3438C25.4631 23.3438 23.6116 24.3564 22.4578 25.9151L12.5248 20.8389C12.6914 20.2728 12.7812 19.6741 12.7812 19.0547C12.7812 18.2158 12.6168 17.4147 12.319 16.6814L22.7295 10.4266C23.891 11.7899 25.6196 12.6562 27.5469 12.6562C31.0362 12.6562 33.875 9.81745 33.875 6.32812C33.875 2.8388 31.0362 0 27.5469 0C24.0575 0 21.2188 2.8388 21.2188 6.32812C21.2188 7.13461 21.3707 7.90615 21.647 8.61609L11.2105 14.8866C10.0498 13.5634 8.34741 12.7266 6.45312 12.7266C2.9638 12.7266 0.125 15.5654 0.125 19.0547C0.125 22.544 2.9638 25.3828 6.45312 25.3828C8.57108 25.3828 10.4491 24.3368 11.5984 22.7344L21.5026 27.7959C21.3182 28.3889 21.2188 29.019 21.2188 29.6719C21.2188 33.1612 24.0575 36 27.5469 36C31.0362 36 33.875 33.1612 33.875 29.6719C33.875 26.1825 31.0362 23.3438 27.5469 23.3438ZM27.5469 2.10938C29.8731 2.10938 31.7656 4.00191 31.7656 6.32812C31.7656 8.65434 29.8731 10.5469 27.5469 10.5469C25.2207 10.5469 23.3281 8.65434 23.3281 6.32812C23.3281 4.00191 25.2207 2.10938 27.5469 2.10938ZM6.45312 23.2734C4.12691 23.2734 2.23438 21.3809 2.23438 19.0547C2.23438 16.7285 4.12691 14.8359 6.45312 14.8359C8.77934 14.8359 10.6719 16.7285 10.6719 19.0547C10.6719 21.3809 8.77934 23.2734 6.45312 23.2734ZM27.5469 33.8906C25.2207 33.8906 23.3281 31.9981 23.3281 29.6719C23.3281 27.3457 25.2207 25.4531 27.5469 25.4531C29.8731 25.4531 31.7656 27.3457 31.7656 29.6719C31.7656 31.9981 29.8731 33.8906 27.5469 33.8906Z" fill="white"/>
</svg>
