<svg width="22" height="16" viewBox="0 0 22 16" fill="none" xmlns="http://www.w3.org/2000/svg">
<path fillRule="evenodd" clipRule="evenodd" d="M8.4996 8C9.88028 8 11 6.88107 11 5.5004C11 4.94996 10.8222 4.4412 10.521 4.0283C10.6779 4.00961 10.8375 4 10.9994 4C13.2084 4 15 5.79029 15 8.00063C15 10.2097 13.2084 12 10.9994 12C8.79029 12 7 10.2097 7 8.00063C7 7.83847 7.00964 7.67858 7.02837 7.52148C7.44111 7.82243 7.94959 8 8.4996 8Z" fill="#3B5162"/>
<path fillRule="evenodd" clipRule="evenodd" d="M10.998 14.5C14.806 14.5 19.039 12.617 21 8.05298C19.039 3.48898 14.806 1.5 10.998 1.5C7.19 1.5 2.961 3.48898 1 8.05298C2.961 12.617 7.19 14.5 10.998 14.5Z" stroke="#3B5162" strokeWidth="1.5" strokeLinecap="round" strokeLinejoin="round"/>
</svg>
