<svg width="105" height="117" viewBox="0 0 105 117" fill="none" xmlns="http://www.w3.org/2000/svg">
<path d="M52.2459 102.894V117.001L52.0355 116.877L29.272 103.737V89.6309L52.0355 102.771L52.2459 102.894Z" fill="url(#paint0_linear_12461_57521)"/>
<path d="M75.2195 89.6309V103.737L52.2456 117.001V102.894L75.2195 89.6309Z" fill="url(#paint1_linear_12461_57521)"/>
<path d="M29.2717 96.6828V100.207L0 83.3109L3.08211 81.5645L29.2717 96.6828Z" fill="url(#paint2_linear_12461_57521)" fill-opacity="0.85"/>
<path d="M104.491 83.3109L75.2192 100.207V96.6828L101.409 81.5645L104.491 83.3109Z" fill="url(#paint3_linear_12461_57521)" fill-opacity="0.85"/>
<path d="M9.24617 28.4153V39.5667L6.16406 37.7084V26.6055L9.24617 28.4153Z" fill="url(#paint4_linear_12461_57521)" fill-opacity="0.85"/>
<path d="M98.3267 26.627V37.5796L95.2446 39.4379V28.4452L98.3267 26.627Z" fill="url(#paint5_linear_12461_57521)" fill-opacity="0.85"/>
<path d="M52.2454 7.18164V10.7713L15.412 32.0406L12.3282 30.2273L52.2454 7.18164Z" fill="url(#paint6_linear_12461_57521)"/>
<path d="M92.1611 30.2273V30.2624L89.079 32.0806V32.0406L52.2456 10.7713V7.18164L92.1611 30.2273Z" fill="url(#paint7_linear_12461_57521)"/>
<path d="M98.327 26.6053V26.627L95.2449 28.4452V28.4152L52.2456 3.59134V0L98.327 26.6053Z" fill="url(#paint8_linear_12461_57521)" fill-opacity="0.85"/>
<path d="M52.2455 0V3.59134L9.24617 28.4152L6.16406 26.6053L52.2455 0Z" fill="url(#paint9_linear_12461_57521)" fill-opacity="0.85"/>
<path d="M104.491 40.2461V83.3105L101.409 81.5641L98.3273 79.8176L95.2452 78.0662L92.1614 76.3198V47.6842L104.491 40.2461Z" fill="url(#paint10_linear_12461_57521)"/>
<path d="M12.3284 47.812V76.319L9.24633 78.0654L6.16422 79.8169L3.08211 81.5633L0 83.3097V40.3672L3.08211 42.2271L6.16422 44.0921L12.3284 47.812Z" fill="url(#paint11_linear_12461_57521)"/>
<path d="M12.3287 30.2281V41.4262L9.24658 39.5663V28.4199L12.3287 30.2281Z" fill="#51FF77" fill-opacity="0.68"/>
<path d="M12.3287 30.2281V41.4262L9.24658 39.5663V28.4199L12.3287 30.2281Z" fill="url(#paint12_linear_12461_57521)"/>
<path d="M12.3287 30.2281V41.4262L9.24658 39.5663V28.4199L12.3287 30.2281Z" fill="white" fill-opacity="0.4"/>
<path d="M95.2452 28.4453V39.4381L92.1614 41.298V30.2635L95.2452 28.4453Z" fill="#51FF77" fill-opacity="0.68"/>
<path d="M95.2452 28.4453V39.4381L92.1614 41.298V30.2635L95.2452 28.4453Z" fill="url(#paint13_linear_12461_57521)"/>
<path d="M95.2452 28.4453V39.4381L92.1614 41.298V30.2635L95.2452 28.4453Z" fill="white" fill-opacity="0.4"/>
<path d="M15.4119 49.6729V74.5735L12.3298 76.3199V47.8163L15.4119 49.6729ZM12.3298 30.2285V41.4283L15.4119 43.2866V32.0417L12.3298 30.2285Z" fill="url(#paint14_linear_12461_57521)"/>
<path d="M15.4122 43.2875V49.6738L12.3284 47.8138L6.16422 44.0939L3.08211 42.2289L0 40.369V33.9844L3.08211 35.8443L6.16422 37.7093L15.4122 43.2875Z" fill="url(#paint15_linear_12461_57521)"/>
<path d="M104.491 33.8555V40.2468L92.1611 47.6849L89.079 49.5448V43.1586L98.327 37.5804L101.409 35.7154L104.491 33.8555Z" fill="url(#paint16_linear_12461_57521)"/>
<path d="M101.409 81.5646L75.2192 96.6829V86.1009L92.1608 76.3203L95.2446 78.0667L98.3267 79.8181L101.409 81.5646Z" fill="url(#paint17_linear_12461_57521)"/>
<path d="M29.272 86.1009V96.6829L3.0824 81.5646L6.16451 79.8181L9.24662 78.0667L12.3287 76.3203L29.272 86.1009Z" fill="url(#paint18_linear_12461_57521)"/>
<path d="M92.1611 47.6833V76.3189L89.079 74.5725V49.5433L92.1611 47.6833ZM89.079 32.0824V43.157L92.1611 41.3037V30.2676L89.079 32.0824Z" fill="url(#paint19_linear_12461_57521)"/>
<path d="M92.1611 76.3204L75.2195 86.101L52.2456 99.3644V95.8415L75.2195 82.5764L89.079 74.5723L92.1611 76.3204Z" fill="#51FF77" fill-opacity="0.68"/>
<path d="M92.1611 76.3204L75.2195 86.101L52.2456 99.3644V95.8415L75.2195 82.5764L89.079 74.5723L92.1611 76.3204Z" fill="url(#paint20_linear_12461_57521)"/>
<path d="M92.1611 76.3204L75.2195 86.101L52.2456 99.3644V95.8415L75.2195 82.5764L89.079 74.5723L92.1611 76.3204Z" fill="white" fill-opacity="0.4"/>
<path d="M75.2195 86.1016V89.6311L52.2456 102.895V99.365L75.2195 86.1016Z" fill="url(#paint21_linear_12461_57521)" fill-opacity="0.85"/>
<path d="M52.2459 99.365V102.895L52.0355 102.771L29.272 89.6311V86.1016L52.0355 99.2431L52.2459 99.365Z" fill="url(#paint22_linear_12461_57521)" fill-opacity="0.85"/>
<path d="M89.079 32.0407V74.5708L75.2195 82.575L52.2456 95.8401L29.2717 82.575L15.4122 74.5708V32.0407L52.2456 10.7715L89.079 32.0407Z" fill="url(#paint23_linear_12461_57521)"/>
<path d="M52.2454 95.8415V99.3644L52.035 99.2425L29.2715 86.101L12.3282 76.3204L15.412 74.5723L29.2715 82.5764L52.2454 95.8415Z" fill="#51FF77" fill-opacity="0.68"/>
<path d="M52.2454 95.8415V99.3644L52.035 99.2425L29.2715 86.101L12.3282 76.3204L15.412 74.5723L29.2715 82.5764L52.2454 95.8415Z" fill="url(#paint24_linear_12461_57521)"/>
<path d="M52.2454 95.8415V99.3644L52.035 99.2425L29.2715 86.101L12.3282 76.3204L15.412 74.5723L29.2715 82.5764L52.2454 95.8415Z" fill="white" fill-opacity="0.4"/>
<path d="M95.2449 28.4156V28.4457L92.1611 30.2639V30.2288L52.2456 7.18314V3.5918L95.2449 28.4156Z" fill="#51FF77" fill-opacity="0.68"/>
<path d="M95.2449 28.4156V28.4457L92.1611 30.2639V30.2288L52.2456 7.18314V3.5918L95.2449 28.4156Z" fill="url(#paint25_linear_12461_57521)"/>
<path d="M95.2449 28.4156V28.4457L92.1611 30.2639V30.2288L52.2456 7.18314V3.5918L95.2449 28.4156Z" fill="white" fill-opacity="0.4"/>
<path d="M52.2459 3.5918V7.18314L12.3287 30.2288L9.24658 28.4207V28.4156L52.2459 3.5918Z" fill="#51FF77" fill-opacity="0.68"/>
<path d="M52.2459 3.5918V7.18314L12.3287 30.2288L9.24658 28.4207V28.4156L52.2459 3.5918Z" fill="url(#paint26_linear_12461_57521)"/>
<path d="M52.2459 3.5918V7.18314L12.3287 30.2288L9.24658 28.4207V28.4156L52.2459 3.5918Z" fill="white" fill-opacity="0.4"/>
<g opacity="0.8">
<path d="M46.1407 67.2018L37.3026 54.8438L44.453 57.3603L46.1407 67.2018Z" fill="url(#paint27_linear_12461_57521)"/>
<path d="M51.5155 50.3895L37.2672 54.7672L41.6321 48.9531L51.5155 50.3895Z" fill="url(#paint28_linear_12461_57521)"/>
<path d="M37.2669 54.7963L37.2099 54.8115L23 50.3895L32.8822 48.9531L37.2669 54.7963Z" fill="url(#paint29_linear_12461_57521)"/>
<path d="M37.3023 40V54.7861L37.2674 54.7989L32.8827 48.9557L37.3023 40Z" fill="url(#paint30_linear_12461_57521)"/>
<path d="M37.3024 54.8438L28.4642 67.2018L30.152 57.3603L37.3024 54.8438Z" fill="url(#paint31_linear_12461_57521)"/>
<path d="M37.3024 54.8438V62.5575L28.4642 67.2018L37.3024 54.8438Z" fill="url(#paint32_linear_12461_57521)"/>
<path d="M51.6045 50.3926L44.453 57.3602L37.3026 54.8436L37.3562 54.7703L51.6045 50.3926Z" fill="url(#paint33_linear_12461_57521)"/>
<path d="M41.7211 48.9557L37.3562 54.7698L37.3026 54.7861V40L41.7211 48.9557Z" fill="url(#paint34_linear_12461_57521)"/>
<path d="M37.3019 54.8436L30.1515 57.3602L23 50.3926L37.2099 54.8145L37.3019 54.8436Z" fill="url(#paint35_linear_12461_57521)"/>
<path d="M46.1407 67.2018L37.3026 62.5575V54.8438L46.1407 67.2018Z" fill="url(#paint36_linear_12461_57521)"/>
</g>
<g opacity="0.8">
<path d="M78.1407 67.2018L69.3026 54.8438L76.453 57.3603L78.1407 67.2018Z" fill="url(#paint37_linear_12461_57521)"/>
<path d="M83.5155 50.3895L69.2672 54.7672L73.6321 48.9531L83.5155 50.3895Z" fill="url(#paint38_linear_12461_57521)"/>
<path d="M69.2669 54.7963L69.2099 54.8115L55 50.3895L64.8822 48.9531L69.2669 54.7963Z" fill="url(#paint39_linear_12461_57521)"/>
<path d="M69.3023 40V54.7861L69.2674 54.7989L64.8827 48.9557L69.3023 40Z" fill="url(#paint40_linear_12461_57521)"/>
<path d="M69.3024 54.8438L60.4642 67.2018L62.152 57.3603L69.3024 54.8438Z" fill="url(#paint41_linear_12461_57521)"/>
<path d="M69.3024 54.8438V62.5575L60.4642 67.2018L69.3024 54.8438Z" fill="url(#paint42_linear_12461_57521)"/>
<path d="M83.6045 50.3926L76.453 57.3602L69.3026 54.8436L69.3562 54.7703L83.6045 50.3926Z" fill="url(#paint43_linear_12461_57521)"/>
<path d="M73.7211 48.9557L69.3562 54.7698L69.3026 54.7861V40L73.7211 48.9557Z" fill="url(#paint44_linear_12461_57521)"/>
<path d="M69.3019 54.8436L62.1515 57.3602L55 50.3926L69.2099 54.8145L69.3019 54.8436Z" fill="url(#paint45_linear_12461_57521)"/>
<path d="M78.1407 67.2018L69.3026 62.5575V54.8438L78.1407 67.2018Z" fill="url(#paint46_linear_12461_57521)"/>
</g>
<path d="M62.7427 71.4358L52.5289 57.1543L60.7922 60.0625L62.7427 71.4358Z" fill="url(#paint47_linear_12461_57521)"/>
<path d="M68.9543 52.0056L52.4883 57.0647L57.5326 50.3457L68.9543 52.0056Z" fill="url(#paint48_linear_12461_57521)"/>
<path d="M52.4875 57.0984L52.4216 57.1159L36 52.0056L47.4204 50.3457L52.4875 57.0984Z" fill="url(#paint49_linear_12461_57521)"/>
<path d="M52.5286 40V57.0875L52.4882 57.1023L47.421 50.3496L52.5286 40Z" fill="url(#paint50_linear_12461_57521)"/>
<path d="M52.5292 57.1543L42.3154 71.4358L44.2659 60.0625L52.5292 57.1543Z" fill="url(#paint51_linear_12461_57521)"/>
<path d="M52.5292 57.1543V66.0686L42.3154 71.4358L52.5292 57.1543Z" fill="url(#paint52_linear_12461_57521)"/>
<path d="M69.0568 52.0098L60.7922 60.0618L52.5289 57.1536L52.5908 57.0689L69.0568 52.0098Z" fill="url(#paint53_linear_12461_57521)"/>
<path d="M57.6351 50.3496L52.5908 57.0686L52.5289 57.0875V40L57.6351 50.3496Z" fill="url(#paint54_linear_12461_57521)"/>
<path d="M52.5279 57.1536L44.2646 60.0618L36 52.0098L52.4216 57.12L52.5279 57.1536Z" fill="url(#paint55_linear_12461_57521)"/>
<path d="M62.7427 71.4358L52.5289 66.0686V57.1543L62.7427 71.4358Z" fill="url(#paint56_linear_12461_57521)"/>
<defs>
<linearGradient id="paint0_linear_12461_57521" x1="17.5005" y1="98.5" x2="49.3213" y2="132.131" gradientUnits="userSpaceOnUse">
<stop stop-color="#06FDFB"/>
<stop offset="0.319806" stop-color="#78A8F9"/>
<stop offset="1" stop-color="#810BB8"/>
</linearGradient>
<linearGradient id="paint1_linear_12461_57521" x1="81.9995" y1="96" x2="24.3939" y2="109.564" gradientUnits="userSpaceOnUse">
<stop stop-color="#06FDFB"/>
<stop offset="0.319806" stop-color="#78A8F9"/>
<stop offset="1" stop-color="#810BB8"/>
</linearGradient>
<linearGradient id="paint2_linear_12461_57521" x1="14.6257" y1="100.207" x2="8.12808" y2="84.2023" gradientUnits="userSpaceOnUse">
<stop stop-color="#2C21FA"/>
<stop offset="1" stop-color="#00004D"/>
</linearGradient>
<linearGradient id="paint3_linear_12461_57521" x1="89.8449" y1="100.207" x2="83.3473" y2="84.2023" gradientUnits="userSpaceOnUse">
<stop stop-color="#2C21FA"/>
<stop offset="1" stop-color="#00004D"/>
</linearGradient>
<linearGradient id="paint4_linear_12461_57521" x1="7.70405" y1="39.5667" x2="3.45951" y2="37.9832" gradientUnits="userSpaceOnUse">
<stop stop-color="#2C21FA"/>
<stop offset="1" stop-color="#00004D"/>
</linearGradient>
<linearGradient id="paint5_linear_12461_57521" x1="96.7846" y1="39.4379" x2="92.5523" y2="37.8405" gradientUnits="userSpaceOnUse">
<stop stop-color="#2C21FA"/>
<stop offset="1" stop-color="#00004D"/>
</linearGradient>
<linearGradient id="paint6_linear_12461_57521" x1="14.0828" y1="7.18164" x2="54.4112" y2="13.8841" gradientUnits="userSpaceOnUse">
<stop stop-color="#5C4EFF"/>
<stop offset="1" stop-color="#3076FF"/>
</linearGradient>
<linearGradient id="paint7_linear_12461_57521" x1="54.0001" y1="7.18164" x2="94.3303" y2="13.8733" gradientUnits="userSpaceOnUse">
<stop stop-color="#5C4EFF"/>
<stop offset="1" stop-color="#3076FF"/>
</linearGradient>
<linearGradient id="paint8_linear_12461_57521" x1="75.2703" y1="28.4452" x2="65.5784" y2="3.81348" gradientUnits="userSpaceOnUse">
<stop stop-color="#2C21FA"/>
<stop offset="1" stop-color="#00004D"/>
</linearGradient>
<linearGradient id="paint9_linear_12461_57521" x1="29.1887" y1="28.4152" x2="19.5146" y2="3.80248" gradientUnits="userSpaceOnUse">
<stop stop-color="#2C21FA"/>
<stop offset="1" stop-color="#00004D"/>
</linearGradient>
<linearGradient id="paint10_linear_12461_57521" x1="144.499" y1="82" x2="143.267" y2="13.4628" gradientUnits="userSpaceOnUse">
<stop stop-color="#06FDFB"/>
<stop offset="0.319806" stop-color="#78A8F9"/>
<stop offset="1" stop-color="#810BB8"/>
</linearGradient>
<linearGradient id="paint11_linear_12461_57521" x1="-11.5" y1="98" x2="23.9165" y2="104.416" gradientUnits="userSpaceOnUse">
<stop stop-color="#06FDFB"/>
<stop offset="0.319806" stop-color="#78A8F9"/>
<stop offset="1" stop-color="#810BB8"/>
</linearGradient>
<linearGradient id="paint12_linear_12461_57521" x1="12.2586" y1="28.8082" x2="8.65985" y2="29.2914" gradientUnits="userSpaceOnUse">
<stop offset="0.109375" stop-color="white" stop-opacity="0"/>
<stop offset="0.483996" stop-color="#3EF3FF"/>
<stop offset="0.911458" stop-color="white" stop-opacity="0"/>
</linearGradient>
<linearGradient id="paint13_linear_12461_57521" x1="95.1751" y1="28.829" x2="91.5759" y2="29.3183" gradientUnits="userSpaceOnUse">
<stop offset="0.109375" stop-color="white" stop-opacity="0"/>
<stop offset="0.483996" stop-color="#3EF3FF"/>
<stop offset="0.911458" stop-color="white" stop-opacity="0"/>
</linearGradient>
<linearGradient id="paint14_linear_12461_57521" x1="12.4653" y1="30.2285" x2="15.665" y2="30.2507" gradientUnits="userSpaceOnUse">
<stop stop-color="#5C4EFF"/>
<stop offset="1" stop-color="#3076FF"/>
</linearGradient>
<linearGradient id="paint15_linear_12461_57521" x1="0.67746" y1="33.9844" x2="16.5148" y2="35.5946" gradientUnits="userSpaceOnUse">
<stop stop-color="#5C4EFF"/>
<stop offset="1" stop-color="#3076FF"/>
</linearGradient>
<linearGradient id="paint16_linear_12461_57521" x1="89.7564" y1="33.8555" x2="105.594" y2="35.4657" gradientUnits="userSpaceOnUse">
<stop stop-color="#5C4EFF"/>
<stop offset="1" stop-color="#3076FF"/>
</linearGradient>
<linearGradient id="paint17_linear_12461_57521" x1="76.3704" y1="76.3203" x2="103.087" y2="79.8768" gradientUnits="userSpaceOnUse">
<stop stop-color="#5C4EFF"/>
<stop offset="1" stop-color="#3076FF"/>
</linearGradient>
<linearGradient id="paint18_linear_12461_57521" x1="4.23359" y1="76.3203" x2="30.9503" y2="79.8768" gradientUnits="userSpaceOnUse">
<stop stop-color="#5C4EFF"/>
<stop offset="1" stop-color="#3076FF"/>
</linearGradient>
<linearGradient id="paint19_linear_12461_57521" x1="89.2145" y1="30.2676" x2="92.4142" y2="30.2897" gradientUnits="userSpaceOnUse">
<stop stop-color="#5C4EFF"/>
<stop offset="1" stop-color="#3076FF"/>
</linearGradient>
<linearGradient id="paint20_linear_12461_57521" x1="91.2539" y1="75.3123" x2="65.357" y2="98.9361" gradientUnits="userSpaceOnUse">
<stop offset="0.109375" stop-color="white" stop-opacity="0"/>
<stop offset="0.483996" stop-color="#3EF3FF"/>
<stop offset="0.911458" stop-color="white" stop-opacity="0"/>
</linearGradient>
<linearGradient id="paint21_linear_12461_57521" x1="63.7246" y1="102.895" x2="57.2958" y2="89.0969" gradientUnits="userSpaceOnUse">
<stop stop-color="#2C21FA"/>
<stop offset="1" stop-color="#00004D"/>
</linearGradient>
<linearGradient id="paint22_linear_12461_57521" x1="40.7509" y1="102.895" x2="34.3222" y2="89.0969" gradientUnits="userSpaceOnUse">
<stop stop-color="#2C21FA"/>
<stop offset="1" stop-color="#00004D"/>
</linearGradient>
<linearGradient id="paint23_linear_12461_57521" x1="15.4122" y1="53.3053" x2="89.079" y2="53.3053" gradientUnits="userSpaceOnUse">
<stop stop-color="#080527"/>
<stop offset="1" stop-color="#00479A"/>
</linearGradient>
<linearGradient id="paint24_linear_12461_57521" x1="51.3382" y1="75.3123" x2="25.4412" y2="98.9372" gradientUnits="userSpaceOnUse">
<stop offset="0.109375" stop-color="white" stop-opacity="0"/>
<stop offset="0.483996" stop-color="#3EF3FF"/>
<stop offset="0.911458" stop-color="white" stop-opacity="0"/>
</linearGradient>
<linearGradient id="paint25_linear_12461_57521" x1="94.2676" y1="4.38798" x2="66.4036" y2="29.84" gradientUnits="userSpaceOnUse">
<stop offset="0.109375" stop-color="white" stop-opacity="0"/>
<stop offset="0.483996" stop-color="#3EF3FF"/>
<stop offset="0.911458" stop-color="white" stop-opacity="0"/>
</linearGradient>
<linearGradient id="paint26_linear_12461_57521" x1="51.2686" y1="4.38694" x2="23.4379" y2="29.8419" gradientUnits="userSpaceOnUse">
<stop offset="0.109375" stop-color="white" stop-opacity="0"/>
<stop offset="0.483996" stop-color="#3EF3FF"/>
<stop offset="0.911458" stop-color="white" stop-opacity="0"/>
</linearGradient>
<linearGradient id="paint27_linear_12461_57521" x1="39.0297" y1="66.4508" x2="55.9276" y2="60.9112" gradientUnits="userSpaceOnUse">
<stop stop-color="#06FDFB"/>
<stop offset="0.319806" stop-color="#78A8F9"/>
<stop offset="1" stop-color="#810BB8"/>
</linearGradient>
<linearGradient id="paint28_linear_12461_57521" x1="40.0515" y1="54.4139" x2="53.3898" y2="39.4306" gradientUnits="userSpaceOnUse">
<stop stop-color="#06FDFB"/>
<stop offset="0.319806" stop-color="#78A8F9"/>
<stop offset="1" stop-color="#810BB8"/>
</linearGradient>
<linearGradient id="paint29_linear_12461_57521" x1="23.6271" y1="48.9531" x2="37.5543" y2="52.4636" gradientUnits="userSpaceOnUse">
<stop stop-color="#5C4EFF"/>
<stop offset="1" stop-color="#3076FF"/>
</linearGradient>
<linearGradient id="paint30_linear_12461_57521" x1="33.7463" y1="53.8995" x2="42.9324" y2="52.642" gradientUnits="userSpaceOnUse">
<stop stop-color="#06FDFB"/>
<stop offset="0.319806" stop-color="#78A8F9"/>
<stop offset="1" stop-color="#810BB8"/>
</linearGradient>
<linearGradient id="paint31_linear_12461_57521" x1="28.8527" y1="54.8438" x2="37.9785" y2="55.5193" gradientUnits="userSpaceOnUse">
<stop stop-color="#5C4EFF"/>
<stop offset="1" stop-color="#3076FF"/>
</linearGradient>
<linearGradient id="paint32_linear_12461_57521" x1="30.1913" y1="66.4508" x2="47.0893" y2="60.9112" gradientUnits="userSpaceOnUse">
<stop stop-color="#06FDFB"/>
<stop offset="0.319806" stop-color="#78A8F9"/>
<stop offset="1" stop-color="#810BB8"/>
</linearGradient>
<linearGradient id="paint33_linear_12461_57521" x1="37.9313" y1="50.3926" x2="52.1383" y2="53.4108" gradientUnits="userSpaceOnUse">
<stop stop-color="#5C4EFF"/>
<stop offset="1" stop-color="#3076FF"/>
</linearGradient>
<linearGradient id="paint34_linear_12461_57521" x1="37.4968" y1="40" x2="42.0797" y2="40.1417" gradientUnits="userSpaceOnUse">
<stop stop-color="#5C4EFF"/>
<stop offset="1" stop-color="#3076FF"/>
</linearGradient>
<linearGradient id="paint35_linear_12461_57521" x1="25.7948" y1="56.9368" x2="41.8577" y2="41.8234" gradientUnits="userSpaceOnUse">
<stop stop-color="#06FDFB"/>
<stop offset="0.319806" stop-color="#78A8F9"/>
<stop offset="1" stop-color="#810BB8"/>
</linearGradient>
<linearGradient id="paint36_linear_12461_57521" x1="37.6911" y1="54.8438" x2="46.8169" y2="55.5193" gradientUnits="userSpaceOnUse">
<stop stop-color="#5C4EFF"/>
<stop offset="1" stop-color="#3076FF"/>
</linearGradient>
<linearGradient id="paint37_linear_12461_57521" x1="71.0297" y1="66.4508" x2="87.9276" y2="60.9112" gradientUnits="userSpaceOnUse">
<stop stop-color="#06FDFB"/>
<stop offset="0.319806" stop-color="#78A8F9"/>
<stop offset="1" stop-color="#810BB8"/>
</linearGradient>
<linearGradient id="paint38_linear_12461_57521" x1="72.0515" y1="54.4139" x2="85.3898" y2="39.4306" gradientUnits="userSpaceOnUse">
<stop stop-color="#06FDFB"/>
<stop offset="0.319806" stop-color="#78A8F9"/>
<stop offset="1" stop-color="#810BB8"/>
</linearGradient>
<linearGradient id="paint39_linear_12461_57521" x1="55.6271" y1="48.9531" x2="69.5543" y2="52.4636" gradientUnits="userSpaceOnUse">
<stop stop-color="#5C4EFF"/>
<stop offset="1" stop-color="#3076FF"/>
</linearGradient>
<linearGradient id="paint40_linear_12461_57521" x1="65.7463" y1="53.8995" x2="74.9324" y2="52.642" gradientUnits="userSpaceOnUse">
<stop stop-color="#06FDFB"/>
<stop offset="0.319806" stop-color="#78A8F9"/>
<stop offset="1" stop-color="#810BB8"/>
</linearGradient>
<linearGradient id="paint41_linear_12461_57521" x1="60.8527" y1="54.8438" x2="69.9785" y2="55.5193" gradientUnits="userSpaceOnUse">
<stop stop-color="#5C4EFF"/>
<stop offset="1" stop-color="#3076FF"/>
</linearGradient>
<linearGradient id="paint42_linear_12461_57521" x1="62.1913" y1="66.4508" x2="79.0893" y2="60.9112" gradientUnits="userSpaceOnUse">
<stop stop-color="#06FDFB"/>
<stop offset="0.319806" stop-color="#78A8F9"/>
<stop offset="1" stop-color="#810BB8"/>
</linearGradient>
<linearGradient id="paint43_linear_12461_57521" x1="69.9313" y1="50.3926" x2="84.1383" y2="53.4108" gradientUnits="userSpaceOnUse">
<stop stop-color="#5C4EFF"/>
<stop offset="1" stop-color="#3076FF"/>
</linearGradient>
<linearGradient id="paint44_linear_12461_57521" x1="69.4968" y1="40" x2="74.0797" y2="40.1417" gradientUnits="userSpaceOnUse">
<stop stop-color="#5C4EFF"/>
<stop offset="1" stop-color="#3076FF"/>
</linearGradient>
<linearGradient id="paint45_linear_12461_57521" x1="57.7948" y1="56.9368" x2="73.8577" y2="41.8234" gradientUnits="userSpaceOnUse">
<stop stop-color="#06FDFB"/>
<stop offset="0.319806" stop-color="#78A8F9"/>
<stop offset="1" stop-color="#810BB8"/>
</linearGradient>
<linearGradient id="paint46_linear_12461_57521" x1="69.6911" y1="54.8438" x2="78.8169" y2="55.5193" gradientUnits="userSpaceOnUse">
<stop stop-color="#5C4EFF"/>
<stop offset="1" stop-color="#3076FF"/>
</linearGradient>
<linearGradient id="paint47_linear_12461_57521" x1="54.5248" y1="70.5679" x2="74.0529" y2="64.1662" gradientUnits="userSpaceOnUse">
<stop stop-color="#06FDFB"/>
<stop offset="0.319806" stop-color="#78A8F9"/>
<stop offset="1" stop-color="#810BB8"/>
</linearGradient>
<linearGradient id="paint48_linear_12461_57521" x1="55.7059" y1="56.6564" x2="71.1203" y2="39.341" gradientUnits="userSpaceOnUse">
<stop stop-color="#06FDFB"/>
<stop offset="0.319806" stop-color="#78A8F9"/>
<stop offset="1" stop-color="#810BB8"/>
</linearGradient>
<linearGradient id="paint49_linear_12461_57521" x1="36.7247" y1="50.3457" x2="52.8196" y2="54.4026" gradientUnits="userSpaceOnUse">
<stop stop-color="#5C4EFF"/>
<stop offset="1" stop-color="#3076FF"/>
</linearGradient>
<linearGradient id="paint50_linear_12461_57521" x1="48.4191" y1="56.063" x2="59.0349" y2="54.6097" gradientUnits="userSpaceOnUse">
<stop stop-color="#06FDFB"/>
<stop offset="0.319806" stop-color="#78A8F9"/>
<stop offset="1" stop-color="#810BB8"/>
</linearGradient>
<linearGradient id="paint51_linear_12461_57521" x1="42.7644" y1="57.1543" x2="53.3106" y2="57.9349" gradientUnits="userSpaceOnUse">
<stop stop-color="#5C4EFF"/>
<stop offset="1" stop-color="#3076FF"/>
</linearGradient>
<linearGradient id="paint52_linear_12461_57521" x1="44.3113" y1="70.5679" x2="63.8394" y2="64.1662" gradientUnits="userSpaceOnUse">
<stop stop-color="#06FDFB"/>
<stop offset="0.319806" stop-color="#78A8F9"/>
<stop offset="1" stop-color="#810BB8"/>
</linearGradient>
<linearGradient id="paint53_linear_12461_57521" x1="53.2554" y1="52.0098" x2="69.6738" y2="55.4978" gradientUnits="userSpaceOnUse">
<stop stop-color="#5C4EFF"/>
<stop offset="1" stop-color="#3076FF"/>
</linearGradient>
<linearGradient id="paint54_linear_12461_57521" x1="52.7534" y1="40" x2="58.0496" y2="40.1638" gradientUnits="userSpaceOnUse">
<stop stop-color="#5C4EFF"/>
<stop offset="1" stop-color="#3076FF"/>
</linearGradient>
<linearGradient id="paint55_linear_12461_57521" x1="39.2298" y1="59.5725" x2="57.7929" y2="42.1068" gradientUnits="userSpaceOnUse">
<stop stop-color="#06FDFB"/>
<stop offset="0.319806" stop-color="#78A8F9"/>
<stop offset="1" stop-color="#810BB8"/>
</linearGradient>
<linearGradient id="paint56_linear_12461_57521" x1="52.9779" y1="57.1543" x2="63.5241" y2="57.9349" gradientUnits="userSpaceOnUse">
<stop stop-color="#5C4EFF"/>
<stop offset="1" stop-color="#3076FF"/>
</linearGradient>
</defs>
</svg>
