<svg width="22" height="23" viewBox="0 0 22 23" fill="none" xmlns="http://www.w3.org/2000/svg">
<path fill-rule="evenodd" clip-rule="evenodd" d="M11.0003 0.699221C8.80674 0.699221 6.65274 0.878021 4.55514 1.22122C4.34444 1.25566 4.15286 1.36388 4.01459 1.52655C3.87632 1.68921 3.80039 1.89573 3.80034 2.10922V2.57362C2.80794 2.76202 1.82994 2.98762 0.866336 3.25042C0.680974 3.30104 0.516677 3.40965 0.397487 3.56036C0.278297 3.71108 0.210472 3.89598 0.203936 4.08802C0.15011 5.61231 0.678818 7.09989 1.68257 8.24831C2.68632 9.39672 4.08975 10.1198 5.60754 10.2704C6.54536 11.3309 7.77501 12.0914 9.14274 12.4568C9.03005 13.3798 8.75201 14.2749 8.32194 15.0992H8.00034C7.52295 15.0992 7.06511 15.2889 6.72754 15.6264C6.38998 15.964 6.20034 16.4218 6.20034 16.8992V19.8992H5.30034C4.47234 19.8992 3.80034 20.5712 3.80034 21.3992C3.80034 21.896 4.20354 22.2992 4.70034 22.2992H17.3003C17.539 22.2992 17.7679 22.2044 17.9367 22.0356C18.1055 21.8668 18.2003 21.6379 18.2003 21.3992C18.2003 20.5712 17.5283 19.8992 16.7003 19.8992H15.8003V16.8992C15.8003 16.4218 15.6107 15.964 15.2731 15.6264C14.9356 15.2889 14.4777 15.0992 14.0003 15.0992H13.6787C13.2487 14.2748 12.9707 13.3798 12.8579 12.4568C14.2257 12.0914 15.4553 11.3309 16.3931 10.2704C17.9109 10.1198 19.3144 9.39672 20.3181 8.24831C21.3219 7.09989 21.8506 5.61231 21.7967 4.08802C21.7902 3.89598 21.7224 3.71108 21.6032 3.56036C21.484 3.40965 21.3197 3.30104 21.1343 3.25042C20.1656 2.98631 19.1869 2.76054 18.2003 2.57362V2.10922C18.2003 1.89573 18.1243 1.68921 17.9861 1.52655C17.8478 1.36388 17.6562 1.25566 17.4455 1.22122C15.3148 0.873013 13.1593 0.698439 11.0003 0.699221ZM2.03034 4.80562C2.61474 4.65922 3.20514 4.52722 3.80034 4.40722V5.49922C3.80034 6.38722 3.96114 7.23682 4.25634 8.02282C3.65244 7.70731 3.13429 7.24972 2.74652 6.68949C2.35874 6.12925 2.11296 5.48194 2.03034 4.80562ZM19.9703 4.80562C19.8878 5.48183 19.6422 6.12785 19.2547 6.68808C18.8671 7.24831 18.3492 7.70596 17.7455 8.02162C18.0474 7.21497 18.2015 6.36052 18.2003 5.49922V4.40722C18.7955 4.52602 19.3859 4.65922 19.9703 4.80562Z" fill="white"/>
</svg>
