<svg width="24" height="24" viewBox="0 0 24 24" fill="none" xmlns="http://www.w3.org/2000/svg">
<path d="M15.75 3.75C15.75 4.74456 15.3549 5.69839 14.6517 6.40165C13.9484 7.10491 12.9946 7.5 12 7.5C11.0054 7.5 10.0516 7.10491 9.34835 6.40165C8.64509 5.69839 8.25 4.74456 8.25 3.75C8.25 2.75544 8.64509 1.80161 9.34835 1.09835C10.0516 0.395088 11.0054 0 12 0C12.9946 0 13.9484 0.395088 14.6517 1.09835C15.3549 1.80161 15.75 2.75544 15.75 3.75ZM23.25 4.5C23.25 5.29565 22.9339 6.05871 22.3713 6.62132C21.8087 7.18393 21.0456 7.5 20.25 7.5C19.4544 7.5 18.6913 7.18393 18.1287 6.62132C17.5661 6.05871 17.25 5.29565 17.25 4.5C17.25 3.70435 17.5661 2.94129 18.1287 2.37868C18.6913 1.81607 19.4544 1.5 20.25 1.5C21.0456 1.5 21.8087 1.81607 22.3713 2.37868C22.9339 2.94129 23.25 3.70435 23.25 4.5ZM3.75 7.5C4.54565 7.5 5.30871 7.18393 5.87132 6.62132C6.43393 6.05871 6.75 5.29565 6.75 4.5C6.75 3.70435 6.43393 2.94129 5.87132 2.37868C5.30871 1.81607 4.54565 1.5 3.75 1.5C2.95435 1.5 2.19129 1.81607 1.62868 2.37868C1.06607 2.94129 0.75 3.70435 0.75 4.5C0.75 5.29565 1.06607 6.05871 1.62868 6.62132C2.19129 7.18393 2.95435 7.5 3.75 7.5ZM6 10.875C6 9.84 6.84 9 7.875 9H16.125C17.16 9 18 9.84 18 10.875V18C18 19.5913 17.3679 21.1174 16.2426 22.2426C15.1174 23.3679 13.5913 24 12 24C10.4087 24 8.88258 23.3679 7.75736 22.2426C6.63214 21.1174 6 19.5913 6 18V10.875ZM4.5 10.875C4.5 10.1805 4.71 9.537 5.0685 9H1.875C0.84 9 2.67571e-08 9.84 2.67571e-08 10.875V16.5C-6.99988e-05 17.1422 0.137308 17.7769 0.402903 18.3616C0.668497 18.9463 1.05616 19.4674 1.53983 19.8898C2.02351 20.3122 2.592 20.6263 3.2071 20.8108C3.8222 20.9953 4.46967 21.046 5.106 20.9595C4.70467 20.0245 4.49846 19.0175 4.5 18V10.875ZM19.5 18C19.5 19.05 19.284 20.052 18.894 20.9595C19.5303 21.046 20.1778 20.9953 20.7929 20.8108C21.408 20.6263 21.9765 20.3122 22.4602 19.8898C22.9438 19.4674 23.3315 18.9463 23.5971 18.3616C23.8627 17.7769 24.0001 17.1422 24 16.5V10.875C24 9.84 23.16 9 22.125 9H18.9315C19.2915 9.537 19.5 10.1805 19.5 10.875V18Z" fill="white"/>
</svg>
