<svg width="22" height="21" viewBox="0 0 22 21" fill="none" xmlns="http://www.w3.org/2000/svg">
<path d="M8.2502 20.5L7.8502 17.3C7.63353 17.2167 7.4292 17.1167 7.2372 17C7.0452 16.8833 6.85786 16.7583 6.6752 16.625L3.7002 17.875L0.950195 13.125L3.5252 11.175C3.50853 11.0583 3.5002 10.9457 3.5002 10.837V10.163C3.5002 10.0543 3.50853 9.94167 3.5252 9.825L0.950195 7.875L3.7002 3.125L6.6752 4.375C6.85853 4.24167 7.0502 4.11667 7.2502 4C7.4502 3.88333 7.6502 3.78333 7.8502 3.7L8.2502 0.5H13.7502L14.1502 3.7C14.3669 3.78333 14.5712 3.88333 14.7632 4C14.9552 4.11667 15.1425 4.24167 15.3252 4.375L18.3002 3.125L21.0502 7.875L18.4752 9.825C18.4919 9.94167 18.5002 10.0543 18.5002 10.163V10.837C18.5002 10.9457 18.4835 11.0583 18.4502 11.175L21.0252 13.125L18.2752 17.875L15.3252 16.625C15.1419 16.7583 14.9502 16.8833 14.7502 17C14.5502 17.1167 14.3502 17.2167 14.1502 17.3L13.7502 20.5H8.2502ZM11.0502 14C12.0169 14 12.8419 13.6583 13.5252 12.975C14.2085 12.2917 14.5502 11.4667 14.5502 10.5C14.5502 9.53333 14.2085 8.70833 13.5252 8.025C12.8419 7.34167 12.0169 7 11.0502 7C10.0669 7 9.23753 7.34167 8.5622 8.025C7.88686 8.70833 7.54953 9.53333 7.5502 10.5C7.5502 11.4667 7.88753 12.2917 8.5622 12.975C9.23686 13.6583 10.0662 14 11.0502 14Z" fill="url(#paint0_linear_13706_67102)"/>
<defs>
<linearGradient id="paint0_linear_13706_67102" x1="21.0502" y1="10.6266" x2="0.950195" y2="10.6266" gradientUnits="userSpaceOnUse">
<stop stop-color="#F0899E"/>
<stop offset="0.244792" stop-color="#9617D2"/>
<stop offset="0.510417" stop-color="#4E0FFF"/>
<stop offset="0.75" stop-color="#2C60FD"/>
<stop offset="1" stop-color="#30F0F6"/>
</linearGradient>
</defs>
</svg>
