<svg width="24" height="24" viewBox="0 0 24 24" fill="none" xmlns="http://www.w3.org/2000/svg">
<g id="Iconly/Light/Wallet">
<g id="Wallet">
<path id="Stroke 1" d="M21.6389 14.3962H17.5906C16.1042 14.3953 14.8993 13.1914 14.8984 11.7049C14.8984 10.2185 16.1042 9.01458 17.5906 9.01367H21.6389" stroke="url(#paint0_linear_12461_56220)" stroke-width="1.5" stroke-linecap="round" stroke-linejoin="round"/>
<path id="Stroke 3" d="M18.049 11.6432H17.7373" stroke="url(#paint1_linear_12461_56220)" stroke-width="1.5" stroke-linecap="round" stroke-linejoin="round"/>
<path id="Stroke 5" fill-rule="evenodd" clip-rule="evenodd" d="M7.74766 3H16.3911C19.2892 3 21.6388 5.34951 21.6388 8.24766V15.4247C21.6388 18.3229 19.2892 20.6724 16.3911 20.6724H7.74766C4.84951 20.6724 2.5 18.3229 2.5 15.4247V8.24766C2.5 5.34951 4.84951 3 7.74766 3Z" stroke="url(#paint2_linear_12461_56220)" stroke-width="1.5" stroke-linecap="round" stroke-linejoin="round"/>
</g>
<path id="Vector" d="M6.08283 14.8018C6.08743 14.8107 6.09171 14.8169 6.10191 14.8169L9.98621 14.82C9.9918 14.8193 9.99707 14.8166 10.0007 14.8124L13.0055 11.6805C13.0098 11.6761 13.0098 11.6699 13.0098 11.6654C13.0111 11.653 13.0026 11.6424 12.9907 11.6424L9.43742 11.6836C9.41998 11.6864 9.40978 11.6926 9.39794 11.6988L6.87245 13.807C6.84613 13.8286 6.81389 13.8056 6.81389 13.7781C6.81389 13.7681 6.81784 13.7588 6.82409 13.7523L11.6744 8.0385C11.6786 8.03369 11.6786 8.02922 11.6786 8.02613C11.6786 8.01375 11.6701 8.00309 11.6582 8.00309L8.00984 8C8.00425 8.00034 7.99931 8.00241 7.99537 8.00619L5.02111 11.3C5.01519 11.3045 5.01387 11.3107 5.01387 11.3168L6.08283 14.8018Z" fill="url(#paint3_linear_12461_56220)"/>
</g>
<defs>
<linearGradient id="paint0_linear_12461_56220" x1="21.6389" y1="11.739" x2="14.8984" y2="11.739" gradientUnits="userSpaceOnUse">
<stop stop-color="#F0899E"/>
<stop offset="0.244792" stop-color="#9617D2"/>
<stop offset="0.510417" stop-color="#4E0FFF"/>
<stop offset="0.75" stop-color="#2C60FD"/>
<stop offset="1" stop-color="#30F0F6"/>
</linearGradient>
<linearGradient id="paint1_linear_12461_56220" x1="18.3489" y1="11.649" x2="17.4375" y2="11.649" gradientUnits="userSpaceOnUse">
<stop stop-color="#F0899E"/>
<stop offset="0.244792" stop-color="#9617D2"/>
<stop offset="0.510417" stop-color="#4E0FFF"/>
<stop offset="0.75" stop-color="#2C60FD"/>
<stop offset="1" stop-color="#30F0F6"/>
</linearGradient>
<linearGradient id="paint2_linear_12461_56220" x1="21.6388" y1="11.948" x2="2.5" y2="11.948" gradientUnits="userSpaceOnUse">
<stop stop-color="#F0899E"/>
<stop offset="0.244792" stop-color="#9617D2"/>
<stop offset="0.510417" stop-color="#4E0FFF"/>
<stop offset="0.75" stop-color="#2C60FD"/>
<stop offset="1" stop-color="#30F0F6"/>
</linearGradient>
<linearGradient id="paint3_linear_12461_56220" x1="15" y1="13.5696" x2="3" y2="13.5696" gradientUnits="userSpaceOnUse">
<stop stop-color="#F0899E"/>
<stop offset="0.244792" stop-color="#9617D2"/>
<stop offset="0.510417" stop-color="#4E0FFF"/>
<stop offset="0.75" stop-color="#2C60FD"/>
<stop offset="1" stop-color="#30F0F6"/>
</linearGradient>
</defs>
</svg>
