<svg width="88" height="93" viewBox="0 0 88 93" fill="none" xmlns="http://www.w3.org/2000/svg">
<path d="M14.5723 90.1818L13.574 87.6223H10.3596L9.3722 90.1818H8.42871L11.5993 82.1016H12.3837L15.5378 90.1818H14.5723ZM13.2833 86.7802L12.3508 84.2868C12.2301 83.9712 12.1057 83.584 11.9777 83.1254C11.8973 83.4776 11.7821 83.8648 11.6322 84.2868L10.6887 86.7802H13.2833Z" fill="white"/>
<path d="M25.8228 90.1818H24.7587L20.3759 83.4281H20.332C20.3905 84.2207 20.4197 84.9473 20.4197 85.6078V90.1818H19.5585V82.1346H20.6117L24.9836 88.8608H25.0274C25.0201 88.7617 25.0037 88.4443 24.9781 87.9086C24.9525 87.3691 24.9433 86.9838 24.9507 86.7527V82.1346H25.8228V90.1818Z" fill="white"/>
<path d="M30.4305 90.2919C29.5419 90.2919 28.8398 90.0204 28.3242 89.4773C27.8122 88.9342 27.5562 88.1801 27.5562 87.215C27.5562 86.2426 27.7939 85.4702 28.2693 84.8977C28.7484 84.3253 29.3901 84.0391 30.1947 84.0391C30.948 84.0391 31.5441 84.2886 31.9829 84.7876C32.4217 85.283 32.6411 85.938 32.6411 86.7527V87.3306H28.4997C28.518 88.0388 28.6953 88.5764 29.0318 88.9434C29.3719 89.3103 29.8491 89.4938 30.4635 89.4938C31.1107 89.4938 31.7507 89.358 32.3833 89.0865V89.9011C32.0615 90.0405 31.7562 90.1396 31.4673 90.1983C31.182 90.2607 30.8365 90.2919 30.4305 90.2919ZM30.1837 84.8042C29.701 84.8042 29.3152 84.9619 29.0263 85.2775C28.741 85.5931 28.5728 86.0298 28.5216 86.5875H31.6647C31.6647 86.0114 31.5368 85.5711 31.2808 85.2665C31.0248 84.9583 30.6591 84.8042 30.1837 84.8042Z" fill="white"/>
<path d="M39.1084 90.1818L38.0058 86.6426C37.9364 86.4261 37.8065 85.9344 37.6164 85.1674H37.5725C37.4262 85.8096 37.2982 86.305 37.1885 86.6536L36.053 90.1818H34.9999L33.3597 84.1491H34.3142C34.7018 85.6647 34.9962 86.8187 35.1973 87.6113C35.4021 88.4039 35.5191 88.9379 35.5484 89.2131H35.5923C35.6325 89.0039 35.6965 88.7342 35.7843 88.4039C35.8757 88.07 35.9543 87.8058 36.0201 87.6113L37.1227 84.1491H38.1101L39.1852 87.6113C39.39 88.2425 39.5289 88.7727 39.6021 89.2021H39.646C39.6606 89.07 39.699 88.8663 39.7612 88.5911C39.827 88.3159 40.2091 86.8352 40.9076 84.1491H41.8511L40.189 90.1818H39.1084Z" fill="white"/>
<path d="M46.9305 86.8352V90.1818H45.998V82.1346H48.1977C49.1814 82.1346 49.9073 82.3236 50.3754 82.7015C50.8471 83.0795 51.083 83.6483 51.083 84.4078C51.083 85.472 50.5454 86.1912 49.4703 86.5655L51.648 90.1818H50.5454L48.6036 86.8352H46.9305ZM46.9305 86.0316H48.2086C48.8669 86.0316 49.3496 85.9013 49.6568 85.6408C49.964 85.3766 50.1175 84.9821 50.1175 84.4574C50.1175 83.9253 49.9603 83.5418 49.6458 83.307C49.335 83.0721 48.834 82.9547 48.1428 82.9547H46.9305V86.0316Z" fill="white"/>
<path d="M55.3451 90.2919C54.4565 90.2919 53.7543 90.0204 53.2387 89.4773C52.7268 88.9342 52.4708 88.1801 52.4708 87.215C52.4708 86.2426 52.7085 85.4702 53.1839 84.8977C53.6629 84.3253 54.3047 84.0391 55.1092 84.0391C55.8626 84.0391 56.4586 84.2886 56.8975 84.7876C57.3363 85.283 57.5557 85.938 57.5557 86.7527V87.3306H53.4143C53.4325 88.0388 53.6099 88.5764 53.9463 88.9434C54.2864 89.3103 54.7637 89.4938 55.378 89.4938C56.0253 89.4938 56.6652 89.358 57.2979 89.0865V89.9011C56.9761 90.0405 56.6707 90.1396 56.3818 90.1983C56.0966 90.2607 55.751 90.2919 55.3451 90.2919ZM55.0983 84.8042C54.6156 84.8042 54.2297 84.9619 53.9408 85.2775C53.6556 85.5931 53.4874 86.0298 53.4362 86.5875H56.5793C56.5793 86.0114 56.4513 85.5711 56.1953 85.2665C55.9394 84.9583 55.5737 84.8042 55.0983 84.8042Z" fill="white"/>
<path d="M62.8107 90.1818L62.6297 89.3232H62.5858C62.2859 89.7011 61.9861 89.958 61.6862 90.0938C61.39 90.2259 61.0188 90.2919 60.5727 90.2919C59.9766 90.2919 59.5085 90.1378 59.1684 89.8295C58.832 89.5213 58.6638 89.0828 58.6638 88.514C58.6638 87.2958 59.6347 86.6573 61.5765 86.5985L62.5968 86.5655V86.1912C62.5968 85.7179 62.4944 85.3693 62.2896 85.1454C62.0885 84.9179 61.7648 84.8042 61.3187 84.8042C60.8177 84.8042 60.2509 84.9583 59.6182 85.2665L59.3385 84.5675C59.6347 84.406 59.9583 84.2794 60.3094 84.1877C60.6641 84.0959 61.0188 84.0501 61.3735 84.0501C62.0903 84.0501 62.6205 84.2097 62.9643 84.5289C63.3117 84.8482 63.4854 85.3601 63.4854 86.0646V90.1818H62.8107ZM60.7537 89.5378C61.3205 89.5378 61.7648 89.3819 62.0866 89.07C62.4121 88.7581 62.5748 88.3214 62.5748 87.7599V87.215L61.6643 87.2536C60.9402 87.2792 60.4172 87.393 60.0954 87.5948C59.7773 87.793 59.6182 88.103 59.6182 88.525C59.6182 88.8553 59.7169 89.1067 59.9144 89.2791C60.1156 89.4516 60.3953 89.5378 60.7537 89.5378Z" fill="white"/>
<path d="M66.2775 90.1818H65.3669V81.6172H66.2775V90.1818Z" fill="white"/>
<path d="M69.1189 90.1818H68.2083V84.1491H69.1189V90.1818ZM68.1315 82.5144C68.1315 82.3052 68.1827 82.1529 68.2851 82.0575C68.3875 81.9585 68.5155 81.9089 68.6691 81.9089C68.8153 81.9089 68.9415 81.9585 69.0476 82.0575C69.1536 82.1566 69.2066 82.3089 69.2066 82.5144C69.2066 82.7199 69.1536 82.874 69.0476 82.9767C68.9415 83.0758 68.8153 83.1254 68.6691 83.1254C68.5155 83.1254 68.3875 83.0758 68.2851 82.9767C68.1827 82.874 68.1315 82.7199 68.1315 82.5144Z" fill="white"/>
<path d="M72.9915 89.5378C73.1525 89.5378 73.3079 89.5268 73.4578 89.5048C73.6077 89.4791 73.7266 89.4534 73.8144 89.4277V90.1268C73.7156 90.1745 73.5693 90.213 73.3755 90.2424C73.1854 90.2754 73.0135 90.2919 72.8599 90.2919C71.697 90.2919 71.1156 89.6773 71.1156 88.448V84.8592H70.2543V84.4189L71.1156 84.0391L71.4995 82.7511H72.0261V84.1491H73.7705V84.8592H72.0261V88.4094C72.0261 88.7727 72.1121 89.0516 72.2839 89.2461C72.4558 89.4406 72.6917 89.5378 72.9915 89.5378Z" fill="white"/>
<path d="M74.0667 84.1491H75.0431L76.3596 87.5893C76.6485 88.3746 76.8277 88.9415 76.8971 89.2901H76.941C76.9886 89.103 77.0873 88.7837 77.2372 88.3324C77.3908 87.8774 77.8882 86.483 78.7292 84.1491H79.7056L77.122 91.0185C76.8661 91.6973 76.5662 92.178 76.2224 92.4606C75.8823 92.7468 75.4636 92.8899 74.9663 92.8899C74.6884 92.8899 74.4141 92.8587 74.1435 92.7963V92.0643C74.3446 92.1083 74.5695 92.1303 74.8182 92.1303C75.4435 92.1303 75.8897 91.7781 76.1566 91.0735L76.4912 90.2148L74.0667 84.1491Z" fill="white"/>
<path d="M55.5539 47.6095V46.1652H55.0299V45.951H56.3326V46.1652H55.799V47.5999L55.5539 47.6095ZM58.1618 47.6095V46.3265L57.5633 47.2244H57.5417L56.9552 46.3265V47.6095H56.71V45.951H56.9768L57.5633 46.8489L58.1618 45.951H58.3974V47.5975L58.1618 47.6095ZM22.6619 47.7371C22.5874 47.7371 22.5561 47.6938 22.5225 47.6312L14.7129 23.227C14.7129 23.1837 14.7225 23.1404 14.7658 23.1091L36.4951 0.0433295C36.5239 0.0168504 36.56 0.0024072 36.6008 0L63.2552 0.0216648C63.3418 0.0216648 63.4043 0.0962879 63.4043 0.182947C63.4043 0.204612 63.4043 0.235905 63.373 0.269606L27.938 40.282C27.8923 40.3278 27.8635 40.3928 27.8635 40.4626C27.8635 40.6552 28.099 40.8164 28.2913 40.6648L46.742 25.9014C46.8285 25.8581 46.903 25.8148 47.0304 25.7955L72.9902 25.5067C73.0767 25.5067 73.1392 25.5813 73.1296 25.6679C73.1296 25.6992 73.1296 25.7426 73.0983 25.7739L51.1455 47.7058C51.1191 47.7347 51.0806 47.754 51.0397 47.7588L22.6619 47.7371ZM85.6479 62.2766H86.1599C86.4171 62.2766 86.5878 62.1707 86.5878 61.9444C86.5878 61.7422 86.4483 61.6242 86.1815 61.6242H85.6479V62.2766ZM86.6214 63.1961L86.0878 62.5125H85.6287V63.1961H85.3715V61.3883H86.184C86.3979 61.3883 86.5998 61.4533 86.7176 61.5905C86.7921 61.6772 86.8666 61.7831 86.8666 61.9444C86.8666 62.2236 86.6647 62.4042 86.3955 62.4788L86.9507 63.1961H86.6214ZM84.4629 62.3416C84.4629 63.2178 85.1456 63.9472 86.0662 63.9472C86.9748 63.9689 87.6694 63.2202 87.6694 62.3416C87.6694 61.4317 86.9964 60.736 86.0662 60.736C85.148 60.736 84.4629 61.4533 84.4629 62.3416ZM84.3139 62.3633C84.3139 61.4004 85.0831 60.5771 86.0758 60.5771C87.0589 60.5771 87.8281 61.3691 87.8281 62.3416C87.8281 63.3045 87.0589 64.0964 86.0758 64.0964C85.0831 64.0964 84.3139 63.3045 84.3139 62.3633ZM80.968 76.7414L74.7713 68.8988L71.3316 72.4085V76.7414H69.5144V60.5554H71.31V70.2276L80.593 60.5554H82.9438L76.0212 67.6158L83.2539 76.7414H80.968ZM24.681 76.7631V60.5554H36.3581V62.2236H26.5078V67.7554H35.3317V69.4356H26.4958V75.0949H36.4855V76.7631H24.681ZM47.0929 76.7631V60.5554H58.77V62.2236H48.9317V67.7554H57.7556V69.4356H48.9317V75.0949H58.9214V76.7631H47.0929ZM0.00240368 68.7062V68.6629C0.00240368 64.0724 3.42044 60.2858 8.18453 60.2858C11.1122 60.2858 12.8645 61.3233 14.487 62.8639L13.2371 64.212C11.9655 62.8519 10.1652 61.9998 8.1653 61.9877H8.1629C4.5742 61.9877 1.8917 64.898 1.8917 68.622V68.6653C1.8917 72.4109 4.59343 75.3308 8.1629 75.3308C10.3839 75.3308 11.8381 74.4739 13.3765 72.9983L14.5831 74.185C12.8957 75.9086 11.0473 77.0303 8.11963 77.0303C3.43005 77.0303 0 73.3497 0 68.7062H0.00240368Z" fill="white"/>
</svg>
