<svg width="40" height="40" viewBox="0 0 40 40" fill="none" xmlns="http://www.w3.org/2000/svg">
<g clip-path="url(#clip0_264_140)">
<mask id="mask0_264_140" style="mask-type:luminance" maskUnits="userSpaceOnUse" x="0" y="0" width="40" height="40">
<path d="M40 0H0V40H40V0Z" fill="white"/>
</mask>
<g mask="url(#mask0_264_140)">
<path d="M20 40C31.0457 40 40 31.0457 40 20C40 8.9543 31.0457 0 20 0C8.9543 0 0 8.9543 0 20C0 31.0457 8.9543 40 20 40Z" fill="#0D00FF"/>
<path d="M20 40C31.0457 40 40 31.0457 40 20C40 8.9543 31.0457 0 20 0C8.9543 0 0 8.9543 0 20C0 31.0457 8.9543 40 20 40Z" fill="url(#paint0_linear_264_140)"/>
<path d="M24.2692 27.9722V28.5123L24.3592 28.5087V27.9722H24.5549V27.8921H24.077V27.9722H24.2692Z" fill="white"/>
<path d="M25.2259 28.0325V28.5123L25.3123 28.5078V27.8921H25.2259L25.0063 28.2279L24.7912 27.8921H24.6933V28.5123H24.7833V28.0325L24.9984 28.3683H25.0063L25.2259 28.0325Z" fill="white"/>
<path d="M12.1528 28.5204C12.1651 28.5438 12.1766 28.56 12.2039 28.56L22.6134 28.5681C22.6284 28.5663 22.6425 28.5591 22.6522 28.5483L30.7048 20.3479C30.7163 20.3362 30.7163 20.32 30.7163 20.3082C30.7198 20.2758 30.6969 20.2479 30.6652 20.2479L21.1427 20.356C21.096 20.3632 21.0686 20.3794 21.0369 20.3956L14.2689 25.9156C14.1983 25.9723 14.1119 25.912 14.1119 25.84C14.1119 25.8139 14.1225 25.7896 14.1393 25.7725L27.1374 10.8117C27.1489 10.7991 27.1489 10.7874 27.1489 10.7793C27.1489 10.7469 27.126 10.719 27.0942 10.719L17.3169 10.7109C17.302 10.7118 17.2887 10.7172 17.2781 10.7271L9.30748 19.3515C9.29161 19.3632 9.28809 19.3794 9.28809 19.3956L12.1528 28.5204Z" fill="white"/>
</g>
</g>
<defs>
<linearGradient id="paint0_linear_264_140" x1="40" y1="20.2531" x2="0" y2="20.2531" gradientUnits="userSpaceOnUse">
<stop stop-color="#F0899E"/>
<stop offset="0.244792" stop-color="#9617D2"/>
<stop offset="0.510417" stop-color="#4E0FFF"/>
<stop offset="0.75" stop-color="#2C60FD"/>
<stop offset="1" stop-color="#30F0F6"/>
</linearGradient>
<clipPath id="clip0_264_140">
<rect width="40" height="40" fill="white"/>
</clipPath>
</defs>
</svg>

