<svg width="40" height="40" viewBox="0 0 40 40" fill="none" xmlns="http://www.w3.org/2000/svg">
<path d="M34.4294 15.5326C33.8188 11.3182 31.3088 8.4038 27.11 6.7388C27.8256 6.36068 28.2881 6.1713 28.2881 6.1713C26.2656 5.4588 24.51 5.0438 22.99 4.85505C23.7894 4.25318 24.3231 4.02443 24.3231 4.02443C11.9781 2.28318 5.89062 9.14943 5.50812 15.5419C3.08937 15.9663 1.25 18.0682 1.25 20.6051C1.25 23.1157 3.05188 25.2013 5.435 25.6551C5.7075 31.5394 12.1225 36.2494 19.9994 36.2494C27.8775 36.2494 34.2925 31.5394 34.565 25.6551C36.9475 25.2007 38.75 23.1144 38.75 20.6051C38.75 18.0476 36.8781 15.9313 34.4294 15.5326ZM5.56313 23.8351C4.11937 23.4601 3.04875 22.1632 3.04875 20.6051C3.04875 19.0951 4.05688 17.8313 5.43375 17.4138C5.46438 18.7651 5.82 20.0569 6.4425 21.2476C6.01856 22.0599 5.72197 22.9326 5.56313 23.8351ZM27.8425 24.9519C28.6725 25.9869 29.1587 27.1957 29.1587 28.4925C29.1587 32.2938 25.0575 35.3738 19.9994 35.3738C14.9412 35.3738 10.8406 32.2938 10.8406 28.4925C10.8406 27.1957 11.3263 25.9869 12.1575 24.9519C9.30937 23.2282 7.48625 20.5894 7.48625 17.6276C7.48625 7.0438 19.9994 13.7863 19.9994 13.7863C19.9994 13.7863 32.5131 7.04443 32.5131 17.6276C32.5131 20.5888 30.69 23.2282 27.8425 24.9519ZM34.4369 23.8351C34.2778 22.9325 33.9814 22.0597 33.5581 21.2469C34.1806 20.0563 34.5356 18.7644 34.5662 17.4132C35.9431 17.8313 36.9506 19.0944 36.9506 20.6044C36.9506 22.1632 35.8806 23.4601 34.4369 23.8351Z" fill="#0D00FF"/>
<path d="M21.3406 25.5022C21.6863 25.5022 21.9656 24.9278 21.9656 24.2166C21.9656 23.5084 21.6863 22.9297 21.3406 22.9297C20.9944 22.9297 20.7156 23.5084 20.7156 24.2166C20.7156 24.9278 20.9944 25.5022 21.3406 25.5022ZM18.6581 25.5022C19.0038 25.5022 19.2831 24.9278 19.2831 24.2166C19.2831 23.5084 19.0038 22.9297 18.6581 22.9297C18.3119 22.9297 18.0331 23.5084 18.0331 24.2166C18.0331 24.9278 18.3119 25.5022 18.6581 25.5022Z" fill="#0D00FF"/>
<path d="M25.4263 22.6543C26.6344 22.6543 27.6138 21.3951 27.6138 19.8418C27.6138 18.2885 26.6344 17.0293 25.4263 17.0293C24.2181 17.0293 23.2388 18.2885 23.2388 19.8418C23.2388 21.3951 24.2181 22.6543 25.4263 22.6543Z" fill="#0D00FF"/>
<path d="M14.5737 22.6543C15.7819 22.6543 16.7612 21.3951 16.7612 19.8418C16.7612 18.2885 15.7819 17.0293 14.5737 17.0293C13.3656 17.0293 12.3862 18.2885 12.3862 19.8418C12.3862 21.3951 13.3656 22.6543 14.5737 22.6543Z" fill="#0D00FF"/>
<path d="M19.9987 28.4001C17.0681 28.4001 14.0869 27.6057 13.8456 27.8113C12.955 28.5701 15.6856 32.1482 19.9987 32.172C24.3112 32.1501 27.0437 28.5707 26.1512 27.8113C25.91 27.6063 22.93 28.4007 19.9987 28.4001Z" fill="#0D00FF"/>
</svg>
