<svg width="48" height="32" viewBox="0 0 48 32" fill="none" xmlns="http://www.w3.org/2000/svg">
<g clip-path="url(#clip0_13706_65875)">
<path d="M47.7654 20.3503L47.6089 25.1564L23.1704 17.4191L23.3252 12.6113L47.7654 20.3503Z" fill="#151213"/>
<path d="M23.3254 12.6113L23.1706 17.4191L0.234863 24.1894L0.391296 19.3833L23.3254 12.6113Z" fill="#1E1A1B"/>
<path d="M24.8298 27.1217L24.675 31.9296L0.234863 24.1889L0.391296 19.3828L24.8298 27.1217Z" fill="#989898"/>
<path d="M23.3252 12.6113L47.7654 20.3503L24.8296 27.1222L0.391113 19.3833L23.3252 12.6113Z" fill="url(#paint0_linear_13706_65875)"/>
<path d="M47.7653 20.3496L47.6089 25.1557L24.6748 31.9294L24.8296 27.1216L47.7653 20.3496Z" fill="#DADADA"/>
<path d="M24.8379 27.1952L24.6815 32.0013L0 24.1867L0.156433 19.3789L24.8379 27.1952Z" fill="url(#paint1_linear_13706_65875)" fill-opacity="0.85"/>
<path d="M48.0002 20.3555L47.8437 25.1616L24.6816 32.0009L24.8381 27.1947L48.0002 20.3555Z" fill="url(#paint2_linear_13706_65875)" fill-opacity="0.85"/>
<path d="M0.158203 19.3783L23.3203 12.5391L48.0018 20.3553L24.838 27.1946L0.158203 19.3783ZM47.7671 20.3503L23.3286 12.6147L0.391193 19.3834L24.8314 27.1189L47.7654 20.3469" fill="#191717"/>
<path d="M37.1646 11.2386L35.334 10.8535H35.344L37.1746 11.2369H37.1629" fill="#151313"/>
<path d="M27.0196 11.3109L25.4536 10.9141L35.3339 10.8535L37.1645 11.2386L27.0196 11.3109Z" fill="#DCDCDC"/>
<path d="M26.9032 11.3587L25.3389 10.9602L25.3522 10.9518H25.3655H25.3805L25.3954 10.9434L26.9614 11.3402L26.9448 11.3486H26.9298H26.9165H26.9032" fill="#141112"/>
<path d="M26.9615 11.3246L25.3955 10.9277H25.4088H25.4221H25.4371H25.4538L27.0198 11.3246H27.0031H26.9881H26.9731H26.9615Z" fill="#141213"/>
<path d="M19.1649 17.7579L17.8169 17.1558L25.339 10.959L26.9017 11.3575L19.1649 17.7579Z" fill="#DCDCDC"/>
<path d="M19.0551 17.7775L17.7104 17.1738H17.7204H17.7304H17.7571L19.1034 17.7775H19.0651H19.0551Z" fill="#151313"/>
<path d="M19.1032 17.7854L17.7568 17.1816H17.7851L19.1331 17.7837H19.1115" fill="#141213"/>
<path d="M19.1302 17.7778L17.7822 17.1758L19.1302 17.7778Z" fill="#141112"/>
<path d="M19.1566 17.7641L17.8086 17.1621L19.1566 17.7641Z" fill="#131111"/>
<path d="M23.0974 0.0554942L21.6279 0L32.059 0.336329L33.8147 0.400231L23.0974 0.0554942Z" fill="#141112"/>
<path d="M16.6983 20.8575L15.4219 20.1563H15.4136V20.1445L16.69 20.8441V20.8559V20.866H16.6983" fill="#121011"/>
<path d="M13.6548 10.1201L12.4565 9.74849L21.6279 0L23.0973 0.0554942L13.6548 10.1201Z" fill="#C4C4C4"/>
<path d="M16.6703 20.82L15.3938 20.1204L12.4565 9.74805L13.6548 10.1197L16.6703 20.82Z" fill="#C4C4C4"/>
<path d="M23.0992 0.0546875L33.8149 0.399425C33.827 0.399415 33.8387 0.403568 33.8481 0.411198C33.8575 0.417691 33.8646 0.42715 33.8681 0.438102C33.8722 0.449515 33.8722 0.462005 33.8681 0.473418C33.8663 0.48582 33.8611 0.497468 33.8531 0.50705L19.0219 17.5993C19.0057 17.617 18.9953 17.6393 18.992 17.6632C18.9893 17.6839 18.9928 17.705 19.002 17.7237C19.01 17.7419 19.0234 17.7572 19.0402 17.7674C19.0562 17.7792 19.0754 17.7857 19.0952 17.7859H19.1135H19.1301L19.1484 17.7759L19.1651 17.7641L26.9035 11.3637L26.9268 11.3486L26.9518 11.3352L26.9834 11.3234H27.02L37.1715 11.2511C37.1837 11.2506 37.1956 11.2548 37.2048 11.2628C37.2132 11.27 37.2195 11.2793 37.2231 11.2898C37.2264 11.3013 37.2264 11.3135 37.2231 11.3251C37.2207 11.3376 37.2149 11.3492 37.2065 11.3587L28.3397 20.6531L16.7337 20.8768H16.7154L16.6988 20.8684C16.6935 20.8648 16.689 20.8602 16.6854 20.8549C16.6806 20.8498 16.6771 20.8434 16.6755 20.8364L13.6616 10.1361L23.0992 0.0546875Z" fill="#0D00FF"/>
</g>
<defs>
<linearGradient id="paint0_linear_13706_65875" x1="1.57547" y1="15.8763" x2="47.4371" y2="17.0819" gradientUnits="userSpaceOnUse">
<stop stop-color="#0D00FF"/>
<stop offset="1" stop-color="#2BB3FB"/>
</linearGradient>
<linearGradient id="paint1_linear_13706_65875" x1="-29.3694" y1="20.1407" x2="-10.9281" y2="-0.828795" gradientUnits="userSpaceOnUse">
<stop stop-color="#0A01B3"/>
<stop offset="0.338542" stop-color="#1308E1"/>
<stop offset="1" stop-color="#081869"/>
</linearGradient>
<linearGradient id="paint2_linear_13706_65875" x1="25.9771" y1="31.7684" x2="27.1483" y2="21.5531" gradientUnits="userSpaceOnUse">
<stop stop-color="#0A01B3"/>
<stop offset="0.338542" stop-color="#1308E1"/>
<stop offset="1" stop-color="#081869"/>
</linearGradient>
<clipPath id="clip0_13706_65875">
<rect width="48" height="32" fill="white"/>
</clipPath>
</defs>
</svg>
