<svg width="48" height="32" viewBox="0 0 48 32" fill="none" xmlns="http://www.w3.org/2000/svg">
<g clip-path="url(#clip0_13706_64887)">
<path d="M47.7654 20.3503L47.6089 25.1564L23.1704 17.4191L23.3252 12.6113L47.7654 20.3503Z" fill="#151213"/>
<path d="M23.3251 12.6113L23.1704 17.4191L0.234619 24.1894L0.391052 19.3833L23.3251 12.6113Z" fill="#1E1A1B"/>
<path d="M24.8296 27.1217L24.6748 31.9296L0.234619 24.1889L0.391052 19.3828L24.8296 27.1217Z" fill="#989898"/>
<path d="M23.3252 12.6113L47.7654 20.3503L24.8296 27.1222L0.391113 19.3833L23.3252 12.6113Z" fill="url(#paint0_linear_13706_64887)"/>
<path d="M47.7653 20.3496L47.6089 25.1557L24.6748 31.9294L24.8296 27.1216L47.7653 20.3496Z" fill="#DADADA"/>
<path d="M24.8379 27.1952L24.6815 32.0013L0 24.1867L0.156433 19.3789L24.8379 27.1952Z" fill="#0D00FF"/>
<path d="M47.9999 20.3555L47.8435 25.1616L24.6814 32.0009L24.8378 27.1947L47.9999 20.3555Z" fill="url(#paint1_linear_13706_64887)"/>
<path d="M0.158203 19.3783L23.3203 12.5391L48.0018 20.3553L24.838 27.1946L0.158203 19.3783ZM47.7671 20.3503L23.3286 12.6147L0.391193 19.3834L24.8314 27.1189L47.7654 20.3469" fill="#191717"/>
<path d="M37.1643 11.2386L35.3337 10.8535H35.3437L37.1743 11.2369H37.1627" fill="#151313"/>
<path d="M27.0196 11.3109L25.4536 10.9141L35.3339 10.8535L37.1645 11.2386L27.0196 11.3109Z" fill="#DCDCDC"/>
<path d="M26.9029 11.3587L25.3386 10.9602L25.3519 10.9518H25.3652H25.3802L25.3952 10.9434L26.9612 11.3402L26.9445 11.3486H26.9296H26.9163H26.9029" fill="#141112"/>
<path d="M26.9613 11.3246L25.3953 10.9277H25.4086H25.4219H25.4369H25.4535L27.0195 11.3246H27.0029H26.9879H26.9729H26.9613Z" fill="#141213"/>
<path d="M19.1646 17.7579L17.8167 17.1558L25.3388 10.959L26.9014 11.3575L19.1646 17.7579Z" fill="#DCDCDC"/>
<path d="M19.0549 17.7775L17.7102 17.1738H17.7202H17.7302H17.7568L19.1031 17.7775H19.0649H19.0549Z" fill="#151313"/>
<path d="M19.1032 17.7854L17.7568 17.1816H17.7851L19.1331 17.7837H19.1115" fill="#141213"/>
<path d="M19.1297 17.7778L17.7817 17.1758L19.1297 17.7778Z" fill="#141112"/>
<path d="M19.1563 17.7641L17.8083 17.1621L19.1563 17.7641Z" fill="#131111"/>
<path d="M23.0972 0.0554942L21.6277 0L32.0588 0.336329L33.8145 0.400231L23.0972 0.0554942Z" fill="#141112"/>
<path d="M16.6983 20.8575L15.4219 20.1563H15.4136V20.1445L16.69 20.8441V20.8559V20.866H16.6983" fill="#121011"/>
<path d="M13.6545 10.1201L12.4563 9.74849L21.6276 0L23.0971 0.0554942L13.6545 10.1201Z" fill="#C4C4C4"/>
<path d="M16.67 20.82L15.3936 20.1204L12.4563 9.74805L13.6545 10.1197L16.67 20.82Z" fill="#C4C4C4"/>
<path d="M23.0987 0.0546875L33.8144 0.399425C33.8265 0.399415 33.8382 0.403568 33.8476 0.411198C33.8571 0.417691 33.8641 0.42715 33.8676 0.438102C33.8717 0.449515 33.8717 0.462005 33.8676 0.473418C33.8658 0.48582 33.8606 0.497468 33.8526 0.50705L19.0215 17.5993C19.0052 17.617 18.9948 17.6393 18.9915 17.6632C18.9889 17.6839 18.9923 17.705 19.0015 17.7237C19.0095 17.7419 19.0229 17.7572 19.0398 17.7674C19.0557 17.7792 19.0749 17.7857 19.0947 17.7859H19.113H19.1296L19.1479 17.7759L19.1646 17.7641L26.903 11.3637L26.9263 11.3486L26.9513 11.3352L26.9829 11.3234H27.0195L37.171 11.2511C37.1832 11.2506 37.1951 11.2548 37.2043 11.2628C37.2127 11.27 37.2191 11.2793 37.2226 11.2898C37.2259 11.3013 37.2259 11.3135 37.2226 11.3251C37.2202 11.3376 37.2144 11.3492 37.206 11.3587L28.3392 20.6531L16.7332 20.8768H16.7149L16.6983 20.8684C16.693 20.8648 16.6885 20.8602 16.685 20.8549C16.6801 20.8498 16.6766 20.8434 16.675 20.8364L13.6611 10.1361L23.0987 0.0546875Z" fill="#0D00FF"/>
</g>
<defs>
<linearGradient id="paint0_linear_13706_64887" x1="1.57547" y1="15.8763" x2="47.4371" y2="17.0819" gradientUnits="userSpaceOnUse">
<stop stop-color="#2FC5F8"/>
<stop offset="1" stop-color="#AD34C5"/>
</linearGradient>
<linearGradient id="paint1_linear_13706_64887" x1="47.9999" y1="26.2519" x2="24.6814" y2="26.2519" gradientUnits="userSpaceOnUse">
<stop offset="0.0338542" stop-color="#30F0F6"/>
<stop offset="0.273438" stop-color="#2C60FD"/>
<stop offset="0.510417" stop-color="#4E0FFF"/>
<stop offset="0.721354" stop-color="#9617D2"/>
<stop offset="1" stop-color="#F0899E"/>
</linearGradient>
<clipPath id="clip0_13706_64887">
<rect width="48" height="32" fill="white"/>
</clipPath>
</defs>
</svg>
