<svg width="40" height="45" viewBox="0 0 40 45" fill="none" xmlns="http://www.w3.org/2000/svg">
<path d="M35 37.2811H38.3334V41.0092H1.66669V37.2811H5.00002V5.59255C5.00002 5.09818 5.17562 4.62405 5.48818 4.27448C5.80074 3.9249 6.22466 3.72852 6.66669 3.72852H33.3334C33.7754 3.72852 34.1993 3.9249 34.5119 4.27448C34.8244 4.62405 35 5.09818 35 5.59255V37.2811ZM13.3334 20.5048V24.2329H18.3334V20.5048H13.3334ZM13.3334 13.0487V16.7768H18.3334V13.0487H13.3334ZM13.3334 27.961V31.689H18.3334V27.961H13.3334ZM21.6667 27.961V31.689H26.6667V27.961H21.6667ZM21.6667 20.5048V24.2329H26.6667V20.5048H21.6667ZM21.6667 13.0487V16.7768H26.6667V13.0487H21.6667Z" fill="url(#paint0_linear_13706_60559)"/>
<defs>
<linearGradient id="paint0_linear_13706_60559" x1="38.3334" y1="22.6048" x2="1.66669" y2="22.6048" gradientUnits="userSpaceOnUse">
<stop stop-color="#F0899E"/>
<stop offset="0.244792" stop-color="#9617D2"/>
<stop offset="0.510417" stop-color="#4E0FFF"/>
<stop offset="0.75" stop-color="#2C60FD"/>
<stop offset="1" stop-color="#30F0F6"/>
</linearGradient>
</defs>
</svg>
