<svg width="40" height="45" viewBox="0 0 40 45" fill="none" xmlns="http://www.w3.org/2000/svg">
<path d="M35.0001 37.2811H38.3334V41.0092H1.66675V37.2811H5.00008V5.59255C5.00008 5.09818 5.17568 4.62405 5.48824 4.27448C5.8008 3.9249 6.22472 3.72852 6.66675 3.72852H33.3334C33.7754 3.72852 34.1994 3.9249 34.5119 4.27448C34.8245 4.62405 35.0001 5.09818 35.0001 5.59255V37.2811ZM13.3334 20.5048V24.2329H18.3334V20.5048H13.3334ZM13.3334 13.0487V16.7768H18.3334V13.0487H13.3334ZM13.3334 27.961V31.689H18.3334V27.961H13.3334ZM21.6667 27.961V31.689H26.6667V27.961H21.6667ZM21.6667 20.5048V24.2329H26.6667V20.5048H21.6667ZM21.6667 13.0487V16.7768H26.6667V13.0487H21.6667Z" fill="#0D00FF"/>
</svg>
