<svg width="38" height="26" viewBox="0 0 38 26" fill="none" xmlns="http://www.w3.org/2000/svg">
<path d="M37.1251 10.5C36.8907 10.1094 34.5774 9.11016 34.5774 9.11016C34.9798 8.90234 35.2548 8.85938 35.2548 8C35.2548 7.0625 35.2501 6.75 34.6251 6.75H32.5048C32.4962 6.73125 32.4868 6.71172 32.4782 6.69219C31.1095 3.70312 30.9259 2.94766 28.8845 1.93047C26.1462 0.56875 21.0126 0.5 19.0001 0.5C16.9876 0.5 11.854 0.56875 9.11806 1.93047C7.07431 2.94609 7.12509 3.46875 5.52431 6.69219C5.52431 6.70078 5.5079 6.72344 5.49306 6.75H3.3704C2.75009 6.75 2.7454 7.0625 2.7454 8C2.7454 8.85938 3.0204 8.90234 3.42275 9.11016C3.42275 9.11016 1.18759 10.1875 0.875092 10.5C0.562592 10.8125 0.250092 13 0.250092 16.75C0.250092 20.5 0.562592 24.25 0.562592 24.25H1.4954C1.4954 25.3438 1.65634 25.5 2.12509 25.5H8.37509C8.84384 25.5 9.00009 25.3438 9.00009 24.25H29.0001C29.0001 25.3438 29.1563 25.5 29.6251 25.5H36.0313C36.3438 25.5 36.5001 25.2656 36.5001 24.25H37.4376C37.4376 24.25 37.7501 20.4219 37.7501 16.75C37.7501 13.0781 37.3595 10.8906 37.1251 10.5ZM8.78603 14.0109C7.36315 14.1665 5.93301 14.2463 4.50165 14.25C2.90634 14.25 2.85165 14.3523 2.73915 13.3562C2.69683 12.9003 2.71021 12.441 2.779 11.9883L2.82822 11.75H3.06259C4.00009 11.75 4.88056 11.7898 6.54306 12.2797C7.38863 12.5334 8.18394 12.9315 8.89384 13.4562C9.23447 13.7031 9.31259 13.9375 9.31259 13.9375L8.78603 14.0109ZM28.0954 19.6359L27.7501 20.5H10.2501C10.2501 20.5 10.2806 20.4523 9.85947 19.6266C9.54697 19.0156 9.93759 18.625 10.5556 18.4031C11.7524 17.9719 15.2501 16.75 19.0001 16.75C22.7501 16.75 26.3173 17.8031 27.4767 18.4031C27.9063 18.625 28.4399 18.7812 28.0954 19.6406V19.6359ZM8.01728 8.96953C7.76493 8.98409 7.512 8.98592 7.25947 8.975C7.46337 8.6125 7.57665 8.20859 7.77587 7.78672C8.40087 6.45859 9.11572 4.95547 10.3884 4.32187C12.2274 3.40625 16.0392 2.99375 19.0001 2.99375C21.961 2.99375 25.7727 3.40312 27.6118 4.32187C28.8845 4.95547 29.5962 6.45938 30.2243 7.78672C30.4251 8.2125 30.5368 8.61953 30.7462 8.98438C30.5899 8.99297 30.4102 8.98438 29.9813 8.96953H8.01728ZM35.1829 13.3531C35.0157 14.3281 35.172 14.25 33.4985 14.25C32.0672 14.2463 30.637 14.1665 29.2142 14.0109C28.9915 13.9711 28.9282 13.5953 29.1063 13.4562C29.8126 12.9256 30.609 12.527 31.4571 12.2797C33.1196 11.7898 34.0556 11.7242 34.9798 11.757C35.0419 11.7594 35.1009 11.7846 35.1454 11.8279C35.19 11.8712 35.217 11.9294 35.2212 11.9914C35.2653 12.4462 35.2525 12.9047 35.1829 13.3562V13.3531Z" fill="#0D00FF"/>
</svg>
