<svg width="50" height="22" viewBox="0 0 50 22" fill="none" xmlns="http://www.w3.org/2000/svg">
<path fill-rule="evenodd" clip-rule="evenodd" d="M18.6842 0.920149C18.7283 1.47067 18.3178 1.95273 17.7673 1.99685C17.4624 2.0213 17.1489 2.04622 16.8284 2.0717L16.8281 2.07172L16.8261 2.07188C14.084 2.28987 10.8256 2.54889 7.99715 2.89998C6.41609 3.09623 4.99553 3.31822 3.88867 3.57174C3.52536 3.65495 3.20487 3.73955 2.9294 3.82478C3.61077 3.95255 4.58195 4.07655 5.90969 4.19251C12.2501 4.74623 24.2284 4.7472 31.571 4.7472C34.6909 4.7472 37.995 4.03147 40.974 3.21225C42.1973 2.87585 43.3511 2.52634 44.4119 2.205C44.6404 2.13577 44.8646 2.06786 45.0843 2.00166C46.3061 1.63345 47.4132 1.31013 48.2894 1.13618C48.8311 1.02862 49.3574 1.38057 49.465 1.92228C49.5725 2.46399 49.2206 2.99033 48.6789 3.09788C47.9142 3.24971 46.9008 3.54306 45.6614 3.91659C45.447 3.98121 45.2265 4.04801 45.0005 4.11647L44.9994 4.11679L44.9994 4.11681C44.445 4.28475 43.8575 4.46272 43.2446 4.64344C43.4782 5.99853 43.505 6.85316 43.3659 7.54414C43.2481 8.1296 43.006 8.5889 42.7494 9.07586C42.6801 9.20724 42.6098 9.34063 42.5406 9.47906C42.3623 9.8356 42.2212 10.1165 42.1071 10.3434L42.1071 10.3435C41.8401 10.8748 41.7218 11.1101 41.6243 11.3275C41.5415 11.512 41.4768 11.6763 41.3518 11.9936L41.3517 11.9937L41.3517 11.9938C41.2657 12.212 41.1512 12.5027 40.9828 12.922C40.4894 14.15 40.344 14.7558 40.2276 15.3267C40.213 15.3984 40.1987 15.4701 40.1842 15.5427C40.0784 16.0747 39.9627 16.6564 39.6194 17.669C39.4546 18.1553 39.3381 18.579 39.2338 18.9587L39.2338 18.9588L39.1821 19.1463C39.0677 19.5588 38.9533 19.9513 38.7843 20.2739C38.6044 20.6175 38.3537 20.901 37.9667 21.0845C37.5997 21.2584 37.1528 21.3214 36.6169 21.3214H17.6843H17.3224L17.2093 20.9776C17.1789 20.8851 17.1479 20.7898 17.1161 20.6923C16.7882 19.6856 16.3809 18.4352 15.746 17.4218C15.0568 16.3217 14.1784 15.6197 12.934 15.7344C11.7772 15.8411 11.0395 16.7631 10.445 17.8818C10.3005 18.1538 10.1696 18.4271 10.0452 18.6915L9.98281 18.8243L9.98279 18.8243L9.98276 18.8244C9.88202 19.0391 9.78331 19.2496 9.68806 19.4364C9.57457 19.659 9.45127 19.8781 9.31395 20.0524C9.18554 20.2154 8.9823 20.421 8.68733 20.4754C8.24874 20.5563 7.53779 20.5707 6.74541 20.5311C5.941 20.4908 5.01223 20.3926 4.12133 20.2313C3.23582 20.0711 2.3619 19.844 1.68102 19.5361C1.34084 19.3823 1.02664 19.1985 0.781216 18.9756C0.535036 18.7521 0.330479 18.463 0.276307 18.1035L0.270034 18.0618L0.270812 18.0197L0.510935 5.02881C0.332288 4.87548 0.148387 4.65475 0.0573027 4.35015C-0.172708 3.58095 0.3472 3.01232 0.601346 2.77802C0.934185 2.47117 1.3873 2.25369 1.82864 2.08758C2.2911 1.91352 2.84048 1.76003 3.44214 1.62222C4.64662 1.34634 6.14485 1.11455 7.75079 0.915211C10.6265 0.558259 13.9315 0.295601 16.667 0.0782006L16.6675 0.0781624C16.9893 0.052592 17.3031 0.0276476 17.6075 0.00324946C18.158 -0.04088 18.6401 0.36963 18.6842 0.920149ZM1.89977 4.30835C1.89881 4.30849 1.90364 4.30163 1.91715 4.28736C1.90749 4.30108 1.90073 4.30821 1.89977 4.30835Z" fill="#0D00FF"/>
</svg>
