<svg width="50" height="22" viewBox="0 0 50 22" fill="none" xmlns="http://www.w3.org/2000/svg">
<path fill-rule="evenodd" clip-rule="evenodd" d="M18.6837 0.920149C18.7279 1.47067 18.3173 1.95273 17.7668 1.99685C17.4619 2.0213 17.1485 2.04622 16.8279 2.0717L16.8276 2.07172L16.8256 2.07188C14.0835 2.28987 10.8251 2.54889 7.99666 2.89998C6.4156 3.09623 4.99505 3.31822 3.88818 3.57174C3.52487 3.65495 3.20438 3.73955 2.92891 3.82478C3.61029 3.95255 4.58146 4.07655 5.9092 4.19251C12.2497 4.74623 24.2279 4.7472 31.5705 4.7472C34.6904 4.7472 37.9946 4.03147 40.9735 3.21225C42.1968 2.87585 43.3506 2.52634 44.4114 2.205C44.6399 2.13577 44.8642 2.06786 45.0838 2.00166C46.3056 1.63345 47.4127 1.31013 48.2889 1.13618C48.8306 1.02862 49.3569 1.38057 49.4645 1.92228C49.572 2.46399 49.2201 2.99033 48.6784 3.09788C47.9137 3.24971 46.9004 3.54306 45.6609 3.91659C45.4465 3.98121 45.226 4.04801 45 4.11647L44.9989 4.11679L44.9989 4.11681C44.4445 4.28475 43.857 4.46272 43.2441 4.64344C43.4777 5.99853 43.5045 6.85316 43.3654 7.54414C43.2476 8.1296 43.0055 8.5889 42.7489 9.07586C42.6796 9.20724 42.6093 9.34063 42.5401 9.47906C42.3618 9.8356 42.2207 10.1165 42.1066 10.3434L42.1066 10.3435C41.8396 10.8748 41.7213 11.1101 41.6238 11.3275C41.541 11.512 41.4763 11.6763 41.3513 11.9936L41.3512 11.9937L41.3512 11.9938C41.2652 12.212 41.1507 12.5027 40.9823 12.922C40.4889 14.15 40.3436 14.7558 40.2271 15.3267C40.2125 15.3984 40.1982 15.4701 40.1838 15.5427C40.0779 16.0747 39.9622 16.6564 39.6189 17.669C39.4541 18.1553 39.3376 18.579 39.2333 18.9587L39.2333 18.9588L39.1816 19.1463C39.0672 19.5588 38.9528 19.9513 38.7838 20.2739C38.6039 20.6175 38.3532 20.901 37.9662 21.0845C37.5992 21.2584 37.1524 21.3214 36.6164 21.3214H17.6838H17.3219L17.2088 20.9776C17.1784 20.8851 17.1474 20.7898 17.1157 20.6923C16.7877 19.6856 16.3804 18.4352 15.7455 17.4218C15.0563 16.3217 14.1779 15.6197 12.9335 15.7344C11.7767 15.8411 11.039 16.7631 10.4445 17.8818C10.3 18.1538 10.1691 18.4271 10.0447 18.6915L9.98233 18.8243L9.9823 18.8243L9.98227 18.8244C9.88153 19.0391 9.78282 19.2496 9.68757 19.4364C9.57408 19.659 9.45078 19.8781 9.31346 20.0524C9.18506 20.2154 8.98181 20.421 8.68684 20.4754C8.24826 20.5563 7.5373 20.5707 6.74493 20.5311C5.94052 20.4908 5.01175 20.3926 4.12084 20.2313C3.23533 20.0711 2.36141 19.844 1.68054 19.5361C1.34035 19.3823 1.02615 19.1985 0.780728 18.9756C0.534548 18.7521 0.329991 18.463 0.275819 18.1035L0.269546 18.0618L0.270324 18.0197L0.510447 5.02881C0.3318 4.87548 0.147899 4.65475 0.0568144 4.35015C-0.173196 3.58095 0.346712 3.01232 0.600858 2.77802C0.933697 2.47117 1.38681 2.25369 1.82815 2.08758C2.29061 1.91352 2.84 1.76003 3.44166 1.62222C4.64613 1.34634 6.14436 1.11455 7.7503 0.915211C10.626 0.558259 13.931 0.295601 16.6665 0.0782006L16.667 0.0781624C16.9888 0.052592 17.3026 0.0276476 17.607 0.00324946C18.1575 -0.04088 18.6396 0.36963 18.6837 0.920149ZM1.89928 4.30835C1.89832 4.30849 1.90315 4.30163 1.91666 4.28736C1.907 4.30108 1.90024 4.30821 1.89928 4.30835Z" fill="url(#paint0_linear_13706_61707)"/>
<defs>
<linearGradient id="paint0_linear_13706_61707" x1="49.4838" y1="10.7957" x2="-0.000488043" y2="10.7957" gradientUnits="userSpaceOnUse">
<stop stop-color="#F0899E"/>
<stop offset="0.244792" stop-color="#9617D2"/>
<stop offset="0.510417" stop-color="#4E0FFF"/>
<stop offset="0.75" stop-color="#2C60FD"/>
<stop offset="1" stop-color="#30F0F6"/>
</linearGradient>
</defs>
</svg>
